<svg width="279" height="306" viewBox="0 0 279 306" fill="none" xmlns="http://www.w3.org/2000/svg">
<g filter="url(#filter0_d_27_2284)">
<rect x="29.5" y="26" width="220" height="248" rx="10" fill="white"/>
</g>
<path d="M140 124H124C122.939 124 121.922 124.421 121.172 125.172C120.421 125.922 120 126.939 120 128V148M120 148V152C120 153.061 120.421 154.078 121.172 154.828C121.922 155.579 122.939 156 124 156H148C149.061 156 150.078 155.579 150.828 154.828C151.579 154.078 152 153.061 152 152V144M120 148L129.172 138.828C129.922 138.078 130.939 137.657 132 137.657C133.061 137.657 134.078 138.078 134.828 138.828L140 144M152 136V144M152 144L148.828 140.828C148.078 140.078 147.061 139.657 146 139.657C144.939 139.657 143.922 140.078 143.172 140.828L140 144M140 144L144 148M148 124H156M152 120V128M140 132H140.02" stroke="#9CA3AF" stroke-width="2" stroke-linecap="round" stroke-linejoin="round"/>
<path d="M103.987 170.818H105.529V177.515C105.529 178.228 105.361 178.859 105.027 179.409C104.692 179.956 104.221 180.387 103.615 180.702C103.008 181.013 102.297 181.169 101.482 181.169C100.67 181.169 99.9605 181.013 99.354 180.702C98.7474 180.387 98.2768 179.956 97.942 179.409C97.6073 178.859 97.4399 178.228 97.4399 177.515V170.818H98.9761V177.391C98.9761 177.851 99.0772 178.261 99.2794 178.619C99.4849 178.977 99.7749 179.258 100.149 179.464C100.524 179.666 100.968 179.767 101.482 179.767C101.999 179.767 102.445 179.666 102.819 179.464C103.197 179.258 103.485 178.977 103.684 178.619C103.886 178.261 103.987 177.851 103.987 177.391V170.818ZM107.643 183.864V173.364H109.095V174.602H109.219C109.305 174.442 109.429 174.259 109.592 174.05C109.754 173.841 109.979 173.659 110.268 173.503C110.556 173.344 110.937 173.264 111.411 173.264C112.028 173.264 112.578 173.42 113.062 173.732C113.546 174.043 113.925 174.492 114.2 175.079C114.479 175.665 114.618 176.371 114.618 177.197C114.618 178.022 114.48 178.73 114.205 179.32C113.93 179.906 113.552 180.359 113.072 180.677C112.591 180.992 112.043 181.149 111.426 181.149C110.962 181.149 110.583 181.071 110.288 180.915C109.996 180.76 109.767 180.577 109.602 180.369C109.436 180.16 109.308 179.974 109.219 179.812H109.129V183.864H107.643ZM109.1 177.182C109.1 177.719 109.177 178.189 109.333 178.594C109.489 178.998 109.714 179.315 110.009 179.543C110.304 179.769 110.666 179.881 111.093 179.881C111.537 179.881 111.908 179.764 112.207 179.528C112.505 179.29 112.73 178.967 112.883 178.559C113.039 178.151 113.117 177.692 113.117 177.182C113.117 176.678 113.04 176.226 112.888 175.825C112.739 175.424 112.513 175.107 112.212 174.875C111.913 174.643 111.541 174.527 111.093 174.527C110.662 174.527 110.298 174.638 109.999 174.86C109.704 175.082 109.481 175.392 109.328 175.79C109.176 176.187 109.1 176.652 109.1 177.182ZM117.77 170.818V181H116.283V170.818H117.77ZM122.986 181.154C122.271 181.154 121.646 180.99 121.112 180.662C120.579 180.334 120.164 179.875 119.869 179.285C119.574 178.695 119.427 178.005 119.427 177.217C119.427 176.424 119.574 175.732 119.869 175.138C120.164 174.545 120.579 174.085 121.112 173.756C121.646 173.428 122.271 173.264 122.986 173.264C123.702 173.264 124.327 173.428 124.861 173.756C125.394 174.085 125.809 174.545 126.104 175.138C126.399 175.732 126.546 176.424 126.546 177.217C126.546 178.005 126.399 178.695 126.104 179.285C125.809 179.875 125.394 180.334 124.861 180.662C124.327 180.99 123.702 181.154 122.986 181.154ZM122.991 179.906C123.455 179.906 123.84 179.784 124.145 179.538C124.45 179.293 124.675 178.967 124.821 178.559C124.97 178.151 125.045 177.702 125.045 177.212C125.045 176.724 124.97 176.277 124.821 175.869C124.675 175.458 124.45 175.129 124.145 174.88C123.84 174.631 123.455 174.507 122.991 174.507C122.524 174.507 122.136 174.631 121.828 174.88C121.523 175.129 121.296 175.458 121.147 175.869C121.001 176.277 120.928 176.724 120.928 177.212C120.928 177.702 121.001 178.151 121.147 178.559C121.296 178.967 121.523 179.293 121.828 179.538C122.136 179.784 122.524 179.906 122.991 179.906ZM130.428 181.169C129.944 181.169 129.506 181.08 129.115 180.901C128.724 180.718 128.414 180.455 128.185 180.11C127.96 179.765 127.847 179.343 127.847 178.842C127.847 178.411 127.93 178.057 128.096 177.778C128.262 177.5 128.485 177.28 128.767 177.117C129.049 176.955 129.364 176.832 129.712 176.749C130.06 176.666 130.414 176.603 130.776 176.56C131.233 176.507 131.604 176.464 131.889 176.431C132.174 176.395 132.381 176.337 132.511 176.257C132.64 176.178 132.705 176.048 132.705 175.869V175.835C132.705 175.4 132.582 175.064 132.337 174.825C132.095 174.587 131.734 174.467 131.253 174.467C130.752 174.467 130.358 174.578 130.07 174.8C129.785 175.019 129.587 175.263 129.478 175.531L128.081 175.213C128.247 174.749 128.489 174.375 128.807 174.089C129.128 173.801 129.498 173.592 129.916 173.463C130.333 173.33 130.772 173.264 131.233 173.264C131.538 173.264 131.861 173.301 132.203 173.374C132.547 173.443 132.869 173.572 133.167 173.761C133.469 173.95 133.716 174.22 133.908 174.572C134.1 174.92 134.196 175.372 134.196 175.929V181H132.744V179.956H132.685C132.589 180.148 132.444 180.337 132.252 180.523C132.06 180.708 131.813 180.862 131.511 180.985C131.21 181.108 130.849 181.169 130.428 181.169ZM130.751 179.976C131.162 179.976 131.513 179.895 131.805 179.732C132.1 179.57 132.323 179.358 132.476 179.096C132.632 178.831 132.71 178.547 132.71 178.246V177.261C132.657 177.314 132.554 177.364 132.401 177.411C132.252 177.454 132.082 177.492 131.889 177.525C131.697 177.555 131.51 177.583 131.328 177.609C131.145 177.633 130.993 177.652 130.87 177.669C130.582 177.705 130.318 177.767 130.08 177.853C129.844 177.939 129.655 178.063 129.513 178.226C129.374 178.385 129.304 178.597 129.304 178.862C129.304 179.23 129.44 179.509 129.712 179.697C129.984 179.883 130.33 179.976 130.751 179.976ZM139.035 181.149C138.418 181.149 137.868 180.992 137.384 180.677C136.904 180.359 136.526 179.906 136.251 179.32C135.979 178.73 135.843 178.022 135.843 177.197C135.843 176.371 135.98 175.665 136.256 175.079C136.534 174.492 136.915 174.043 137.399 173.732C137.883 173.42 138.431 173.264 139.045 173.264C139.519 173.264 139.9 173.344 140.188 173.503C140.48 173.659 140.705 173.841 140.864 174.05C141.027 174.259 141.153 174.442 141.242 174.602H141.332V170.818H142.818V181H141.366V179.812H141.242C141.153 179.974 141.023 180.16 140.854 180.369C140.689 180.577 140.46 180.76 140.168 180.915C139.877 181.071 139.499 181.149 139.035 181.149ZM139.363 179.881C139.79 179.881 140.152 179.769 140.447 179.543C140.745 179.315 140.97 178.998 141.123 178.594C141.279 178.189 141.356 177.719 141.356 177.182C141.356 176.652 141.28 176.187 141.128 175.79C140.975 175.392 140.752 175.082 140.457 174.86C140.162 174.638 139.797 174.527 139.363 174.527C138.915 174.527 138.543 174.643 138.244 174.875C137.946 175.107 137.721 175.424 137.568 175.825C137.419 176.226 137.344 176.678 137.344 177.182C137.344 177.692 137.421 178.151 137.573 178.559C137.726 178.967 137.951 179.29 138.249 179.528C138.551 179.764 138.922 179.881 139.363 179.881ZM150.867 181.169C150.383 181.169 149.946 181.08 149.555 180.901C149.164 180.718 148.854 180.455 148.625 180.11C148.4 179.765 148.287 179.343 148.287 178.842C148.287 178.411 148.37 178.057 148.535 177.778C148.701 177.5 148.925 177.28 149.207 177.117C149.488 176.955 149.803 176.832 150.151 176.749C150.499 176.666 150.854 176.603 151.215 176.56C151.672 176.507 152.044 176.464 152.329 176.431C152.614 176.395 152.821 176.337 152.95 176.257C153.079 176.178 153.144 176.048 153.144 175.869V175.835C153.144 175.4 153.021 175.064 152.776 174.825C152.534 174.587 152.173 174.467 151.692 174.467C151.192 174.467 150.797 174.578 150.509 174.8C150.224 175.019 150.027 175.263 149.918 175.531L148.521 175.213C148.686 174.749 148.928 174.375 149.246 174.089C149.568 173.801 149.937 173.592 150.355 173.463C150.773 173.33 151.212 173.264 151.672 173.264C151.977 173.264 152.301 173.301 152.642 173.374C152.987 173.443 153.308 173.572 153.606 173.761C153.908 173.95 154.155 174.22 154.347 174.572C154.539 174.92 154.636 175.372 154.636 175.929V181H153.184V179.956H153.124C153.028 180.148 152.884 180.337 152.692 180.523C152.499 180.708 152.253 180.862 151.951 180.985C151.649 181.108 151.288 181.169 150.867 181.169ZM151.19 179.976C151.601 179.976 151.953 179.895 152.244 179.732C152.539 179.57 152.763 179.358 152.915 179.096C153.071 178.831 153.149 178.547 153.149 178.246V177.261C153.096 177.314 152.993 177.364 152.841 177.411C152.692 177.454 152.521 177.492 152.329 177.525C152.137 177.555 151.949 177.583 151.767 177.609C151.585 177.633 151.432 177.652 151.31 177.669C151.021 177.705 150.758 177.767 150.519 177.853C150.284 177.939 150.095 178.063 149.952 178.226C149.813 178.385 149.744 178.597 149.744 178.862C149.744 179.23 149.879 179.509 150.151 179.697C150.423 179.883 150.769 179.976 151.19 179.976ZM163.955 173.364V174.557H159.639V173.364H163.955ZM160.823 181V172.479C160.823 172.001 160.927 171.605 161.136 171.29C161.345 170.972 161.621 170.735 161.966 170.58C162.311 170.42 162.685 170.341 163.09 170.341C163.388 170.341 163.643 170.366 163.855 170.415C164.068 170.462 164.225 170.505 164.328 170.545L163.98 171.748C163.91 171.728 163.821 171.705 163.711 171.678C163.602 171.648 163.469 171.634 163.313 171.634C162.952 171.634 162.694 171.723 162.538 171.902C162.385 172.081 162.309 172.339 162.309 172.678V181H160.823ZM165.489 181V173.364H166.975V181H165.489ZM166.239 172.185C165.981 172.185 165.759 172.099 165.573 171.927C165.391 171.751 165.3 171.542 165.3 171.3C165.3 171.055 165.391 170.846 165.573 170.674C165.759 170.498 165.981 170.411 166.239 170.411C166.498 170.411 166.718 170.498 166.9 170.674C167.086 170.846 167.179 171.055 167.179 171.3C167.179 171.542 167.086 171.751 166.9 171.927C166.718 172.099 166.498 172.185 166.239 172.185ZM170.461 170.818V181H168.975V170.818H170.461ZM175.752 181.154C175 181.154 174.352 180.993 173.809 180.672C173.268 180.347 172.851 179.891 172.556 179.305C172.264 178.715 172.118 178.024 172.118 177.232C172.118 176.449 172.264 175.76 172.556 175.163C172.851 174.567 173.262 174.101 173.789 173.766C174.319 173.432 174.939 173.264 175.648 173.264C176.079 173.264 176.496 173.335 176.901 173.478C177.305 173.621 177.668 173.844 177.99 174.149C178.311 174.454 178.565 174.85 178.75 175.337C178.936 175.821 179.029 176.41 179.029 177.102V177.629H172.958V176.516H177.572C177.572 176.125 177.492 175.778 177.333 175.477C177.174 175.172 176.951 174.931 176.662 174.756C176.377 174.58 176.042 174.492 175.658 174.492C175.24 174.492 174.876 174.595 174.564 174.8C174.256 175.003 174.017 175.268 173.848 175.596C173.683 175.921 173.6 176.274 173.6 176.655V177.525C173.6 178.035 173.689 178.469 173.868 178.827C174.05 179.185 174.304 179.459 174.629 179.648C174.954 179.833 175.333 179.926 175.767 179.926C176.049 179.926 176.306 179.886 176.538 179.807C176.77 179.724 176.97 179.601 177.139 179.439C177.309 179.277 177.438 179.076 177.527 178.837L178.934 179.091C178.822 179.505 178.619 179.868 178.328 180.18C178.039 180.488 177.676 180.728 177.239 180.901C176.805 181.07 176.309 181.154 175.752 181.154Z" fill="#FFCA42"/>
<defs>
<filter id="filter0_d_27_2284" x="0.5" y="0" width="278" height="306" filterUnits="userSpaceOnUse" color-interpolation-filters="sRGB">
<feFlood flood-opacity="0" result="BackgroundImageFix"/>
<feColorMatrix in="SourceAlpha" type="matrix" values="0 0 0 0 0 0 0 0 0 0 0 0 0 0 0 0 0 0 127 0" result="hardAlpha"/>
<feMorphology radius="5" operator="dilate" in="SourceAlpha" result="effect1_dropShadow_27_2284"/>
<feOffset dy="3"/>
<feGaussianBlur stdDeviation="12"/>
<feComposite in2="hardAlpha" operator="out"/>
<feColorMatrix type="matrix" values="0 0 0 0 0 0 0 0 0 0 0 0 0 0 0 0 0 0 0.05 0"/>
<feBlend mode="normal" in2="BackgroundImageFix" result="effect1_dropShadow_27_2284"/>
<feBlend mode="normal" in="SourceGraphic" in2="effect1_dropShadow_27_2284" result="shape"/>
</filter>
</defs>
</svg>
