<svg width="24" height="25" viewBox="0 0 24 25" fill="none" xmlns="http://www.w3.org/2000/svg">
<path fill-rule="evenodd" clip-rule="evenodd" d="M3.11799 12.967C2.96099 12.676 2.96099 12.323 3.11799 12.032C5.00999 8.533 8.50499 5.5 12 5.5C15.495 5.5 18.99 8.533 20.882 12.033C21.039 12.324 21.039 12.677 20.882 12.968C18.99 16.467 15.495 19.5 12 19.5C8.50499 19.5 5.00999 16.467 3.11799 12.967Z" stroke="#828282" stroke-width="1.5" stroke-linecap="round" stroke-linejoin="round"/>
<path d="M14.1213 10.3787C15.2929 11.5502 15.2929 13.4497 14.1213 14.6213C12.9497 15.7929 11.0502 15.7929 9.87868 14.6213C8.70711 13.4497 8.70711 11.5502 9.87868 10.3787C11.0502 9.20711 12.9497 9.20711 14.1213 10.3787" stroke="#828282" stroke-width="1.4286" stroke-linecap="round" stroke-linejoin="round"/>
</svg>
