<svg width="780" height="613" viewBox="0 0 780 613" fill="none" xmlns="http://www.w3.org/2000/svg">
<mask id="mask0_25_2276" style="mask-type:alpha" maskUnits="userSpaceOnUse" x="0" y="0" width="780" height="613">
<rect width="780" height="613" fill="#C4C4C4"/>
</mask>
<g mask="url(#mask0_25_2276)">
<path d="M135.267 414.532C64.7841 508.827 71.3481 588.038 209.23 613H782V0H81.925C-116.756 169.823 321.544 165.322 135.267 414.532Z" fill="#1B3764"/>
<path d="M1172.61 287C1172.61 416.882 1054.31 524.5 905.337 524.5C756.368 524.5 638.067 416.882 638.067 287C638.067 157.118 756.368 49.5 905.337 49.5C1054.31 49.5 1172.61 157.118 1172.61 287Z" stroke="#F5F6F8" stroke-opacity="0.3" stroke-width="25"/>
</g>
<path d="M537.34 309.59L536.64 308.79C538.41 307.25 539.51 306.43 539.56 306.39L540.19 307.25C540.19 307.25 539.07 308.08 537.34 309.59Z" fill="#CCC3BC"/>
<path d="M523.02 466.88L522.98 465.81C525.49 465.72 527.95 465.62 530.34 465.5L530.4 466.56C528 466.69 525.54 466.79 523.02 466.88ZM534.62 466.32L534.55 465.26C537.02 465.1 539.49 464.92 541.9 464.72L541.99 465.78C539.58 465.99 537.1 466.17 534.62 466.33V466.32ZM546.19 465.39L546.09 464.33C548.58 464.09 551.04 463.81 553.41 463.51L553.54 464.57C551.16 464.87 548.69 465.15 546.19 465.39ZM557.72 464.01L557.57 462.95C560.07 462.59 562.51 462.2 564.84 461.79L565.03 462.84C562.69 463.25 560.24 463.65 557.73 464.01H557.72ZM569.17 462.06L568.96 461.01C571.41 460.52 573.83 459.99 576.14 459.42L576.39 460.46C574.07 461.03 571.64 461.57 569.17 462.06ZM580.49 459.4L580.21 458.37C582.64 457.7 585.01 456.98 587.23 456.22L587.57 457.23C585.33 457.99 582.94 458.72 580.49 459.4ZM591.55 455.8L591.17 454.8C593.53 453.89 595.79 452.92 597.9 451.91L598.36 452.87C596.23 453.9 593.94 454.88 591.55 455.8ZM602.13 450.93L601.61 450C603.82 448.77 605.9 447.46 607.79 446.11L608.41 446.97C606.49 448.35 604.38 449.69 602.13 450.93ZM611.76 444.34L611.07 443.53C612.97 441.9 614.7 440.17 616.19 438.37L617.01 439.05C615.47 440.89 613.71 442.67 611.76 444.34ZM619.56 435.63L618.67 435.04C620.01 433.01 621.14 430.85 622.03 428.62L623.02 429.01C622.1 431.31 620.94 433.54 619.56 435.63ZM624.37 424.96L623.34 424.68C623.95 422.41 624.37 420 624.57 417.52L625.63 417.61C625.42 420.16 625 422.63 624.37 424.96ZM624.72 413.35C624.72 412.42 624.68 411.46 624.62 410.49C624.53 408.98 624.37 407.5 624.15 406.07L625.2 405.91C625.43 407.37 625.59 408.89 625.68 410.42C625.74 411.41 625.77 412.39 625.78 413.33H624.71L624.72 413.35ZM623.31 402.01C622.69 399.6 621.86 397.31 620.84 395.18L621.8 394.72C622.85 396.91 623.71 399.27 624.34 401.74L623.31 402.01ZM618.81 391.57C617.5 389.53 615.95 387.65 614.22 385.97L614.96 385.21C616.75 386.95 618.34 388.89 619.7 391L618.8 391.58L618.81 391.57ZM611.07 383.27C609.19 381.85 607.1 380.59 604.86 379.52L605.32 378.56C607.63 379.66 609.78 380.96 611.72 382.42L611.08 383.27H611.07ZM601.02 377.93C598.82 377.14 596.45 376.49 593.99 375.99L594.2 374.94C596.71 375.45 599.13 376.11 601.38 376.92L601.02 377.92V377.93ZM549.81 377.51C549.18 377.51 548.55 377.51 547.93 377.48L547.96 376.41C550.29 376.47 552.76 376.41 555.28 376.22L555.36 377.28C553.47 377.42 551.61 377.49 549.81 377.49V377.51ZM543.69 377.22C541.13 376.97 538.66 376.56 536.34 375.99L536.59 374.95C538.86 375.51 541.28 375.91 543.79 376.15L543.69 377.21V377.22ZM559.59 376.87L559.46 375.81C560.7 375.65 561.97 375.47 563.25 375.25C564.43 375.05 565.6 374.87 566.75 374.71L566.9 375.77C565.76 375.93 564.6 376.11 563.43 376.31C562.14 376.53 560.85 376.72 559.6 376.88L559.59 376.87ZM589.88 375.31C587.55 375.01 585.09 374.83 582.58 374.77L582.6 373.7C585.15 373.76 587.65 373.94 590.01 374.25L589.87 375.31H589.88ZM571.07 375.26L570.96 374.2C573.48 373.94 575.97 373.78 578.36 373.71L578.39 374.78C576.03 374.84 573.56 375 571.07 375.26ZM532.26 374.77C529.81 373.9 527.54 372.83 525.5 371.58L526.06 370.67C528.03 371.88 530.24 372.92 532.62 373.76L532.26 374.77ZM522.01 369.08C520.03 367.43 518.34 365.55 516.99 363.5L517.88 362.91C519.17 364.87 520.79 366.67 522.7 368.26L522.02 369.08H522.01ZM514.95 359.71C513.98 357.41 513.37 354.96 513.15 352.42L514.21 352.33C514.42 354.76 515 357.11 515.93 359.3L514.95 359.72V359.71ZM514.19 348.2L513.13 348.12C513.28 346.14 513.65 344.11 514.23 342.09C514.35 341.65 514.49 341.22 514.62 340.78L515.64 341.1C515.51 341.52 515.38 341.95 515.26 342.38C514.7 344.33 514.34 346.29 514.2 348.2H514.19ZM517.05 337.17L516.06 336.77C516.96 334.53 518.04 332.27 519.26 330.05L520.19 330.56C518.99 332.74 517.93 334.96 517.04 337.16L517.05 337.17ZM522.33 326.97L521.43 326.4C522.73 324.36 524.17 322.32 525.73 320.33L526.57 320.99C525.04 322.95 523.61 324.96 522.34 326.97H522.33ZM529.23 317.75L528.42 317.05C530.04 315.19 531.75 313.37 533.53 311.65L534.27 312.42C532.52 314.12 530.82 315.91 529.23 317.75Z" fill="#CCC3BC"/>
<path d="M514.79 467.09L514.77 466.02C516.03 466 517.27 465.98 518.5 465.95L518.53 467.02C517.3 467.05 516.05 467.08 514.79 467.09Z" fill="#CCC3BC"/>
<path d="M539.87 295.3L519.59 282.02L607.07 264.89L539.87 295.3Z" fill="#F2E2E5"/>
<path d="M539.87 295.3L545.77 308.61L607.07 264.89L539.87 295.3Z" fill="#E0D3D5"/>
<path d="M548.56 301.54L545.77 308.61L558.89 299.91L548.56 301.54Z" fill="#CCBEC1"/>
<path d="M548.56 301.54L565.26 329.62L607.07 264.89L548.56 301.54Z" fill="#F2E2E5"/>
<path d="M230.99 480.57C230.99 480.57 213.21 484.87 203.97 488.85C194.72 492.83 182.33 492.56 280.62 509.05C378.91 525.54 385.52 528.65 382.4 533.19C379.27 537.72 423.28 541.72 440.08 539.86C456.88 538 462.75 533.19 462.75 533.19C462.75 533.19 500.9 536.66 525.17 554.26C564.02 537.99 631.31 509.05 631.31 509.05L577.69 495.85L230.99 480.57Z" fill="#E8E2DD"/>
<path d="M505.86 479.09L496.46 478.01L493.33 481.79L505.86 479.09Z" fill="#0A6C8E"/>
<path d="M469.14 256.48L469.08 301.78C469.08 301.78 415.8 305.87 404.24 302.21C392.68 298.55 398.11 283.27 398.12 275.97C398.13 268.67 398.31 250.9 400.17 246.71C402.03 242.52 410.82 244.71 421.62 246.05C432.42 247.39 469.14 256.47 469.14 256.47V256.48Z" fill="#EEE6DE"/>
<path d="M398.11 275.97C398.12 268.67 398.3 250.9 400.16 246.71C402.02 242.52 410.81 244.71 421.61 246.05C432.41 247.39 469.13 256.47 469.13 256.47V264.06C459.24 261.66 433.58 256.73 424.99 255.66C414.19 254.31 406.57 252.89 404.71 257.07C402.85 261.25 402.22 277.26 402.21 284.56C402.21 288.58 400.56 295.01 401.01 300.6C393.81 295.28 398.1 282.46 398.11 275.97Z" fill="#EFD5BF"/>
<g opacity="0.58">
<g style="mix-blend-mode:multiply">
<path d="M398.43 247.35L468.61 260.15C468.61 260.15 412.29 247.76 398.43 247.35Z" fill="#E8D3C1"/>
</g>
<g style="mix-blend-mode:multiply">
<path d="M396.57 273.34L467.38 278.86C467.38 278.86 410.36 272.41 396.57 273.34Z" fill="#E8D3C1"/>
</g>
<g style="mix-blend-mode:multiply">
<path d="M396.57 270.45L467.34 277.78C467.34 277.78 410.38 269.78 396.57 270.45Z" fill="#E8D3C1"/>
</g>
<g style="mix-blend-mode:multiply">
<path d="M396.57 268.7L467.34 276.03C467.34 276.03 410.38 268.03 396.57 268.7Z" fill="#E8D3C1"/>
</g>
<g style="mix-blend-mode:multiply">
<path d="M396.6 266.4L467.32 274.43C467.32 274.43 410.42 265.86 396.6 266.4Z" fill="#E8D3C1"/>
</g>
<g style="mix-blend-mode:multiply">
<path d="M396.67 263.34L467.26 272.86C467.26 272.86 410.51 263.1 396.67 263.34Z" fill="#E8D3C1"/>
</g>
<g style="mix-blend-mode:multiply">
<path d="M396.67 261.14L467.26 270.64C467.26 270.64 410.51 260.89 396.67 261.14Z" fill="#E8D3C1"/>
</g>
<g style="mix-blend-mode:multiply">
<path d="M396.71 258.44L467.23 268.63C467.23 268.63 410.56 258.33 396.71 258.44Z" fill="#E8D3C1"/>
</g>
<g style="mix-blend-mode:multiply">
<path d="M396.71 255.92L467.23 266.11C467.23 266.11 410.56 255.81 396.71 255.92Z" fill="#E8D3C1"/>
</g>
<g style="mix-blend-mode:multiply">
<path d="M396.76 253.35L467.19 264.3C467.19 264.3 410.61 253.39 396.76 253.35Z" fill="#E8D3C1"/>
</g>
<g style="mix-blend-mode:multiply">
<path d="M396.46 250.48L466.89 261.43C466.89 261.43 410.31 250.52 396.46 250.48Z" fill="#E8D3C1"/>
</g>
<g style="mix-blend-mode:multiply">
<path d="M398.59 297.34L466.89 297.25C466.89 297.25 412.35 299.3 398.59 297.34Z" fill="#E8D3C1"/>
</g>
<g style="mix-blend-mode:multiply">
<path d="M396.84 275.52L467.09 280.26C467.09 280.26 410.69 278.05 396.84 275.52Z" fill="#E8D3C1"/>
</g>
<g style="mix-blend-mode:multiply">
<path d="M396.86 277.85L467.06 281.88C467.06 281.88 410.57 280.76 396.86 277.85Z" fill="#E8D3C1"/>
</g>
<g style="mix-blend-mode:multiply">
<path d="M396.92 280.94L467 283.45C467 283.45 410.65 283.55 396.92 280.94Z" fill="#E8D3C1"/>
</g>
<g style="mix-blend-mode:multiply">
<path d="M396.91 283.15L466.99 285.68C466.99 285.68 410.64 285.77 396.91 283.15Z" fill="#E8D3C1"/>
</g>
<g style="mix-blend-mode:multiply">
<path d="M396.94 285.88L466.95 287.7C466.95 287.7 410.68 288.36 396.94 285.88Z" fill="#E8D3C1"/>
</g>
<g style="mix-blend-mode:multiply">
<path d="M396.93 288.42L466.94 290.24C466.94 290.24 410.67 290.9 396.93 288.42Z" fill="#E8D3C1"/>
</g>
<g style="mix-blend-mode:multiply">
<path d="M396.96 291.02L466.89 292.06C466.89 292.06 410.71 293.35 396.96 291.02Z" fill="#E8D3C1"/>
</g>
<g style="mix-blend-mode:multiply">
<path d="M396.65 293.86L466.58 294.9C466.58 294.9 410.4 296.19 396.65 293.86Z" fill="#E8D3C1"/>
</g>
<g style="mix-blend-mode:multiply">
<path d="M398.03 299.46L468.28 300.27C468.28 300.27 411.81 301.48 398.03 299.46Z" fill="#E8D3C1"/>
</g>
</g>
<path d="M405.4 240.43C405.4 240.43 289.25 252.94 279.78 255.76C270.31 258.58 272.46 286.7 274.08 295.42C275.7 304.14 282.09 306.69 288.88 306.96C295.67 307.23 415.43 306.74 415.43 306.74C415.43 306.74 399.28 303.78 397.57 291.51C395.86 279.24 398.67 254.85 399.22 250.7C399.77 246.56 405.4 240.43 405.4 240.43Z" fill="#9E6718"/>
<path d="M354.15 293.74C352.56 281.77 355.17 257.97 355.68 253.93C356.03 251.16 358.61 247.47 360.19 245.43C360.19 245.43 360.19 245.43 360.18 245.43C357.45 245.75 354.67 246.09 351.87 246.42C350.28 248.51 347.99 251.92 347.67 254.52C347.16 258.56 344.55 282.36 346.14 294.33C347.07 301.32 350.26 305.05 352.76 306.94C355.71 306.94 358.66 306.92 361.58 306.91C359.01 305.23 355.19 301.49 354.16 293.72L354.15 293.74Z" fill="#FFD773"/>
<path d="M340.23 294.15C338.64 282.48 341.25 259.29 341.76 255.36C342.11 252.67 344.67 249.1 346.25 247.11C343.46 247.45 340.67 247.79 337.88 248.13C336.3 250.17 334.06 253.43 333.74 255.94C333.23 259.88 330.62 283.07 332.21 294.73C333.13 301.5 336.29 305.13 338.79 307C341.7 307 344.64 306.99 347.6 306.98C345.03 305.33 341.25 301.67 340.23 294.16V294.15Z" fill="#FFD773"/>
<path d="M394.55 272.97C394.64 271.12 394.73 269.33 394.79 267.66C394.83 266.55 394.86 265.42 394.89 264.29C395.11 255.52 395.35 246.46 400.48 242.39C402.8 240.55 405.8 239.96 409.39 240.61C419.73 242.49 463.42 251.81 472.84 253.82V259.99C466.68 258.67 419.09 248.51 408.5 246.59C406.11 246.16 405.04 246.73 404.45 247.19C401.44 249.58 401.23 257.6 401.05 264.68C401.02 265.83 400.99 266.98 400.95 268.1C400.89 269.8 400.73 272.77 400.7 273.5C400.65 275.06 399.84 297.01 403.54 299.45C407.65 301.46 441.78 303.2 472.76 301.68V307.78C460.71 308.37 432.97 307.43 415.41 306.72C408.19 306.43 402.69 305.82 400.71 304.73C393.15 300.56 393.86 286.52 394.54 272.95L394.55 272.97Z" fill="#87510A"/>
<g style="mix-blend-mode:multiply">
<path d="M404.38 281.22C404.38 281.22 405.46 296.27 405.34 305.94C411.11 306.56 417.32 306.81 417.32 306.81C417.32 306.81 414.74 281.9 404.38 281.22Z" fill="#EFD5BF"/>
</g>
<g style="mix-blend-mode:overlay" opacity="0.46">
<path d="M281.43 257.41C281.43 257.41 360 248.24 372.87 247.03C385.74 245.82 390.1 244.67 391.86 245.9C393.62 247.13 392.86 258.5 391.86 260.16C390.86 261.83 382.98 261.75 374.32 261.98C365.67 262.21 281.27 266.05 278.82 266.12C276.37 266.19 276.83 262.26 277.7 260.68C278.57 259.1 279.65 257.62 281.43 257.41Z" fill="white"/>
</g>
<path d="M472.84 352.6C472.84 352.6 478.72 368.39 478.52 381.4C480.68 378.35 482.83 374.23 482.83 374.23L489.83 380.5C489.83 380.5 485.51 351.5 479.96 342.68C474.41 333.86 472.84 352.59 472.84 352.59V352.6Z" fill="#EE6D4A"/>
<path d="M262.31 353.08L283.43 366.67H460.39L479.96 353.08C479.96 353.08 394.52 350.16 366.51 348.09C338.5 346.02 262.31 353.08 262.31 353.08Z" fill="#007F7C"/>
<path d="M262.31 305.85C262.31 305.85 471.58 306.73 479.23 307.61C483.93 309.08 483.64 321.13 483.93 331.42C484.22 341.71 484.52 351.53 479.96 353.08C475.4 354.64 265.74 353.19 262.31 353.08C258.88 352.97 256.53 346.31 256.14 335.53C255.75 324.75 254.58 305.81 262.31 305.84V305.85Z" fill="#00AAAC"/>
<path d="M284.27 305.95C281.52 305.94 278.97 305.93 276.67 305.91C275.84 307.03 274.95 308.98 274.95 312.21V342.14C274.95 346.05 276.85 350.62 278.3 353.21C281.1 353.23 284.22 353.25 287.61 353.27C285.82 351.27 283.07 347.52 282.47 342.8C281.56 335.66 281.71 317.59 282.08 313.33C282.37 309.99 283.27 307.2 284.27 305.93V305.95Z" fill="#4CEDE5"/>
<path d="M297.59 306.01C294.94 306 292.41 305.98 289.99 305.97C289.17 307.1 288.32 309.04 288.32 312.21V342.14C288.32 346.1 290.26 350.73 291.72 353.31C294.67 353.33 297.79 353.35 301.06 353.37C299.27 351.39 296.45 347.6 295.84 342.81C294.93 335.67 295.08 317.6 295.45 313.34C295.73 310.06 296.61 307.31 297.59 306.01Z" fill="#4CEDE5"/>
<path d="M454.17 353.7C457.52 353.68 460.61 353.65 463.41 353.62C464.84 350.99 466.62 346.61 466.62 342.82V312.89C466.62 310.21 466.01 308.42 465.33 307.25C463.01 307.21 460.44 307.18 457.66 307.14C458.52 308.56 459.25 311.08 459.5 314.02C459.87 318.28 460.01 336.36 459.11 343.49C458.53 348.03 455.98 351.65 454.19 353.7H454.17Z" fill="#4CEDE5"/>
<path d="M440.74 353.77C443.97 353.76 447.05 353.75 449.97 353.73C451.41 351.11 453.23 346.66 453.23 342.82V312.89C453.23 310.08 452.56 308.24 451.84 307.07C449.4 307.04 446.84 307.01 444.16 306.99C445.06 308.38 445.84 310.96 446.11 314.02C446.48 318.28 446.62 336.36 445.72 343.49C445.14 348.08 442.53 351.73 440.74 353.77Z" fill="#4CEDE5"/>
<g style="mix-blend-mode:overlay">
<path d="M262.31 309.08H474.33C479.23 309.08 480.89 311.28 481.29 315.19C481.68 319.1 480.11 319.77 470.32 319.65C460.52 319.53 268.79 319.65 262.32 319.65C255.85 319.65 257.47 309.08 262.32 309.08H262.31Z" fill="#00C1BC"/>
</g>
<path d="M378.44 517.58C378.44 517.58 241.79 490.43 231.6 487.33C221.41 484.23 218.31 454.11 229.83 450.34C241.35 446.57 371.59 438.6 371.59 438.6L523.2 447.3L378.44 517.59V517.58Z" fill="#167BA8"/>
<path d="M231.61 487.32C241.8 490.42 378.45 517.57 378.45 517.57L456.5 477.79L225.56 453.71C219.43 462.66 222.97 484.69 231.61 487.32Z" fill="#3989B4"/>
<path d="M519.55 450.92C491.43 453.24 391.04 461.99 377.35 469.6C361.4 478.46 366.72 513.46 380.01 514.34C390.78 515.06 484.38 495.14 519.55 487.54V450.91V450.92Z" fill="#EEE6DE"/>
<path d="M384.72 480.56C397.4 473.52 484.41 465.49 519.55 462.5V450.92C491.43 453.24 391.04 461.99 377.35 469.6C362.87 477.64 365.92 507.23 376.55 513.27C373.08 502.01 374.7 486.13 384.72 480.56Z" fill="#EFD5BF"/>
<path d="M523.2 483.36C480.37 492.65 393.02 511.05 380.79 511.04C380.58 511.04 380.39 511.04 380.23 511.02C376.7 510.78 373.28 505.91 371.7 498.88C369.49 489 371.27 476.77 378.96 472.5C391.1 465.75 483.66 457.12 523.2 453.95V447.28C499.31 449.19 390.92 458.25 375.73 466.69C364.7 472.82 362.55 488.43 365.21 500.33C367.5 510.56 372.31 517.16 379 517.61C379.21 517.62 380.23 517.67 380.5 517.67C395 517.67 489.75 497.4 523.19 490.15V483.35L523.2 483.36Z" fill="#0A759B"/>
<g style="mix-blend-mode:multiply">
<path d="M380.01 475.15L517.78 456.32C517.78 456.32 406.37 468.5 380.01 475.15Z" fill="#E8D3C1"/>
</g>
<g style="mix-blend-mode:multiply">
<path d="M378.35 478.99L516.12 460.16C516.12 460.16 404.71 472.34 378.35 478.99Z" fill="#E8D3C1"/>
</g>
<g style="mix-blend-mode:multiply">
<path d="M374.81 483.31L515.01 463.62C515.01 463.62 401.17 476.66 374.81 483.31Z" fill="#E8D3C1"/>
</g>
<g style="mix-blend-mode:multiply">
<path d="M374.65 487.65L514.79 466.55C514.79 466.55 401.01 481 374.65 487.65Z" fill="#E8D3C1"/>
</g>
<g style="mix-blend-mode:multiply">
<path d="M374.65 491.56L514.79 469.58C514.79 469.58 401.01 484.92 374.65 491.56Z" fill="#E8D3C1"/>
</g>
<g style="mix-blend-mode:multiply">
<path d="M374.65 495.21L514.79 472.09C514.79 472.09 401.01 488.57 374.65 495.21Z" fill="#E8D3C1"/>
</g>
<g style="mix-blend-mode:multiply">
<path d="M375.72 497.82L515.01 474.92C515.01 474.92 402.08 491.17 375.72 497.82Z" fill="#E8D3C1"/>
</g>
<g style="mix-blend-mode:multiply">
<path d="M375.72 500.97L514.79 477.8C514.79 477.8 402.08 494.33 375.72 500.97Z" fill="#E8D3C1"/>
</g>
<g style="mix-blend-mode:multiply">
<path d="M377.7 504.63L515.34 479.74C515.34 479.74 404.05 497.99 377.7 504.63Z" fill="#E8D3C1"/>
</g>
<g style="mix-blend-mode:multiply">
<path d="M380.01 507.85L516.12 482.15C516.12 482.15 406.36 501.21 380.01 507.85Z" fill="#E8D3C1"/>
</g>
<path d="M227.34 455.65C227.34 455.65 319.87 469.27 339.14 472.1C358.41 474.92 363.06 474.09 362.4 482.15C361.74 490.21 359.08 490.18 331.67 486.37C304.26 482.56 232.5 468.61 227.35 467.78C222.2 466.95 224.49 455.23 227.35 455.65H227.34Z" fill="#3C9CC6"/>
<path d="M314.44 501.9C314.26 501.9 314.09 501.89 313.91 501.86C289.16 497.85 259.38 491.57 250.84 489.74C249.2 489.39 247.9 488.12 247.51 486.5C246.34 481.62 244.25 469.42 250.08 461.53C250.91 460.41 252.32 459.83 253.76 460L316.5 467.69C317.46 467.81 318.32 468.33 318.87 469.12C319.41 469.91 319.6 470.89 319.37 471.82C318.25 476.4 316.55 485.93 317.69 498.29C317.78 499.32 317.41 500.31 316.66 501.01C316.05 501.58 315.26 501.89 314.44 501.89V501.9ZM253.25 460.76C252.24 460.76 251.3 461.21 250.72 462C245.09 469.62 247.14 481.54 248.29 486.31C248.61 487.64 249.68 488.68 251.02 488.96C259.55 490.79 289.32 497.06 314.05 501.07C314.82 501.19 315.57 500.96 316.13 500.44C316.7 499.91 316.99 499.15 316.92 498.36C315.77 485.89 317.49 476.26 318.62 471.63C318.79 470.92 318.65 470.17 318.24 469.57C317.82 468.96 317.16 468.56 316.42 468.47L253.68 460.78C253.54 460.76 253.4 460.75 253.27 460.75L253.25 460.76Z" fill="#B6E2FF"/>
<path d="M338.97 500.97C343.007 500.97 346.28 496.403 346.28 490.77C346.28 485.137 343.007 480.57 338.97 480.57C334.933 480.57 331.66 485.137 331.66 490.77C331.66 496.403 334.933 500.97 338.97 500.97Z" fill="#003E60"/>
<path d="M333.49 491.1C333.49 485.47 336.76 480.9 340.79 480.9C340.21 480.69 339.6 480.57 338.97 480.57C334.93 480.57 331.66 485.14 331.66 490.77C331.66 496.4 334.93 500.97 338.97 500.97C335.82 499.84 333.48 495.86 333.48 491.1H333.49Z" fill="#0A759B"/>
<path d="M239.19 480.05C242.277 480.05 244.78 476.553 244.78 472.24C244.78 467.927 242.277 464.43 239.19 464.43C236.103 464.43 233.6 467.927 233.6 472.24C233.6 476.553 236.103 480.05 239.19 480.05Z" fill="#003E60"/>
<path d="M235 472.5C235 468.19 237.5 464.7 240.59 464.69C240.14 464.53 239.68 464.44 239.2 464.44C236.11 464.44 233.61 467.93 233.61 472.25C233.61 476.57 236.11 480.06 239.2 480.06C236.79 479.19 235 476.15 235 472.51V472.5Z" fill="#0A759B"/>
<g style="mix-blend-mode:multiply">
<path d="M381.37 490.11C381.37 490.11 382.56 507 382.44 517.57C385.52 517.34 395.01 515.95 395.01 515.95C395.01 515.95 392.51 490.41 381.37 490.11Z" fill="#EFD5BF"/>
</g>
<path d="M381.37 490.05C381.37 490.05 392.73 497.26 393.4 531.28C398.72 525.76 402.37 522.25 402.37 522.25L411.97 527.86C411.97 527.86 405.66 491.86 398.21 486.82C387.28 488.03 381.36 490.05 381.36 490.05H381.37Z" fill="#EE6D4A"/>
<path d="M361.94 463.63C361.94 463.63 481.25 449.17 490.04 445.98C498.84 442.79 501.51 416.63 491.57 413.96C481.63 411.29 369.2 405.43 369.2 405.43L238.32 409.91L361.93 463.63H361.94Z" fill="#E0512F"/>
<path d="M490.05 445.98C481.25 449.17 361.95 463.63 361.95 463.63L303.92 429.42L362.22 418.04L495.28 416.67C500.57 424.09 497.51 443.28 490.06 445.99L490.05 445.98Z" fill="#EE6D4A"/>
<path d="M241.49 412.87C265.77 413.46 352.42 415.94 364.24 421.82C378.01 428.66 373.42 459.14 361.95 460.58C352.66 461.74 271.86 449.27 241.49 444.49V412.87Z" fill="#EEE6DE"/>
<path d="M357.87 431.66C346.93 426.22 271.81 423.68 241.48 422.87V412.87C265.76 413.46 352.41 415.94 364.23 421.82C376.73 428.03 374.1 453.73 364.92 459.48C367.92 449.59 366.52 435.96 357.87 431.66Z" fill="#EFD5BF"/>
<path d="M238.33 441.06C275.3 446.92 350.7 458.39 361.26 457.77C361.44 457.76 361.6 457.75 361.75 457.73C364.79 457.35 367.75 452.97 369.11 446.82C371.02 438.18 369.48 427.71 362.84 424.41C352.36 419.2 272.46 416.41 238.33 415.67V409.92C258.95 410.36 352.51 412.71 365.63 419.23C375.15 423.96 377.01 437.33 374.71 447.74C372.73 456.69 367.91 462.7 362.14 463.42C361.96 463.44 361.75 463.46 361.52 463.48C349 464.21 267.21 451.5 238.34 446.92V441.05L238.33 441.06Z" fill="#F48369"/>
<g opacity="0.58">
<g style="mix-blend-mode:multiply">
<path d="M361.94 426.74L243.01 417.44C243.01 417.44 339.18 422.33 361.94 426.74Z" fill="#E8D3C1"/>
</g>
<g style="mix-blend-mode:multiply">
<path d="M363.37 429.97L244.44 420.67C244.44 420.67 340.61 425.56 363.37 429.97Z" fill="#E8D3C1"/>
</g>
<g style="mix-blend-mode:multiply">
<path d="M366.43 433.52L245.41 423.6C245.41 423.6 343.68 429.11 366.43 433.52Z" fill="#E8D3C1"/>
</g>
<g style="mix-blend-mode:multiply">
<path d="M366.57 437.27L245.6 426.13C245.6 426.13 343.82 432.87 366.57 437.27Z" fill="#E8D3C1"/>
</g>
<g style="mix-blend-mode:multiply">
<path d="M366.57 440.64L245.6 428.74C245.6 428.74 343.82 436.24 366.57 440.64Z" fill="#E8D3C1"/>
</g>
<g style="mix-blend-mode:multiply">
<path d="M366.57 443.79L245.6 430.9C245.6 430.9 343.82 439.38 366.57 443.79Z" fill="#E8D3C1"/>
</g>
<g style="mix-blend-mode:multiply">
<path d="M365.65 446.09L245.41 433.35C245.41 433.35 342.9 441.68 365.65 446.09Z" fill="#E8D3C1"/>
</g>
<g style="mix-blend-mode:multiply">
<path d="M365.65 448.82L245.6 435.83C245.6 435.83 342.9 444.41 365.65 448.82Z" fill="#E8D3C1"/>
</g>
<g style="mix-blend-mode:multiply">
<path d="M363.94 452.07L245.12 437.53C245.12 437.53 341.18 447.67 363.94 452.07Z" fill="#E8D3C1"/>
</g>
<g style="mix-blend-mode:multiply">
<path d="M361.94 454.97L244.44 439.65C244.44 439.65 339.18 450.56 361.94 454.97Z" fill="#E8D3C1"/>
</g>
</g>
<path d="M493.86 419.4C493.86 419.4 418.95 425.23 399.33 427.18C382.43 428.86 377.65 427.7 378.23 434.62C378.8 441.54 388.47 440.08 412.45 437.52C439.08 434.67 489.28 429.86 493.73 428.89C498.18 427.91 496.33 418.89 493.86 419.4Z" fill="#F48369"/>
<path d="M482.2 447.6C482.03 447.59 481.87 447.46 481.82 447.29C481.76 447.08 481.88 446.87 482.09 446.82C483.37 446.54 487.48 443.9 488.12 441.06C488.78 438.11 489.62 431.36 490.03 425.69C490.41 420.33 486.74 418.17 486.58 418.08C486.39 417.97 486.31 417.73 486.4 417.54C486.5 417.35 486.73 417.28 486.93 417.4C486.97 417.42 491.23 419.89 490.81 425.8C490.4 431.5 489.56 438.3 488.89 441.28C488.2 444.37 483.87 447.26 482.31 447.6C482.27 447.6 482.24 447.61 482.2 447.6Z" fill="#F9A0A0"/>
<path d="M477.06 448.14C476.89 448.13 476.73 448 476.68 447.83C476.62 447.62 476.74 447.41 476.95 447.36C478.23 447.08 482.34 444.44 482.98 441.6C483.64 438.65 484.48 431.9 484.89 426.23C485.27 420.87 481.6 418.71 481.44 418.62C481.25 418.51 481.17 418.27 481.26 418.08C481.36 417.89 481.59 417.82 481.79 417.94C481.83 417.96 486.09 420.43 485.67 426.34C485.26 432.04 484.42 438.84 483.75 441.82C483.06 444.91 478.73 447.8 477.17 448.14C477.13 448.14 477.1 448.15 477.06 448.14Z" fill="#F9A0A0"/>
<path d="M394.79 434.68C395.25 444.27 393.87 451.23 389.86 460.18C393.06 459.78 396.43 459.35 399.94 458.91C400.32 457.99 403.96 448.9 404.08 436.17C404.14 430 402.38 425.77 400.46 422.98L391.11 423.6C392.84 426.29 394.56 430.06 394.78 434.68H394.79Z" fill="#CC3A1D"/>
<path d="M409.5 433.72C409.95 442.97 408.65 449.79 404.97 458.28C408.25 457.86 411.61 457.43 415.02 457C416.05 454.21 418.69 446.02 418.79 435.21C418.85 429.03 417.09 424.8 415.17 422.01L405.82 422.63C407.55 425.32 409.28 429.1 409.5 433.72Z" fill="#CC3A1D"/>
<g style="mix-blend-mode:multiply">
<path d="M357.23 435.83C357.23 435.83 356.13 453.49 356.23 463.35C353.36 463.13 344.21 462.26 344.21 462.26C344.21 462.26 346.84 436.1 357.23 435.83Z" fill="#EFD5BF"/>
</g>
<path d="M357.23 435.83C357.23 435.83 346.64 443.76 346.02 475.47C341.06 470.32 337.66 467.05 337.66 467.05L328.71 472.28C328.71 472.28 334.6 438.73 341.53 434.02C351.72 435.14 357.23 435.83 357.23 435.83Z" fill="#FFBC00"/>
<path d="M278.14 358.07V403.51C278.14 403.51 330.77 409.76 342.19 406.56C353.61 403.36 348.27 387.81 348.27 380.49C348.27 373.17 348.12 355.33 346.29 351.06C344.46 346.79 335.77 348.62 325.1 349.54C314.43 350.45 278.14 358.08 278.14 358.08V358.07Z" fill="#EEE6DE"/>
<path d="M348.28 380.48C348.28 373.16 348.13 355.32 346.3 351.05C344.47 346.78 335.78 348.61 325.11 349.53C314.44 350.44 278.15 358.07 278.15 358.07V365.68C287.92 363.67 313.27 359.76 321.76 359.03C332.43 358.12 339.96 356.99 341.79 361.26C343.62 365.53 344.22 381.61 344.22 388.93C344.22 392.96 345.83 399.48 345.38 405.07C352.5 400.02 348.28 387 348.28 380.48Z" fill="#EFD5BF"/>
<g opacity="0.58">
<g style="mix-blend-mode:multiply">
<path d="M348.01 351.76L278.66 361.77C278.66 361.77 334.32 351.61 348.01 351.76Z" fill="#E8D3C1"/>
</g>
<g style="mix-blend-mode:multiply">
<path d="M349.81 377.91L279.85 380.59C279.85 380.59 336.2 376.42 349.81 377.91Z" fill="#E8D3C1"/>
</g>
<g style="mix-blend-mode:multiply">
<path d="M349.81 375.01L279.88 379.51C279.88 379.51 336.16 373.78 349.81 375.01Z" fill="#E8D3C1"/>
</g>
<g style="mix-blend-mode:multiply">
<path d="M349.81 373.25L279.88 377.75C279.88 377.75 336.16 372.02 349.81 373.25Z" fill="#E8D3C1"/>
</g>
<g style="mix-blend-mode:multiply">
<path d="M349.79 370.94L279.91 376.15C279.91 376.15 336.13 369.85 349.79 370.94Z" fill="#E8D3C1"/>
</g>
<g style="mix-blend-mode:multiply">
<path d="M349.73 367.87L279.98 374.57C279.98 374.57 336.06 367.07 349.73 367.87Z" fill="#E8D3C1"/>
</g>
<g style="mix-blend-mode:multiply">
<path d="M349.73 365.66L279.98 372.34C279.98 372.34 336.06 364.85 349.73 365.66Z" fill="#E8D3C1"/>
</g>
<g style="mix-blend-mode:multiply">
<path d="M349.69 362.95L280.01 370.33C280.01 370.33 336.01 362.28 349.69 362.95Z" fill="#E8D3C1"/>
</g>
<g style="mix-blend-mode:multiply">
<path d="M349.69 360.43L280.01 367.81C280.01 367.81 336.01 359.76 349.69 360.43Z" fill="#E8D3C1"/>
</g>
<g style="mix-blend-mode:multiply">
<path d="M349.65 357.84L280.05 365.98C280.05 365.98 335.96 357.32 349.65 357.84Z" fill="#E8D3C1"/>
</g>
<g style="mix-blend-mode:multiply">
<path d="M349.95 354.97L280.35 363.11C280.35 363.11 336.26 354.45 349.95 354.97Z" fill="#E8D3C1"/>
</g>
<g style="mix-blend-mode:multiply">
<path d="M347.78 401.9L278.93 398.22C278.93 398.22 334.18 403.31 347.78 401.9Z" fill="#E8D3C1"/>
</g>
<g style="mix-blend-mode:multiply">
<path d="M349.54 380.08L280.13 382C280.13 382 335.86 382.06 349.54 380.08Z" fill="#E8D3C1"/>
</g>
<g style="mix-blend-mode:multiply">
<path d="M349.52 382.41L280.16 383.62C280.16 383.62 335.97 384.77 349.52 382.41Z" fill="#E8D3C1"/>
</g>
<g style="mix-blend-mode:multiply">
<path d="M349.46 385.51L280.22 385.21C280.22 385.21 335.89 387.58 349.46 385.51Z" fill="#E8D3C1"/>
</g>
<g style="mix-blend-mode:multiply">
<path d="M349.46 387.73L280.22 387.44C280.22 387.44 335.89 389.8 349.46 387.73Z" fill="#E8D3C1"/>
</g>
<g style="mix-blend-mode:multiply">
<path d="M349.43 390.47L280.26 389.47C280.26 389.47 335.85 392.4 349.43 390.47Z" fill="#E8D3C1"/>
</g>
<g style="mix-blend-mode:multiply">
<path d="M349.43 393.01L280.26 392.01C280.26 392.01 335.85 394.94 349.43 393.01Z" fill="#E8D3C1"/>
</g>
<g style="mix-blend-mode:multiply">
<path d="M349.4 395.62L280.31 393.85C280.31 393.85 335.81 397.41 349.4 395.62Z" fill="#E8D3C1"/>
</g>
<g style="mix-blend-mode:multiply">
<path d="M349.7 398.48L280.61 396.71C280.61 396.71 336.11 400.27 349.7 398.48Z" fill="#E8D3C1"/>
</g>
<g style="mix-blend-mode:multiply">
<path d="M348.33 404.05L278.33 400.81C278.33 400.81 334.71 405.52 348.33 404.05Z" fill="#E8D3C1"/>
</g>
</g>
<path d="M341.14 344.54C341.14 344.54 455.87 361.77 465.22 364.98C474.57 368.19 473.34 392.24 471.73 400.92C470.12 409.6 463.8 411.9 457.09 411.9C450.38 411.9 338.32 410.47 338.32 410.47C338.32 410.47 347.1 408.33 348.81 396.09C350.52 383.85 347.78 359.27 347.24 355.09C346.7 350.91 341.15 344.54 341.15 344.54H341.14Z" fill="#FFBC00"/>
<path d="M390.23 359.68C390.73 363.56 393.28 386.41 391.69 397.79C390.33 407.57 384.12 410.41 382.39 411.02C385.54 411.06 388.75 411.1 391.99 411.14C394.52 409.72 398.54 406.33 399.61 398.69C401.2 387.31 398.65 364.46 398.15 360.58C397.83 358.08 395.57 354.73 394.01 352.67C391.24 352.23 388.49 351.81 385.79 351.38C387.35 353.39 389.89 357.02 390.23 359.68Z" fill="#FFD773"/>
<path d="M403.98 361.6C404.48 365.39 407.03 387.65 405.44 398.74C404.28 406.85 399.61 410.06 397.18 411.2C400.29 411.24 403.4 411.28 406.48 411.31C408.99 409.72 412.4 406.36 413.36 399.6C414.95 388.51 412.4 366.25 411.9 362.46C411.58 360.05 409.38 356.85 407.82 354.83C405.07 354.39 402.31 353.95 399.55 353.52C401.11 355.49 403.63 359 403.97 361.59L403.98 361.6Z" fill="#FFD773"/>
<path d="M351.8 377.62C351.71 375.76 351.62 373.96 351.57 372.28C351.53 371.17 351.51 370.03 351.48 368.9C351.27 360.1 351.05 350.99 345.99 346.71C343.7 344.77 340.74 344.05 337.19 344.56C326.97 346.03 283.8 353.61 274.49 355.25V361.44C280.57 360.37 327.6 352.1 338.06 350.59C340.43 350.25 341.47 350.87 342.06 351.36C345.03 353.87 345.22 361.93 345.39 369.04C345.42 370.19 345.44 371.35 345.48 372.48C345.54 374.19 345.69 377.17 345.71 377.91C345.76 379.48 346.53 401.53 342.86 403.82C338.79 405.67 305.08 403.93 274.48 401.16V407.28C286.38 408.35 313.78 410.64 331.13 410.64C338.26 410.64 343.7 410.25 345.66 409.24C353.13 405.36 352.46 391.26 351.8 377.62Z" fill="#F7A500"/>
<g style="mix-blend-mode:multiply">
<path d="M342.08 385.49C342.08 385.49 340.99 400.54 341.1 410.25C335.4 410.64 329.27 410.64 329.27 410.64C329.27 410.64 331.86 385.76 342.09 385.49H342.08Z" fill="#EFD5BF"/>
</g>
<path d="M342.08 385.48C342.08 385.48 330.98 394.61 330.38 425.96C325.51 421.62 322.16 418.91 322.16 418.91L313.36 425.41C313.36 425.41 319.56 391.09 326.39 385.41C336.41 384.99 342.09 385.48 342.09 385.48H342.08Z" fill="#3989B4"/>
<g style="mix-blend-mode:overlay" opacity="0.37">
<path d="M352.96 349.68C352.96 349.68 456.94 366 460.7 366.68C464.45 367.35 465.11 371.1 465.89 373.94C466.67 376.78 463.64 375.61 457.37 375.02C451.1 374.43 364.29 363.4 359.59 362.74C354.89 362.08 354.2 360.36 353.42 357.79C352.64 355.22 351.51 351.4 351.66 350.62C351.81 349.84 352.17 349.55 352.97 349.68H352.96Z" fill="white"/>
</g>
<path d="M359.64 410.45C359.47 410.45 359.3 410.37 359.2 410.21C359.04 409.97 359.1 409.63 359.35 409.47C360.26 408.86 363.78 403 364.05 396.68C364.31 390.53 364.31 376.57 364.05 364.91C363.79 353.57 360.1 349.43 360.06 349.39C359.86 349.17 359.87 348.84 360.09 348.64C360.3 348.44 360.64 348.45 360.84 348.67C361 348.85 364.85 353.09 365.12 364.89C365.39 376.57 365.39 390.56 365.12 396.73C364.85 403.03 361.31 409.45 359.95 410.36C359.86 410.42 359.76 410.45 359.65 410.45H359.64Z" fill="#CC8200"/>
<path d="M365.56 411.05C365.39 411.05 365.22 410.97 365.12 410.81C364.96 410.57 365.02 410.23 365.27 410.07C366.18 409.46 369.7 403.6 369.97 397.28C370.23 391.13 370.23 377.17 369.97 365.51C369.71 354.17 366.02 350.03 365.98 349.99C365.78 349.77 365.79 349.44 366.01 349.24C366.22 349.04 366.56 349.05 366.76 349.27C366.92 349.44 370.77 353.69 371.04 365.49C371.31 377.17 371.31 391.16 371.04 397.33C370.77 403.63 367.23 410.05 365.87 410.96C365.78 411.02 365.68 411.05 365.57 411.05H365.56Z" fill="#CC8200"/>
<path d="M404.38 281.21C404.38 281.21 415.6 290.76 416.17 322.04C421.11 317.92 424.5 315.35 424.5 315.35L433.4 322.19C433.4 322.19 427.17 287.72 420.27 281.78C410.13 280.96 404.37 281.21 404.37 281.21H404.38Z" fill="#FFBC00"/>
<path d="M375.4 435.15C375.4 435.15 403.95 453.78 419.84 503.51C416.34 511.6 421.4 522.01 432.52 517.74C440.22 515.82 482.94 504.47 512.59 542.97C556.5 525.29 606.6 508.66 606.6 508.66C606.6 508.66 608.45 503.53 608.14 503.3C606.78 502.33 600.87 505.88 597.89 504.53C580.83 496.83 542.64 481.48 519.27 486.62C510.15 488.56 505.3 487.16 505.3 482.15C505.3 477.14 489.8 434.92 477.93 424.03C448.54 424.32 402.1 433.32 383.83 433.6C383.18 433.6 378.9 429.41 377.71 429.61C376.93 429.74 375.41 435.16 375.41 435.16L375.4 435.15Z" fill="#87510A"/>
<path d="M377.7 429.6C377.7 429.6 408.83 451.85 424.72 501.58C421.22 509.67 424.67 516.92 435.79 512.65C443.49 510.73 485.75 502.69 514.8 537.99C558.71 520.31 608.15 503.3 608.15 503.3C608.15 503.3 554.24 475.29 523.44 482.07C514.32 484.01 509.47 482.61 509.47 477.6C509.47 472.59 493.97 430.37 482.1 419.48C445.31 419.85 377.72 429.61 377.72 429.61L377.7 429.6Z" fill="#6D3E06"/>
<path d="M483.07 411.9L393.11 417.88C389.65 428.83 429.25 482.1 429.25 482.1C429.25 482.1 431.32 489.27 436.74 500.13L514.74 477.56C506.4 442.37 483.09 411.9 483.09 411.9H483.07Z" fill="#EADBCE"/>
<path d="M514.79 477.8C514.77 477.72 514.75 477.64 514.73 477.56L436.73 500.13C436.87 500.41 437 500.68 437.15 500.97C479.29 493.1 517.78 521.98 517.78 521.98C517.78 521.98 537.13 515.76 610.73 487.65C591.88 478.39 530.72 473.97 514.79 477.79V477.8Z" fill="#E5D1C3"/>
<path d="M519.59 515.57H519.55C519.55 515.57 486.86 488.75 438.98 499.31C433.38 475.31 408.3 424.79 393.11 417.88C388.31 421.7 382.39 425.96 382.39 425.96C382.39 425.96 416.75 457.91 426.89 500.97C434.53 500.65 438.27 509.04 438.27 509.04C438.27 509.04 464.18 503.57 484.32 509.84C504.46 516.11 517.12 533.18 517.12 533.18L517.38 533.09L609.66 499.85L610.73 487.66L519.59 515.58V515.57Z" fill="#D6B8A1"/>
<path d="M519.55 515.58C519.55 515.58 486.86 488.75 438.98 499.31C433.38 475.31 408.3 424.79 393.11 417.88C388.31 421.7 382.39 425.96 382.39 425.96C382.39 425.96 416.75 457.91 426.89 500.97C434.53 500.65 438.27 509.04 438.27 509.04C438.27 509.04 464.18 503.57 484.32 509.84C504.46 516.11 517.12 533.18 517.12 533.18L517.38 533.09L519.59 515.57H519.55V515.58Z" fill="#DBC2AD"/>
<path d="M438.98 500.13C438.98 500.13 473.52 485.64 519.59 507.85C568.59 494.25 607 482.1 607 482.1C607 482.1 555.13 468.02 514.79 477.8C474.45 487.58 442.98 497.47 438.98 500.14V500.13Z" fill="#EADBCE"/>
<path d="M438.98 499.31C438.98 499.31 441.83 451.61 406.48 411.32C429.38 408.64 494.98 407.47 494.98 407.47C494.98 407.47 516.45 446.15 514.78 477.8C479.26 486.82 438.97 499.32 438.97 499.32L438.98 499.31Z" fill="#EEE6DE"/>
<path d="M521.38 476.42C521.38 476.42 459.75 492.91 446.52 497.93C433.29 502.95 434.18 534.42 434.18 534.42L428.49 526.24L423.16 531.27C423.16 531.27 425.45 505.14 438.17 496.14C450.89 487.13 509.55 476.38 521.38 476.42Z" fill="#FFBC00"/>
<g style="mix-blend-mode:multiply">
<path d="M503.65 469.04C494.95 469.04 486.81 469.72 479.88 470.91C480.37 464.61 479.65 457.2 477.57 449.53C472.36 430.35 460.58 416.85 451.25 419.38C441.92 421.91 438.59 439.52 443.8 458.7C447.41 471.98 454.16 482.52 461.07 486.92C467.93 491.65 484.41 494.99 503.66 494.99C529.07 494.99 549.66 489.18 549.66 482.01C549.66 474.84 529.06 469.03 503.66 469.03L503.65 469.04Z" fill="#EEE6DE"/>
</g>
<path d="M549.22 404.5C566.56 428.26 561.36 461.57 537.6 478.91C513.84 496.25 480.53 491.05 463.19 467.29C445.85 443.53 451.05 410.22 474.81 392.88C498.57 375.54 531.88 380.74 549.22 404.5Z" fill="#003E60"/>
<g style="mix-blend-mode:multiply">
<path d="M512.49 466.89C512.46 466.81 512.41 466.72 512.35 466.62C512.33 466.62 512.32 466.61 512.3 466.6L512.49 466.89Z" fill="#C4C4C3"/>
</g>
<path d="M462.96 407.67C463.39 407.29 463.83 407.22 464.28 406.88C465.29 406.1 465.72 405.08 466.49 404.08C466.93 403.5 468.27 401.65 469.13 402.2C469.1 402.47 468.68 403.22 468.93 403.48C469.24 403.81 469.81 403.26 470.07 403.22C470.1 403.77 469.95 404.52 470.15 405.03C471 405.14 471 404.17 471.09 403.59C471.19 402.91 471.31 402.37 471.67 401.76C471.97 401.25 472.24 400.94 472.39 400.37C472.56 399.77 472.53 399.19 472.83 398.66C473.43 397.62 474.24 396.85 474.99 395.95C475.38 395.47 475.92 395.13 476.33 394.69C476.79 394.19 477.14 393.62 477.58 393.11C478.22 392.38 479.47 390.81 480.6 390.98C480.19 391.67 479.15 392.08 478.79 392.8C478.54 393.29 478.77 393.37 478.28 393.74C477.9 394.03 477.25 394.2 477.34 394.8C477.62 394.79 477.9 394.74 478.04 394.99C478.59 394.95 479.02 394.17 479.42 394.62C479.92 395.18 478.94 395.63 479.04 396.07C479.17 396.67 480.04 395.57 480.16 395.31C480.4 394.81 480.4 394.19 480.74 393.73C481.15 393.18 481.86 392.78 482.34 392.29C482.77 391.85 483.13 391.6 483.71 391.33C484.33 391.04 485.01 390.79 485.59 390.43C485.97 390.2 486.38 389.7 486.85 389.76C486.86 389.77 486.91 389.87 486.92 389.88C487.2 389.65 487.59 389.44 487.87 389.24C488.13 389.05 488.47 388.69 488.7 388.55C489.48 388.07 490.63 387.68 491.53 387.29C492.07 387.05 492.35 386.52 492.87 386.45C493.1 386.42 493.19 386.55 493.5 386.42C493.76 386.31 493.94 386.04 494.13 385.91C494.53 385.65 497.12 385.28 496.78 384.68C496.48 384.16 493.68 384.67 493.15 384.7C492.22 384.75 491.28 384.86 490.35 385.02C484.92 386.71 479.66 389.32 474.81 392.86C472.5 394.54 470.38 396.38 468.42 398.34C466.54 400.35 464.8 402.46 463.15 404.69C462.7 405.3 462.23 405.88 461.79 406.47C461.26 407.27 460.76 408.08 460.28 408.9C460.06 409.38 459.89 409.89 459.79 410.44C460.46 409.84 461.2 409.3 461.89 408.73C462.27 408.41 462.58 407.98 462.96 407.65V407.67Z" fill="#3989B4"/>
<path d="M491.92 395.05C491.28 394.85 491.11 395.43 490.62 395.59C490.62 395.48 490.6 395.35 490.59 395.24C490.26 395.24 489.98 395.26 489.67 395.3C489.65 395.21 489.65 394.82 489.67 394.67C489.71 394.63 489.86 394.58 489.92 394.54C489.94 394.44 489.82 394.39 489.85 394.29C490.14 394.06 490.07 393.96 490.1 393.63C490.05 393.58 489.96 393.48 489.91 393.44C489.67 393.52 489.09 393.75 489 393.8C488.8 393.92 488.38 393.69 488.4 394.22C487.99 394.31 487.14 394.55 487.09 394.65C486.63 395.44 487.8 395.11 487.45 395.77C487.02 395.45 486.58 395.54 486.14 395.64C485.84 395.78 485.53 395.86 485.21 395.9C485.42 396.63 485.25 396.54 484.94 397.04C484.86 397.17 484.59 397.15 484.46 397.32C484.33 397.5 484.55 397.86 484.42 398.04C483.97 398.65 482.23 398.75 482.85 399.84C483.38 399.36 483.97 400.08 484.44 399.46C484.78 399.65 485.93 398.67 486.17 398.36C486.47 397.97 486.41 397.63 486.81 397.39C486.93 397.32 487.53 397.4 487.74 397.32C487.57 398.06 486.3 398.61 486.21 399.28C486.11 400.09 486.69 399.66 487 399.48C487.16 399.38 487.25 398.33 487.68 399.18C488.24 398.98 489.1 398.56 489.27 397.97C489.46 398.24 489.75 398.38 490.11 398.33C490.24 397.8 490.89 397.73 490.8 397.03C490.88 397.08 491.06 397.12 491.17 397.22C491.44 396.92 491.31 396.53 491.09 396.28C491.71 396.15 491.84 395.55 491.91 395.05H491.92Z" fill="#3989B4"/>
<path d="M512.17 466.45C512.14 466.37 512.09 466.28 512.03 466.18C512.01 466.18 512 466.17 511.98 466.16L512.17 466.44V466.45Z" fill="url(#paint0_radial_25_2276)"/>
<path d="M556.31 417.85C554.63 413.2 552.28 408.7 549.21 404.5C538.68 390.08 522.27 382.5 505.69 382.64C505.26 382.86 504.9 383.14 504.71 383.48C504.42 384.01 504.45 383.81 504.73 384.21C505.01 384.61 506.34 384.55 506.56 384.84C507.36 385.9 505.43 385.51 505.72 386.3C505.39 386.44 504.07 386.11 504.94 387.01C504.87 387.05 504.76 387.05 504.71 387.09C504.83 388.03 505.57 387.72 506.31 387.83C507.21 387.96 507.69 388.56 506.77 389.16C507.1 389.61 507.24 390.38 506.51 390.47C506.21 389.61 505.96 390.58 505.67 390.51C505.33 390.43 505.03 390.19 505.42 389.72C504.97 389.77 504.45 389.7 504.12 389.53C504.22 389.48 504.41 389.31 504.51 389.27C504.21 389.24 503.57 389.47 503.36 389.27C502.98 388.92 503.44 388.67 503.75 388.6C503.33 388.48 502.93 388.52 502.61 388.29C502.9 388.01 503.33 387.89 503.58 387.53C503.26 387.14 502.34 387.26 501.89 387.23C501.31 387.19 500.65 386.88 500.07 386.97C498.68 387.17 497.54 387.52 496.76 388.58C495.92 389.72 494.71 389.7 493.54 390.49C492.77 391.02 491.44 392.22 491.57 393.2C491.63 393.3 491.73 393.15 491.75 393.15C491.47 394.28 493.2 393.62 492.7 392.66C492.9 392.75 493.04 392.67 493.26 392.84C493.48 392.57 494.37 390.92 494.6 392.25C495.11 392.21 495.15 391.72 495.71 391.81C495.73 392.55 495.52 393.44 495.64 394.15C496.47 394.37 497.69 393.31 497.34 392.49C498.34 392.26 497.5 391.29 497.78 390.65C497.87 390.45 498.36 389.9 498.46 389.82C498.76 389.58 498.81 389.25 499.39 389.36C499.48 389.99 498.84 390.29 498.95 390.94C500.01 391.04 499.89 391.67 501.02 391.17C501.69 390.87 502.39 390.5 502.35 391.7C502.98 391.93 503.72 391.61 504.33 391.81C504.58 391.89 504.64 392.19 504.82 392.27C504.94 392.33 505.59 392.45 505.63 392.49C507.02 394.12 503.74 393.3 503.59 393.41C503.25 392.73 501.93 393.26 501.67 393.78C501.3 394.53 502.27 394.84 501.08 394.87C500.73 394.87 500.62 394.64 500.14 394.82C499.82 394.94 499.66 395.27 499.31 395.41C499.03 395.53 498.49 395.52 498.18 395.6C497.93 395.67 497.24 396.06 497.05 396.05C496.43 396.04 495.96 395.37 495.16 395.6C494.57 395.76 494.65 396.02 494.21 396.33C493.84 396.6 493.42 396.45 493.1 396.65C492.34 397.13 492.71 398.04 492.25 398.64C492.06 398.9 491.67 398.89 491.44 399.16C491.23 399.41 491.24 399.83 490.97 400.12C490.54 400.07 490.23 400.13 489.87 399.96C489.39 400.63 488.1 399.75 487.69 400.78C487.8 400.78 487.93 400.8 488.05 400.82C487.91 400.96 487.88 401.23 487.79 401.35C489.43 401.29 488.58 403.16 487.68 403.65C487.36 403.31 486.61 403.9 486.17 404.01C485.99 404.05 485.94 404.3 485.79 404.31C485.6 404.33 485.55 404.09 485.41 404.11C484.95 404.17 484.63 404.31 484.31 404C483.93 404.33 483.72 404.79 483.52 405.25C483.26 405.85 483.22 406.2 483.12 406.93C482.99 407.88 481.42 409.93 483.5 409.58C483.89 409.51 484.54 409.01 484.93 408.83C485.12 408.74 485.15 408.46 485.31 408.39C485.48 408.31 485.72 408.45 485.88 408.39C486.21 408.24 486.55 408.18 486.83 407.91C487.21 407.55 487.47 407.14 487.84 406.75C488.1 406.48 488.66 405.78 488.73 405.37C490.73 405.46 489.17 403.97 490.44 403.48C491.09 403.23 491.44 403.85 492.1 403.44C492.4 403.25 492.32 402.86 492.57 402.68C492.83 402.49 493.06 402.61 493.33 402.5C493.98 402.22 494 402.01 494.77 402.24C494.97 402.3 495.12 402.53 495.34 402.62C495.58 402.72 495.85 402.61 496.12 402.69C496.68 402.87 498.57 404.36 498.73 402.82C497.95 402.78 496.36 402.51 496.68 401.4C498.51 400.63 499.54 402 500.83 402.8C501.31 403.1 502.07 403.56 502.37 404.2C502.7 404.93 502.33 405.89 503.56 405.63C503.6 405.47 503.72 405.15 503.73 405C503.73 404.95 503.62 404.86 503.59 404.82C504.38 404.46 503.63 404.29 503.59 403.95C503.56 403.75 503.27 403.86 503.37 403.45C503.41 403.28 503.97 403.31 504.04 403.08C504.21 402.51 503.26 402.5 504.15 402.13C504.65 401.92 505.28 402.08 505.02 402.69C505.34 402.84 505.46 403.1 505.4 403.46C505.51 403.46 505.64 403.48 505.75 403.49C505.9 404.1 505.52 405.18 506.22 405.48C506.2 405.61 506.24 405.79 506.25 405.92C507.08 406.04 507.57 405.6 508.32 405.36C508.8 405.21 509.78 404.78 510.31 404.89C510.72 404.97 510.62 405.38 511.07 405.35C511.36 405.33 511.66 404.79 511.89 404.68C513.07 404.11 512.51 404.93 512.92 405.66C512.78 405.62 512.67 405.63 512.53 405.57C512.81 405.81 513.17 406 513.42 406.2C512.91 406.28 512.5 406.11 512 406.12C512.35 406.21 513.3 406.47 513.26 407.15C513.45 407.15 513.64 407.17 513.82 407.15C513.82 407.24 513.81 407.33 513.8 407.42C513.71 407.53 513.7 407.56 513.61 407.71C513.47 407.71 513.31 407.74 513.16 407.74C513.16 408.16 512.88 408.31 512.5 408.28C512.45 408.2 512.41 408.11 512.37 408.03C511.93 408.34 509.85 409.25 509.73 408.5C509.42 408.48 509.3 408.34 509.01 408.47C508.85 408.11 508.53 407.91 508.13 407.93C507.86 408.29 508.07 408.71 507.88 408.99C507.64 409.34 507.21 409.36 507.01 409.79C507.25 410.05 507.21 410.36 506.97 410.65C506.25 410.61 506.48 409.92 506.03 409.64C505.84 409.52 505.6 409.7 505.39 409.62C505.16 409.53 504.7 409.25 504.47 409.22C502.61 408.96 504.4 411.16 503.05 411.31C502.86 411.16 499.55 412.81 499.89 411.53C498.89 411.41 499.8 410.95 499.55 410.56C499.24 410.08 498.64 410.35 498.2 410.38C497.66 410.41 495.27 410.5 496.11 409.17C496 409.14 495.88 409.07 495.76 409.04C495.93 408.28 495.57 408.04 495.26 407.46C494.74 407.22 494.51 407.67 494.04 407.82C493.62 407.96 492.87 407.94 492.51 407.94C491.87 407.94 490.25 407.83 489.87 408.66C488.71 408.77 488.22 409.34 487.33 410C486.69 410.48 486.79 410.52 486.08 410.31C485.64 410.18 485.03 409.53 484.76 410.27C484.21 410.16 484.06 410.47 483.74 410.76C483.55 410.93 482.93 411.45 482.82 411.64C482.42 412.28 482.38 413.65 481.58 414C481.64 414.52 480.98 415.04 480.71 415.4C480.22 416.05 479.99 416.18 479.22 416.55C479.27 417.05 478.45 417.79 478.08 418.12C478.2 418.15 478.31 418.23 478.44 418.26C478.31 418.99 477.21 419.65 476.95 420.4C477.11 420.37 477.33 420.45 477.49 420.43C477.43 420.98 477.86 421.41 477.58 421.91C476.88 421.86 476.7 422.58 476.1 422.7C476.21 423.01 476.03 422.99 476.36 423.18C476.15 423.56 475.81 424.38 475.89 424.87C476.03 425.66 476.42 425.62 476.11 426.48C475.71 427.6 474.81 428.34 474.78 429.49C474.89 429.49 475.02 429.52 475.13 429.52C475.35 429.76 475.48 430.09 475.44 430.43C475.57 430.41 475.75 430.48 475.88 430.46C476.06 430.82 476.03 431.24 475.81 431.56C475.88 431.83 476.07 432.08 476.27 432.23C476.31 432.13 476.42 431.98 476.48 431.88C477.43 431.74 477.73 433.24 478.19 433.85C478.53 434.29 478.66 434.53 478.93 434.99C479.15 435.36 479.22 435.91 479.4 436.22C479.67 436.67 480.09 436.7 480.43 437.06C480.89 437.56 480.66 437.97 481.49 438.1C482.25 438.22 483.71 437.84 483.68 436.89C484.24 436.74 484.39 437.24 484.81 437.25C485.25 437.26 485.4 437.07 485.85 437.06C486.5 437.06 487.35 437.79 487.56 436.51C488.14 436.51 488.39 436 488.78 435.67C489.23 435.3 489.9 435.28 490.27 434.96C490.91 434.42 491.03 432.35 491.98 433.58C492.02 433.67 491.98 433.74 492.01 433.83C492.99 433.71 493.38 435.04 493.68 435.66C493.79 435.9 493.91 436.93 493.98 436.97C494.48 437.29 495.12 436.72 495.14 436.22C495.55 436.11 495.69 436.47 496.05 436.38C496.35 436.3 496.51 435.93 496.92 435.83C497.21 435.76 497.74 435.8 497.98 435.9C498.59 436.17 498.2 436.12 498.52 436.58C498.87 437.08 499.31 437.63 499.38 438.38C499.46 439.23 498.85 439.93 498.81 440.75C498.77 441.54 499.17 441.88 499.69 442.33C500.2 442.76 500.42 443.16 500.99 443.61C501.64 444.13 504.8 444.44 503.56 445.55C504.87 445.6 503.86 446.41 504.18 447.02C504.21 447.07 504.23 447.11 504.26 447.15C503.92 447.76 503.88 448.57 504.85 448.71C504.8 449.1 504.87 449.38 504.87 449.74C504.87 449.89 504.55 450 504.57 450.11C504.62 450.33 505.02 450.49 505.03 450.61C505.08 451.27 504.81 451.67 504.36 452.26C503.86 452.92 503.43 453.1 503.18 453.89C503.04 454.34 502.99 454.28 502.99 454.72C502.99 454.68 503.16 455.88 503.16 455.88C503.39 456.41 504.49 456.73 505.03 456.94C505.82 457.25 506.01 457.79 506.55 458.07C506.86 458.24 507.26 458.07 507.61 458.14C507.97 458.21 508.2 458.45 508.56 458.52C509.49 458.71 510.17 458.46 509.32 459.37C509.06 459.65 508.57 459.56 508.58 460.11C509.56 460.57 507.48 461.61 508.35 462.42C508.69 462.74 509.36 462.54 509.68 462.86C510.04 463.22 509.7 463.98 510.34 464.3C510.36 464.44 510.37 464.6 510.37 464.74C510.68 464.93 510.54 464.84 510.75 465.12C511.23 465.16 511.83 465.74 512.11 466.19C512.31 466.27 512.21 466.38 512.35 466.65C512.39 466.73 512.22 466.96 512.27 467.1C512.32 467.25 512.6 467.18 512.64 467.28C512.84 467.85 512.84 468.16 512.84 468.81C513.59 468.91 514.37 469.04 514.35 469.94C515.1 470.04 514.95 469.2 515.17 468.72C515.39 468.24 515.66 467.99 516.02 467.56C516.56 466.91 516.2 467.07 517.08 466.83C517.64 466.68 518.2 466.65 518.23 465.9C519.47 465.84 520.32 465.29 521.38 464.77C521.93 464.5 522.39 464.35 522.76 463.78C523.23 463.05 522.83 462.98 522.93 462.31C522.02 461.98 523.08 460.86 522.01 460.66C522.32 459.57 524.23 460.28 524.38 459.28C524.98 459.04 525.51 458.94 525.95 458.39C526.46 457.75 526.51 457.31 526.26 456.79C526.11 456.49 525.85 456.26 525.69 455.95C525.55 455.68 525.81 455.68 525.43 455.27C524.96 454.78 524.22 454.96 524.07 454.25C523.87 453.31 524.96 453.41 525.61 453.21C526.65 452.89 526.44 452.42 527.1 451.69C527.34 451.42 527.81 451.42 527.98 451.2C528.21 450.89 528.06 450.34 528.25 450C528.42 449.69 528.76 449.67 528.92 449.23C529.03 448.93 529.06 448.72 529.09 448.39C528.93 448.23 529.18 447.31 529.11 446.86C529.01 446.17 528.59 445.66 528.81 444.98C528.68 444.95 528.59 444.88 528.46 444.85C528.84 443.81 527.79 443.73 527.12 443.54C527.11 443.54 527.1 443.54 527.09 443.53C527.06 443.47 527.04 443.42 527.01 443.38C526.77 442.98 526.5 442.68 526.17 442.34C525.82 441.98 525.34 441.92 525.21 441.39C524.7 441.23 522.37 441.67 523.36 440.35C523.68 439.92 524.36 440.15 524.76 439.95C525.38 439.64 525.22 439.67 525.44 438.93C525.64 439.01 525.95 438.93 526.16 438.99C526.42 438.42 526.12 437.62 526.38 437.11C526.5 436.86 527.01 436.67 527.21 436.45C527.56 436.07 527.49 436.03 527.69 435.6C527.98 434.96 528.14 434.61 528.71 434.08C529.27 433.56 529.46 433.39 529.48 432.49C529.34 432.49 529.17 432.45 529.04 432.46C528.98 431.95 529.46 431.74 529.51 431.26C530.75 431.01 530.04 430.04 530.44 429.35C530.64 429.01 531.23 428.97 531.37 428.67C531.56 428.28 531.08 427.79 531.22 427.29C532.33 427.09 533.08 426.32 533.18 425.19C533.1 425.15 533.01 425.12 532.92 425.09C532.88 424.15 533.69 423.33 533.88 422.36C534.05 421.52 534.64 420.09 534.22 419.35C533.28 419.2 533.65 420.34 533.27 420.73C532.81 421.22 531.78 420.6 531.76 421.49C530.92 421.58 530.72 422.73 529.96 423C529.27 423.24 528 422.7 527.98 424.05C527.08 423.94 524.66 425.37 524.32 423.99C524.76 423.8 526.69 422.75 525.07 422.63C525.22 422.3 525.15 421.94 524.95 421.62C523.86 421.46 523.59 422.94 522.97 421.43C522.6 421.43 522.32 421.48 521.96 421.5C522.01 420.6 521.79 420.57 521.29 420.02C520.96 419.66 521.04 419.99 520.82 419.42C520.68 419.06 520.69 418.43 520.62 418.03C520.15 417.96 519.47 417.8 519.19 417.47C519 417.25 519.15 416.83 519.01 416.68C518.78 416.44 518.43 416.53 518.17 416.41C517.28 415.98 516.37 415.81 515.44 415.35C515.82 414.38 514.27 414.67 513.84 414.4C512.9 413.82 513.33 413.28 514.01 413C514.54 412.78 515.69 413.1 515.4 412.55C514.97 411.73 514.2 412.38 513.55 412.23C513.17 411.55 514.07 411.13 514.98 410.7C515.46 410.94 515.84 411.66 516.09 411.96C516.38 412.31 517.13 412.67 517.05 413.27C517.56 413.2 517.99 413.48 518.19 413.93C519.45 413.84 520.57 414.68 521.67 415.18C522.26 415.44 525 416.4 525 416.77C526.23 416.91 525.94 417.9 525.75 418.76C526.7 418.81 525.47 420.25 526.68 420.67C527.62 420.99 528.51 420.65 529.42 420.29C529.97 420.08 530.48 419.96 531.03 419.82C531.3 419.75 531.64 419.79 531.88 419.61C532.32 419.27 531.97 419.23 532.16 418.97C532.67 418.27 533.61 417.87 534.25 417.17C533.68 416.59 534.72 415.89 534.89 415.27C533.84 415.25 534.04 414.09 534.22 413.4C534.06 413.46 533.74 413.4 533.58 413.47C533.58 413.13 534.49 410.49 533.11 411.77C533.16 410.92 532.66 411.32 532.24 411.21C531.52 411.03 531.77 411.36 531.49 410.55C531.28 409.95 531.02 408.6 530.08 408.86C529.8 409.54 529.95 410.79 528.74 410.64C528.33 410.59 528.35 410.14 527.99 410.06C527.5 409.95 527.39 410.29 526.92 410.06C526.37 409.79 525.99 408.82 525.62 408.45C525.14 407.96 524.04 407.83 524.47 406.86C523.5 406.73 524.04 405.08 525.06 405.42C525.74 405.64 525.6 406.83 526.74 406.39C526.78 407.11 526.71 407.23 527.13 407.61C527.45 407.9 527.84 407.64 528.09 408.25C528.8 408.46 529.15 407.67 529.85 407.72C529.97 407.99 530.89 408.66 531.11 408.75C531.37 408.86 532.77 408.84 533.06 408.73C533.4 408.59 533.27 408.16 533.57 408.01C533.88 407.85 534.13 408.05 534.4 408C534.98 407.88 535.99 407.41 535.74 408.64C536.24 408.57 536.74 408.84 537.17 408.87C538.04 408.93 537.85 408.69 538.46 409.34C538.35 410.3 541.16 410.49 541.85 410.38C542.27 410.84 543.08 410.69 542.93 411.48C543.58 411.75 543.01 412.1 543.18 412.54C543.37 413.03 543.64 412.9 544.13 413.32C544.25 413.42 544.29 413.74 544.33 413.77C544.35 413.79 544.95 414.1 544.91 414.05C545.27 414.53 545.26 414.65 545.3 415.36C546.26 415.54 546.8 416.48 546.8 417.36C546.8 417.78 546.51 418.16 546.68 418.52C546.96 419.09 547.34 418.79 547.72 419.09C548.52 419.72 548.19 420.42 548.89 420.9V413.64C548.1 413.36 549.06 412.47 548.58 411.89C548.24 411.48 547.06 411.45 546.64 411.09C546.37 410.86 546.3 410.51 546.15 410.26C545.97 409.96 545.44 409.91 545.69 409.33C545.83 409.01 546.34 409.16 546.52 408.84C546.72 408.49 546.49 408.02 546.63 407.62C546.76 407.64 546.94 407.58 547.07 407.59C547.1 407.04 546.87 406.13 547.73 406.39C547.63 407.09 547.84 408.24 548.67 408.19C549.05 408.95 548.16 409.35 548.85 410C549.13 410.26 549.6 410.02 549.85 410.33C550.02 410.53 549.93 411.12 549.93 411.38C550.87 411.78 550.93 413.02 552.07 412.8C552 412.5 552.04 412.3 551.79 412.06C552.44 411.4 552.29 412.46 552.39 412.63C552.58 412.94 552.9 413.17 553.04 413.57C553.16 413.92 553.03 414.47 553.1 414.83C553.18 415.22 553.51 415.38 553.43 415.92C553.88 416.12 555.68 417.74 556.41 417.85H556.31ZM511.79 401.65C510.82 400.57 511.09 402.29 510.54 402.58C510.02 402.86 509.67 402.3 509.23 402.22C508.84 402.14 508.38 402.33 508 402.21C507.26 401.97 506.92 401.31 506.31 400.88C505.8 400.52 505.68 400.83 505.43 400.31C505.33 400.11 506.18 399.83 505.38 399.66C505.4 399.53 505.37 399.34 505.35 399.22C504.78 399.15 503.67 399.82 503.55 399.13C502.9 399.09 502.33 399.21 501.68 399.1C501.95 397.96 503.05 397.93 504.04 397.79C504.91 397.67 505.95 397.39 506.78 397.24C507.04 397.19 507.78 396.94 507.91 396.95C508.35 396.98 508.62 397.3 509.03 397.43C509.54 397.59 509.67 397.51 510.12 397.24C510.32 397.12 510.56 396.24 510.95 396.94L511.42 397.13C511.53 397.26 511.66 397.26 511.62 397.49C511.73 397.5 511.85 397.51 511.97 397.52C512 397.67 512.04 397.84 512.07 397.96C511.92 398.05 511.92 398.15 511.81 398.25C512.04 398.26 512.16 398.4 512.36 398.45C512.25 399.05 510.26 398.99 511.52 399.59C512.31 399.97 513.43 399.47 514.25 399.6C514.21 399.71 514.2 399.85 514.18 399.95C514.59 399.91 514.73 399.99 514.85 400.33C514.9 400.34 514.95 400.35 515.01 400.36C515.18 402.29 512.06 400.17 511.81 401.66L511.79 401.65ZM520.23 402.39C519.19 401.9 519.45 401.52 519.26 400.52C519.08 399.58 517.95 399.39 518.02 398.45C517.44 398.4 516.81 398.22 516.98 397.5C516.27 397.66 516.15 397.2 515.87 396.81C515.93 396.35 516.31 395.59 515.68 395.39C516 394.83 516.49 394.75 516.25 394.01C516.91 393.96 517.19 393.34 517.83 393.22C517.81 393.09 517.87 392.91 517.86 392.78C518.32 392.76 518.8 392.76 519.25 392.78C519.33 392.94 519.18 392.89 519.17 392.95L519.26 393.52C519.86 394.61 517.66 394.99 517.82 395.91C518.05 397.22 519.98 397.26 521.05 397.31C520.97 397.73 521.1 398.15 521.5 398.34C520.27 399.01 522.3 399.7 522.85 399.68C522.84 399.81 522.9 399.99 522.88 400.12C523.37 400.12 523.79 399.79 524.27 400.06C524.01 401.26 525.46 400.79 524.68 402.02C525.16 402.02 525.54 402.25 525.82 402.61C524.45 403.94 521.68 403.07 520.25 402.4L520.23 402.39Z" fill="#3989B4"/>
<path d="M529.81 461.34C530.45 461.56 530.9 461.44 531.36 460.96C531.54 460.77 531.58 460.42 531.73 460.27C531.93 460.08 532.34 460.1 532.5 459.9C532.68 459.67 532.5 459.26 532.68 459.06C532.92 458.8 533.31 458.94 533.56 458.71C534.1 458.23 533.8 457.79 533.91 457.1C534.1 455.98 535.28 455.89 536.27 455.35C536.7 455.11 537.36 454.88 537.05 454.34C536.77 453.84 536.1 454.28 535.55 454.14C535.66 453.28 535.88 453.17 534.79 453.01C534.72 452.42 535.12 452.01 535.71 451.97C535.59 451.72 535.7 451.48 535.64 451.24C536.59 451.22 536.39 449.98 536.48 449.43C536.54 449.08 536.73 448.82 536.77 448.39C536.8 448.02 536.62 447.63 536.65 447.37C536.72 446.7 537.28 443.83 535.94 443.46C535.79 443.21 535.61 443.1 535.45 442.91L534.88 443C535.68 444.03 535.25 444.09 534.78 444.99C534.47 445.59 534.83 446.55 534.43 447.09C534.2 447.4 533.64 447.47 533.36 447.73C533.12 447.96 532.83 448.47 532.68 448.77C532.53 449.05 532.46 449.59 532.31 449.81C532 450.25 531.54 450.28 531.19 450.61C530.41 451.33 530.69 451.86 530.88 452.67C531.02 453.27 531.06 454.07 530.91 454.82C530.83 455.19 530.63 455.59 530.53 455.95C530.53 455.98 530.28 456.57 530.26 456.44C530.29 456.64 530.62 456.88 530.63 456.96C530.67 457.7 530.45 458.4 530.25 459.16C530.08 459.79 530.21 460.81 529.82 461.34H529.81Z" fill="#3989B4"/>
<path d="M474.03 477.61C473.81 477.35 473.64 476.86 473.42 476.55C472.98 475.92 472.55 475.27 472.05 474.7C471.47 474.04 470.59 473.56 470.25 472.78C469.94 472.08 469.96 470.96 469.06 470.68C469.17 469.96 468.52 469.65 468.65 468.92C468.31 468.89 467.69 468.36 467.53 468.15C467.18 467.69 467.21 467.45 467.04 466.85C466.99 466.67 466.68 466.55 466.61 466.28C466.61 466.29 466.77 465.73 466.78 465.69C466.94 465.12 466.83 465.03 467.44 464.74C468 464.48 468.21 464.99 468.48 464.28C468.57 464.03 468.3 463.36 468.17 463.07C467.77 462.15 467.76 461.57 466.68 461.49C466.23 461.19 466.44 460.91 466.29 460.49C466.06 459.86 465.81 459.27 465.65 458.6C465.57 458.27 465.67 457.65 465.47 457.37C465.27 457.09 464.9 457.16 464.68 456.93C463.93 456.11 464.44 456.07 464.9 455.58C465.22 455.24 465.15 455.31 465.35 454.84C465.35 454.84 465.14 454.59 465.19 454.44C465.26 454.26 465.57 454.25 465.63 454.14C465.96 453.51 466.38 452.93 466.43 452.19C466.48 451.43 466.01 450.98 465.93 450.27C465.84 449.44 466.24 449.16 465.34 448.5C464.9 448.18 463.75 448.02 463.65 447.54C462.99 447.4 462.06 448.31 462.04 447.16C460.99 446.84 461.09 448.19 460.18 447.98C459.97 447.4 459.31 445.96 458.67 445.8C458.55 445.19 459.37 443.57 458.1 443.82C458.1 443.49 458.08 443.14 458.07 442.81C457.8 442.65 457.86 442.74 457.8 442.42C457.58 441.27 458.36 439.41 457.07 438.61C456.51 438.26 455.87 438.81 455.27 438.33C454.76 437.92 454.8 436.77 454.89 436.19C455.04 435.21 454.93 434.9 454.58 434C454.27 433.2 454.51 432.64 454.3 431.83C453.98 430.58 453.82 429.37 453.54 428.03C451.54 441.39 454.6 455.52 463.19 467.29C466.32 471.58 469.98 475.27 474.01 478.32C474.37 478.35 474.74 478.35 475.07 478.36C474.75 478.03 474.34 477.95 474.04 477.6L474.03 477.61Z" fill="#3989B4"/>
<path d="M538.44 475.59V475.46C538.29 475.9 538.2 476.18 537.89 476.53C537.52 476.94 537.55 476.89 537.37 477.42C537.27 477.71 537.23 477.76 537.11 477.98C537.11 477.98 536.76 478.46 536.8 478.43C536.56 478.61 536.21 478.65 535.98 478.88C535.62 479.24 535.69 479.4 535.16 479.64C534.81 479.8 534.4 480.06 534.02 480.12C533.02 480.27 533.14 478.99 532.27 479.13C532.14 479.41 531.78 479.41 531.51 479.55C531.24 479.1 530.88 479.3 530.5 479.38C530.1 480.1 529.54 480.74 528.72 480.93C528.1 481.07 528.2 480.84 527.65 480.76C527.51 480.74 527.08 480.82 526.95 480.9C526.69 481.08 526.78 481.25 526.57 481.39C526.23 481.63 525.86 481.65 525.5 481.88C525.12 482.12 524.85 482.48 524.41 482.64C523.85 482.85 523.33 482.81 522.78 483.05C522.37 483.23 521.66 483.28 521.33 483.53C521.13 483.39 520.9 483.27 520.65 483.3C520.67 483.4 520.61 483.56 520.63 483.66C520.3 483.66 520.14 483.94 519.88 484.11C519.73 484.21 519.58 484.16 519.42 484.28C519.26 484.41 519.21 484.48 519.13 484.66C519.53 484.74 519.36 484.89 519.3 485.16C519.3 485.13 518.91 485.74 518.92 485.73C518.5 486.03 517.49 485.97 517.28 485.44C517.03 485.69 516.55 485.75 516.4 486.05C516.05 485.96 515.78 485.74 515.4 485.68C514.79 485.58 514.66 485.89 514.21 486.05C513.49 486.3 512.76 485.82 512.07 485.99C512.01 485.42 511.46 485.5 511.55 486.05C511.26 486.05 510.97 486.01 510.72 486.18C510.44 486.07 510.06 485.98 509.79 486.2C509.15 485.56 507.32 486.99 506.76 487.45C506.64 487.55 506.64 487.8 506.51 487.91C506.4 488.01 506.19 488.05 506.07 488.16C505.85 488.35 505.68 488.55 505.45 488.72C505.31 488.83 505.1 489 504.91 489.14C516.23 489.42 527.72 486.11 537.58 478.92C537.67 478.85 537.76 478.78 537.85 478.71C537.88 478.42 537.88 478.13 537.97 477.86C538.04 477.63 538.85 477.06 538.11 477.03C538.49 476.76 538.25 476.62 538.31 476.35C538.37 476.09 538.56 475.87 538.42 475.59H538.44Z" fill="#3989B4"/>
<path d="M485.03 393.98C485.03 393.98 486.27 393.4 486.36 393.34C486.77 393.02 486.47 392.34 487.28 392.47C487.73 391.66 488.21 391.2 488.64 390.42C488.87 390.38 488.94 390.22 489.1 390.12L489.57 389.65C489.28 389.89 487.72 390.65 487.21 390.77C486.79 390.86 486.48 390.78 486.08 390.89C485.14 391.13 485.61 391.18 485.22 391.83C484.98 392.24 483.73 393.84 485.03 393.99V393.98Z" fill="#3989B4"/>
<mask id="mask1_25_2276" style="mask-type:luminance" maskUnits="userSpaceOnUse" x="452" y="382" width="108" height="108">
<path d="M549.22 404.5C566.56 428.26 561.36 461.57 537.6 478.91C513.84 496.25 480.53 491.05 463.19 467.29C445.85 443.53 451.05 410.22 474.81 392.88C498.57 375.54 531.88 380.74 549.22 404.5Z" fill="white"/>
</mask>
<g mask="url(#mask1_25_2276)">
</g>
<g style="mix-blend-mode:overlay" opacity="0.4">
<path d="M487.36 386.09C479.3 390.25 473.2 396.78 470.57 405.15C464.37 424.88 479.73 447.28 504.88 455.19C527.61 462.34 550.56 455.19 559.34 439.18C560.09 427.22 556.82 414.94 549.2 404.5C534.75 384.7 509.21 377.81 487.35 386.09H487.36Z" fill="#E9F8FF"/>
</g>
<defs>
<radialGradient id="paint0_radial_25_2276" cx="0" cy="0" r="1" gradientUnits="userSpaceOnUse" gradientTransform="translate(512.08 466.3) scale(0.120002 0.120004)">
<stop stop-color="white"/>
<stop offset="0.21" stop-color="#E9E9F2"/>
<stop offset="1" stop-color="#9997C6"/>
</radialGradient>
</defs>
</svg>
