<svg width="13" height="13" viewBox="0 0 13 13" fill="none" xmlns="http://www.w3.org/2000/svg">
<path d="M8.98283 2.60522L10.3948 4.01655M9.89083 1.36188L6.07283 5.17988C5.87555 5.37688 5.74101 5.62787 5.68616 5.90122L5.3335 7.66655L7.09883 7.31322C7.37216 7.25855 7.62283 7.12455 7.82016 6.92722L11.6382 3.10922C11.7529 2.99449 11.8439 2.85828 11.906 2.70838C11.9681 2.55847 12 2.39781 12 2.23555C12 2.0733 11.9681 1.91263 11.906 1.76273C11.8439 1.61282 11.7529 1.47662 11.6382 1.36188C11.5234 1.24715 11.3872 1.15614 11.2373 1.09405C11.0874 1.03196 10.9268 1 10.7645 1C10.6022 1 10.4416 1.03196 10.2917 1.09405C10.1418 1.15614 10.0056 1.24715 9.89083 1.36188V1.36188Z" stroke="#0B0B0B" stroke-linecap="round" stroke-linejoin="round"/>
<path d="M10.6667 8.99967V10.9997C10.6667 11.3533 10.5263 11.6924 10.2762 11.9425C10.0262 12.1925 9.68704 12.333 9.33341 12.333H2.00008C1.64646 12.333 1.30732 12.1925 1.05727 11.9425C0.807224 11.6924 0.666748 11.3533 0.666748 10.9997V3.66634C0.666748 3.31272 0.807224 2.97358 1.05727 2.72353C1.30732 2.47348 1.64646 2.33301 2.00008 2.33301H4.00008" stroke="#0B0B0B" stroke-linecap="round" stroke-linejoin="round"/>
</svg>
