<svg width="205" height="49" viewBox="0 0 205 49" fill="none" xmlns="http://www.w3.org/2000/svg">
<path d="M76.3856 14.6687C60.2201 10.3265 42.1883 17.4097 26.6271 11.2342C26.2446 11.0838 25.8418 10.9206 25.4364 10.992C25.11 11.0481 24.8321 11.2495 24.5644 11.4433C19.0926 15.4464 13.6183 19.447 8.14648 23.4501C11.66 23.037 23.1773 23.5291 26.3339 23.6745C32.4762 23.96 38.611 24.4547 44.7202 25.161C57.0227 26.5812 69.2284 28.8479 81.2199 31.9433C87.9513 33.6797 94.5194 36.2269 101.233 37.8894C97.4874 26.6806 87.7371 17.7182 76.3856 14.6687Z" fill="#CDD7E5"/>
<path d="M81.6508 15.2705C72.5966 11.5122 62.6194 10.6554 52.8207 10.4489C46.1557 10.3087 38.9169 10.2653 33.6619 6.16277C36.1326 5.87974 38.5548 5.17601 40.7961 4.09491C41.7267 5.64261 43.5371 6.40499 45.2709 6.91749C53.7845 9.429 62.956 8.20001 71.694 9.75791C83.0557 11.785 93.4485 18.7484 99.6419 28.4859C100.789 30.2885 101.898 32.5859 102.396 35.1356C100.723 31.1912 96.9366 26.2956 95.0472 24.3094C91.3093 20.3776 86.6534 17.3434 81.6534 15.2705H81.6508Z" fill="#CDD7E5"/>
<path d="M75.0112 6.96083C70.6741 6.03272 65.9341 5.94093 61.5281 5.45138C59.3813 5.2117 57.2242 4.91848 55.1767 4.23004C53.1293 3.54161 51.1812 2.42737 49.7916 0.772576C51.5663 0.966357 53.3893 0.696083 55.0314 0C55.2175 0.785325 55.7988 1.41767 56.4235 1.93017C58.1472 3.33763 60.3247 4.08981 62.5149 4.49267C64.7051 4.89298 66.9387 4.96692 69.1545 5.176C74.9399 5.72165 80.8068 7.2719 85.6718 10.5483C87.0283 11.4611 89.9069 13.8681 91.0186 15.0716C86.1817 10.9104 80.302 8.09547 75.0112 6.96338V6.96083Z" fill="#CDD7E5"/>
<path d="M102.393 41.7573C102.393 41.7573 63.7872 26.8846 5.45393 26.7189L0 30.6838C0 30.6838 48.7896 26.056 102.393 41.7548V41.7573Z" fill="#174A9D"/>
<path d="M128.401 14.7631C144.569 10.4209 162.598 17.5041 178.159 11.3286C178.542 11.1781 178.944 11.015 179.35 11.0864C179.676 11.1425 179.954 11.3439 180.222 11.5377C185.694 15.5408 191.168 19.5413 196.64 23.5445C193.126 23.1314 181.609 23.6235 178.452 23.7688C172.31 24.0544 166.175 24.5491 160.066 25.2553C147.763 26.6756 135.558 28.9423 123.566 32.0377C116.835 33.7741 110.267 36.3213 103.553 37.9837C107.299 26.775 117.049 17.8126 128.401 14.7631Z" fill="#CDD7E5"/>
<path d="M123.135 15.3649C132.19 11.6065 142.167 10.7498 151.968 10.5433C158.633 10.403 165.872 10.3597 171.127 6.25713C168.656 5.97411 166.234 5.27037 163.993 4.18928C163.062 5.73698 161.252 6.49936 159.518 7.01186C151.004 9.52337 141.833 8.29439 133.095 9.85229C121.733 11.8793 111.34 18.8427 105.147 28.5802C104.002 30.3829 102.89 32.6802 102.393 35.23C104.066 31.2855 107.852 26.39 109.741 24.4037C113.479 20.472 118.135 17.4378 123.135 15.3649Z" fill="#CDD7E5"/>
<path d="M129.775 7.05775C134.112 6.12964 138.852 6.03785 143.258 5.5483C145.405 5.30862 147.562 5.0154 149.609 4.32697C151.657 3.63853 153.605 2.52429 154.994 0.869499C153.22 1.06328 151.397 0.793007 149.755 0.0969238C149.569 0.882248 148.987 1.51459 148.363 2.02709C146.639 3.43456 144.461 4.18673 142.271 4.58959C140.081 4.9899 137.847 5.06384 135.632 5.27292C129.846 5.81857 123.979 7.36882 119.114 10.6453C117.758 11.5581 114.879 13.965 113.767 15.1685C118.602 11.0073 124.484 8.1924 129.775 7.0603V7.05775Z" fill="#CDD7E5"/>
<path d="M102.393 41.8543C102.393 41.8543 140.999 26.9816 199.332 26.8158L204.786 30.7807C204.786 30.7807 155.997 26.1529 102.393 41.8517V41.8543Z" fill="#174A9D"/>
<path d="M27.3793 33.0933C27.3793 33.0933 69.3075 34.0392 102.393 44.2102V48.94C102.393 48.94 84.6238 39.715 27.3793 33.0907V33.0933Z" fill="#FFCA42"/>
<path d="M177.407 33.0933C177.407 33.0933 135.479 34.0392 102.393 44.2102V48.94C102.393 48.94 120.162 39.715 177.407 33.0907V33.0933Z" fill="#FFCA42"/>
</svg>
