<svg width="1440" height="613" viewBox="0 0 1440 613" fill="none" xmlns="http://www.w3.org/2000/svg">
<rect width="1440" height="613" fill="white"/>
<mask id="mask0_3_4" style="mask-type:alpha" maskUnits="userSpaceOnUse" x="660" y="0" width="780" height="613">
<rect x="660" width="780" height="613" fill="#C4C4C4"/>
</mask>
<g mask="url(#mask0_3_4)">
<path d="M795.267 414.532C724.784 508.827 731.348 588.038 869.23 613H1442V0H741.925C543.244 169.823 981.544 165.322 795.267 414.532Z" fill="#1B3764"/>
<path d="M1832.61 287C1832.61 416.882 1714.31 524.5 1565.34 524.5C1416.37 524.5 1298.07 416.882 1298.07 287C1298.07 157.118 1416.37 49.5 1565.34 49.5C1714.31 49.5 1832.61 157.118 1832.61 287Z" stroke="#F5F6F8" stroke-opacity="0.3" stroke-width="25"/>
</g>
<path d="M955.781 319.874C967.745 355.266 932.54 386.442 898.219 369.021C890.794 365.25 884.92 358.897 881.752 351.196C867.101 315.605 900.965 282.976 935.298 297.704C944.989 301.861 952.402 309.889 955.781 319.879V319.874Z" fill="#8390C8"/>
<g style="mix-blend-mode:multiply" opacity="0.2">
<path d="M906.657 355.647C899.554 352.039 893.944 345.967 890.911 338.6C886.449 327.767 886.695 317.221 890.155 308.332C880.546 318.667 876.546 334.378 883.287 350.745C886.32 358.112 891.93 364.184 899.033 367.791C922.327 379.614 946.037 368.026 953.755 348.21C942.816 359.962 924.611 364.758 906.651 355.647H906.657Z" fill="#606161"/>
</g>
<g style="mix-blend-mode:soft-light">
<path d="M923.399 308.162C922.222 311.763 930.402 314.445 931.579 310.838C932.756 307.237 924.576 304.555 923.399 308.162Z" fill="white"/>
<path d="M935.181 327.568C932.054 325.431 927.193 332.54 930.326 334.677C933.453 336.814 938.313 329.705 935.181 327.568Z" fill="white"/>
<path d="M913.063 321.999C910.293 321.888 910.118 326.192 912.893 326.303C915.663 326.415 915.839 322.11 913.063 321.999Z" fill="white"/>
<path d="M914.515 337.886C911.746 337.775 911.57 342.079 914.346 342.19C917.115 342.301 917.291 337.997 914.515 337.886Z" fill="white"/>
<path d="M896.509 315.716C893.458 318.111 896.181 321.595 899.238 319.2C902.289 316.805 899.566 313.321 896.509 315.716Z" fill="white"/>
<path d="M904.297 331.989C904.262 331.954 904.227 331.913 904.192 331.878C903.436 331.064 902.171 332.229 902.927 333.049C902.962 333.084 902.997 333.125 903.032 333.16C903.788 333.974 905.052 332.809 904.297 331.989Z" fill="white"/>
<path d="M937.294 318.579C937.259 318.544 937.224 318.503 937.189 318.468C936.434 317.654 935.169 318.82 935.924 319.639C935.959 319.674 935.994 319.715 936.03 319.751C936.785 320.565 938.05 319.399 937.294 318.579Z" fill="white"/>
</g>
<path d="M991.8 300.795C988.644 294.506 970.573 296.726 946.57 305.24C947.32 305.972 948.04 306.739 948.725 307.53C966.521 301.609 979.386 299.946 981.002 303.167C983.573 308.291 959.224 327.252 925.126 344.363C891.028 361.473 860.098 370.251 857.527 365.121C855.952 361.977 864.466 353.047 879.141 342.67C878.895 341.481 878.707 340.304 878.567 339.133C856.502 353.65 843.25 367.276 846.483 373.712C851.08 382.876 887.339 373.981 927.474 353.849C967.604 333.711 996.409 309.96 991.812 300.795H991.8Z" fill="#F8961D"/>
<path d="M1227.46 413.947L1224.62 397.744L1225.5 397.609L1228.33 413.812L1227.46 413.947Z" fill="#28496E"/>
<path d="M1245.21 413.256L1244.34 413.121L1247.07 396.959L1247.94 397.094L1245.21 413.256Z" fill="#28496E"/>
<path d="M1290.05 332.879C1290.22 352.034 1264.02 383.315 1248 398.271V398.283C1247.93 398.359 1247.83 398.429 1247.76 398.505C1247.44 398.751 1246.93 398.985 1246.24 399.184C1246.22 399.196 1246.2 399.196 1246.18 399.196C1246.19 399.196 1246.19 399.184 1246.19 399.184C1245.74 399.325 1245.24 399.442 1244.66 399.547C1243.71 399.741 1242.6 399.899 1241.36 400.016H1241.33C1240.93 400.057 1240.53 400.092 1240.1 400.121H1240.08C1239.65 400.145 1239.22 400.174 1238.78 400.197H1238.76C1238.32 400.221 1237.86 400.227 1237.4 400.238C1236.93 400.25 1236.45 400.262 1235.96 400.262C1233.74 400.262 1231.64 400.145 1229.84 399.946C1227.93 399.735 1226.35 399.424 1225.3 399.05H1225.29C1224.91 398.921 1224.61 398.786 1224.37 398.634C1224.36 398.622 1224.35 398.622 1224.33 398.611C1224.19 398.482 1224.04 398.347 1223.91 398.206C1220.77 395.302 1217.32 391.806 1213.79 387.9C1211.49 385.359 1209.16 382.659 1206.84 379.837C1203.77 376.095 1200.77 372.148 1197.96 368.16C1189.2 355.629 1182.42 342.494 1182.34 332.879C1182.24 321.22 1187.37 309.884 1195.72 301.036C1203.7 292.621 1214.6 286.455 1226.77 284.382L1226.79 284.358C1229.73 283.866 1232.73 283.615 1235.79 283.615C1238.61 283.615 1241.39 283.837 1244.12 284.276C1244.16 284.276 1244.19 284.276 1244.24 284.288C1244.76 284.364 1245.26 284.469 1245.78 284.587C1246.31 284.68 1246.81 284.797 1247.31 284.915C1247.89 285.032 1248.45 285.172 1248.97 285.307C1249.6 285.477 1250.25 285.646 1250.88 285.84C1257.21 287.661 1263.1 290.583 1268.3 294.307C1269.94 295.478 1271.51 296.732 1273.01 298.072C1273.79 298.74 1274.55 299.454 1275.28 300.186C1275.31 300.202 1275.33 300.216 1275.34 300.227C1284.31 309.181 1289.95 320.863 1290.05 332.879Z" fill="#FEC543"/>
<path d="M1244.07 330.607C1244.07 362.129 1240.55 397.767 1236.2 397.767C1231.85 397.767 1228.32 362.129 1228.32 330.607C1228.32 299.086 1236.2 283.615 1236.2 283.615C1236.2 283.615 1244.07 299.086 1244.07 330.607Z" fill="white"/>
<path d="M1229.84 399.946C1227.93 399.729 1226.36 399.424 1225.31 399.05H1225.29C1224.91 398.54 1224.52 398.002 1224.11 397.463C1182.35 343.156 1189.31 298.904 1226.78 285.348C1221.7 287.837 1178.16 308.701 1228.15 396.204C1228.82 397.375 1229.26 398.681 1229.85 399.94L1229.84 399.946Z" fill="white"/>
<path d="M1242.34 399.946C1244.25 399.729 1245.82 399.424 1246.88 399.05H1246.89C1247.27 398.54 1247.66 398.002 1248.07 397.463C1289.84 343.156 1282.87 298.904 1245.41 285.348C1250.49 287.837 1294.03 308.701 1244.04 396.204C1243.36 397.375 1242.93 398.681 1242.34 399.94V399.946Z" fill="white"/>
<g style="mix-blend-mode:multiply" opacity="0.2">
<path d="M1290.05 332.879C1290.22 352.034 1264.02 383.315 1248 398.271V398.283C1247.93 398.359 1247.83 398.429 1247.76 398.505C1247.44 398.751 1246.93 398.985 1246.24 399.184C1246.22 399.196 1246.2 399.196 1246.18 399.196C1246.19 399.196 1246.19 399.184 1246.19 399.184C1245.74 399.325 1245.24 399.442 1244.66 399.547C1243.71 399.741 1242.6 399.899 1241.36 400.016H1241.33C1240.93 400.057 1240.53 400.092 1240.1 400.121H1240.08C1239.65 400.145 1239.22 400.174 1238.78 400.197H1238.76C1238.32 400.221 1237.86 400.227 1237.4 400.238C1236.93 400.25 1236.45 400.262 1235.96 400.262C1233.74 400.262 1231.64 400.145 1229.84 399.946C1227.93 399.735 1226.35 399.424 1225.3 399.05H1225.29C1224.91 398.921 1224.61 398.786 1224.37 398.634C1224.36 398.622 1224.35 398.622 1224.33 398.611C1224.19 398.482 1224.04 398.347 1223.91 398.206C1220.77 395.302 1217.32 391.806 1213.79 387.9C1255.09 374.9 1275.48 350.833 1273 298.067C1273.79 298.734 1274.54 299.449 1275.28 300.181C1275.3 300.196 1275.32 300.21 1275.34 300.222C1284.31 309.175 1289.94 320.857 1290.04 332.873L1290.05 332.879Z" fill="#A6A9AB"/>
</g>
<path d="M1248.13 397.943C1248.13 398.054 1248.08 398.166 1248 398.271V398.283C1247.92 398.359 1247.83 398.429 1247.76 398.505C1247.43 398.751 1246.93 398.985 1246.23 399.184C1246.22 399.196 1246.2 399.196 1246.19 399.196C1245.74 399.337 1245.24 399.454 1244.66 399.553C1243.72 399.747 1242.6 399.905 1241.37 400.022H1241.34C1241 400.051 1240.65 400.086 1240.29 400.104C1240.23 400.115 1240.17 400.121 1240.11 400.121H1240.09C1239.85 400.139 1239.63 400.151 1239.39 400.156C1239.19 400.174 1238.98 400.186 1238.79 400.192H1238.77C1238.32 400.221 1237.87 400.227 1237.41 400.238C1236.94 400.25 1236.46 400.256 1235.97 400.256C1234.85 400.256 1233.76 400.227 1232.72 400.174C1232.43 400.156 1232.12 400.139 1231.83 400.121C1231.14 400.074 1230.49 400.022 1229.86 399.946C1227.95 399.723 1226.37 399.425 1225.31 399.044H1225.29C1224.91 398.915 1224.61 398.775 1224.37 398.628C1224.36 398.616 1224.36 398.616 1224.35 398.611C1224.14 398.482 1223.99 398.341 1223.91 398.206C1223.86 398.124 1223.83 398.031 1223.83 397.937C1223.83 397.761 1223.93 397.597 1224.11 397.439C1224.19 397.375 1224.27 397.311 1224.38 397.246C1225.08 396.825 1226.41 396.444 1228.15 396.169C1229.12 396.011 1230.22 395.882 1231.43 395.8C1231.72 395.77 1232.01 395.747 1232.31 395.735C1233.47 395.659 1234.69 395.624 1235.97 395.624C1237.25 395.624 1238.58 395.659 1239.77 395.735C1240.07 395.753 1240.36 395.782 1240.65 395.8C1241.51 395.876 1242.32 395.958 1243.07 396.069C1245.16 396.356 1246.77 396.76 1247.56 397.246C1247.6 397.264 1247.63 397.281 1247.66 397.299C1247.96 397.504 1248.13 397.715 1248.13 397.931V397.943Z" fill="#F8961D"/>
<g style="mix-blend-mode:multiply" opacity="0.2">
<path d="M1247.56 397.252C1247.24 397.457 1246.8 397.638 1246.23 397.802C1246.22 397.814 1246.2 397.814 1246.19 397.814C1245.74 397.955 1245.24 398.072 1244.66 398.171C1243.72 398.365 1242.6 398.523 1241.37 398.64H1241.34C1241 398.669 1240.65 398.704 1240.29 398.722C1240.23 398.733 1240.17 398.739 1240.11 398.739H1240.09C1239.85 398.757 1239.63 398.769 1239.39 398.775C1239.19 398.792 1238.98 398.804 1238.79 398.81H1238.77C1238.32 398.839 1237.87 398.845 1237.41 398.856C1236.94 398.868 1236.46 398.874 1235.97 398.874C1234.85 398.874 1233.76 398.845 1232.72 398.792C1232.43 398.774 1232.12 398.757 1231.83 398.739C1231.14 398.693 1230.49 398.64 1229.86 398.564C1227.95 398.341 1226.37 398.043 1225.31 397.662H1225.29C1224.91 397.533 1224.63 397.393 1224.38 397.246C1225.08 396.825 1226.41 396.444 1228.15 396.169C1229.12 396.011 1230.22 395.882 1231.43 395.8C1231.72 395.77 1232.01 395.747 1232.31 395.735C1233.47 395.659 1234.69 395.624 1235.97 395.624C1237.25 395.624 1238.58 395.659 1239.77 395.735C1240.07 395.753 1240.36 395.782 1240.65 395.8C1241.51 395.876 1242.32 395.958 1243.07 396.069C1245.16 396.356 1246.77 396.76 1247.56 397.246L1247.56 397.252Z" fill="#606161"/>
</g>
<path d="M1233.95 413.566L1233.07 413.66L1231.83 400.121L1231.43 395.811C1231.72 395.782 1232.01 395.759 1232.31 395.747L1232.72 400.18L1233.95 413.572V413.566Z" fill="#28496E"/>
<path d="M1240.66 395.811L1240.29 400.104L1239.13 413.66L1238.24 413.566L1239.39 400.156L1239.78 395.747C1240.07 395.765 1240.37 395.794 1240.66 395.811Z" fill="#28496E"/>
<path d="M1245.94 412.208L1245.91 412.319L1245.79 412.823L1245.29 414.983L1242.8 425.776V425.805L1242.28 428.059C1238.43 429.061 1234.5 429.031 1230.47 428.106C1230.4 428.089 1230.34 428.077 1230.28 428.059L1227.19 414.96L1226.68 412.793L1226.54 412.214H1245.94V412.208Z" fill="#8E8E8E"/>
<g style="mix-blend-mode:multiply" opacity="0.2">
<path d="M1245.94 412.208L1245.91 412.319L1245.79 412.823L1245.29 414.983L1242.8 425.776V425.805L1242.28 428.059C1238.43 429.061 1234.5 429.031 1230.47 428.106C1240 425.061 1241.48 413.666 1241.48 413.666C1241.46 413.273 1241.58 412.776 1241.8 412.214H1245.94V412.208Z" fill="#606161"/>
</g>
<g style="mix-blend-mode:multiply" opacity="0.2">
<path d="M1245.79 412.823L1245.29 414.983C1239.29 414.181 1233.2 414.175 1227.19 414.954L1226.68 412.787C1229.02 412.477 1231.39 412.284 1233.77 412.208C1235.33 412.155 1236.9 412.155 1238.45 412.208C1240.91 412.29 1243.36 412.495 1245.79 412.823Z" fill="#606161"/>
</g>
<path d="M1246.43 414.216C1239.6 413.191 1232.64 413.191 1225.81 414.216C1225.69 413.49 1225.56 412.764 1225.44 412.038C1232.51 410.978 1239.72 410.978 1246.79 412.038C1246.67 412.764 1246.55 413.49 1246.43 414.216Z" fill="#8E8E8E"/>
<path d="M1267.32 239.409C1267.32 239.409 1271.91 239.766 1275.81 243.713C1279.71 247.666 1277.33 261.491 1277.33 261.491C1277.33 261.491 1289.09 239.843 1292.16 229.899C1295.24 219.956 1284.94 209.533 1284.94 209.533L1271.55 232.218L1267.32 239.403L1267.32 239.409Z" fill="#D84459"/>
<g style="mix-blend-mode:multiply" opacity="0.5">
<path d="M1267.32 239.409C1267.32 239.409 1271.91 239.766 1275.81 243.713C1279.71 247.666 1277.33 261.491 1277.33 261.491C1277.33 261.491 1282.14 246.079 1279.83 241.031C1278.17 237.389 1274.82 234.168 1271.55 232.218L1267.32 239.403V239.409Z" fill="#D0D3D4"/>
</g>
<path d="M1246.07 195.005C1246.07 195.005 1231.47 196.112 1227.26 205.633C1223.06 215.155 1217.72 239.198 1217.72 239.198C1217.72 239.198 1225 227.206 1230.53 226.784C1236.06 226.363 1239.77 229.109 1239.77 229.109L1246.07 195.011V195.005Z" fill="#D84459"/>
<g style="mix-blend-mode:multiply" opacity="0.5">
<path d="M1239.77 229.109C1239.77 229.109 1236.07 226.368 1230.53 226.784C1225 227.206 1217.72 239.204 1217.72 239.204C1217.72 239.204 1224.2 224.413 1229.25 222.117C1232.89 220.454 1237.53 220.232 1241.28 220.905L1239.76 229.109H1239.77Z" fill="#D0D3D4"/>
</g>
<path d="M1238.89 217.011C1238.24 221.004 1237.78 224.582 1237.46 227.557C1237.29 229.203 1237.16 230.661 1237.06 231.896C1236.82 234.871 1236.76 236.581 1236.76 236.581L1264.68 247.022C1264.68 247.022 1265.77 245.687 1267.57 243.256C1273.21 235.585 1285.77 217.04 1292.51 195.538C1294.58 188.956 1296.1 182.087 1296.71 175.171C1296.71 175.159 1296.71 175.154 1296.71 175.154C1296.92 172.829 1297.02 170.492 1297 168.162C1296.92 158.154 1294.68 148.199 1289.17 139C1278.97 142.326 1270.75 148.369 1264.12 155.871C1248.51 173.549 1241.77 199.367 1238.89 217.011Z" fill="#F2F2F2"/>
<g style="mix-blend-mode:multiply" opacity="0.5">
<path d="M1237.46 227.557C1237.29 229.203 1237.16 230.661 1237.06 231.896C1236.82 234.871 1236.76 236.581 1236.76 236.581L1264.68 247.022C1264.68 247.022 1265.77 245.687 1267.57 243.256C1273.21 235.585 1285.77 217.04 1292.51 195.538C1287.56 208.737 1271.18 229.074 1237.46 227.557Z" fill="#D0D3D4"/>
</g>
<path d="M1257.68 177.982C1254.46 186.608 1258.48 196.082 1266.67 199.151C1274.86 202.213 1284.12 197.704 1287.34 189.079C1290.57 180.453 1286.54 170.978 1278.35 167.91C1270.16 164.847 1260.9 169.356 1257.68 177.982Z" fill="#00A6B0"/>
<path d="M1261.06 179.241C1260.44 180.881 1260.17 182.567 1260.19 184.207C1260.26 187.761 1261.76 191.105 1264.33 193.389C1265.39 194.32 1266.62 195.075 1268 195.596C1274.32 197.962 1281.48 194.484 1283.97 187.814C1285.01 185.032 1285.08 182.128 1284.33 179.522C1283.39 176.225 1281.16 173.397 1278 171.88C1277.68 171.728 1277.35 171.593 1277.02 171.464C1270.7 169.099 1263.54 172.577 1261.06 179.241Z" fill="#A8DDE0"/>
<path opacity="0.4" d="M1260.2 184.207C1260.27 187.761 1261.77 191.105 1264.34 193.389L1284.34 179.522C1283.4 176.225 1281.17 173.397 1278 171.88L1260.2 184.207Z" fill="white"/>
<path d="M1237.05 231.896C1236.81 234.871 1236.76 236.581 1236.76 236.581L1264.68 247.022C1264.68 247.022 1265.78 245.687 1267.57 243.256C1265.1 241.406 1259.86 237.863 1253.21 235.375C1246.46 232.845 1240.09 232.101 1237.06 231.896H1237.05Z" fill="#00A6B0"/>
<path d="M1236.76 236.587C1236.76 236.587 1242.29 240.861 1249.99 243.742C1257.71 246.624 1264.68 247.028 1264.68 247.028C1264.68 247.028 1259.15 242.753 1251.45 239.872C1243.73 236.991 1236.76 236.587 1236.76 236.587Z" fill="#00A6B0"/>
<g style="mix-blend-mode:multiply" opacity="0.5">
<path d="M1236.76 236.587C1236.76 236.587 1242.29 240.861 1249.99 243.742C1257.71 246.624 1264.68 247.028 1264.68 247.028C1264.68 247.028 1259.15 242.753 1251.45 239.872C1243.73 236.991 1236.76 236.587 1236.76 236.587Z" fill="#D0D3D4"/>
</g>
<path d="M1264.12 155.871C1282.79 155.912 1296.99 168.162 1296.99 168.162C1296.92 158.154 1294.68 148.199 1289.16 139C1278.96 142.326 1270.74 148.363 1264.12 155.871Z" fill="#D84459"/>
<g style="mix-blend-mode:soft-light">
<path d="M1268.04 158.716C1266.2 160.848 1265.17 162.177 1265.17 162.177L1260.82 161.802C1261.8 160.532 1262.85 159.32 1263.92 158.166C1265.29 158.353 1266.67 158.541 1268.04 158.722V158.716Z" fill="#E6E6E7"/>
<path d="M1266.89 155.174C1275.19 147.344 1284.16 142.824 1284.16 142.824C1278.68 147.362 1274.04 152.058 1270.72 155.689C1269.44 155.513 1268.16 155.343 1266.88 155.168L1266.89 155.174Z" fill="#E6E6E7"/>
</g>
<path d="M1251.44 225.25C1256.56 211.571 1262.85 201.282 1265.51 202.278C1268.16 203.267 1266.17 215.166 1261.05 228.845C1255.93 242.524 1246.98 251.818 1246.98 251.818C1246.98 251.818 1246.32 238.929 1251.44 225.25Z" fill="#D84459"/>
<path d="M904.602 207.033C906.446 212.97 903.103 219.289 897.141 221.145C891.174 223.001 884.844 219.699 883.005 213.761L904.607 207.033H904.602Z" fill="#293959"/>
<g style="mix-blend-mode:soft-light">
<path d="M903.653 211.266L899.917 213.123C899.917 213.123 900.784 217.345 897.721 219.804C897.721 219.804 902.903 217.702 903.659 211.266H903.653Z" fill="white"/>
</g>
<path d="M854.769 180.365C849.944 164.824 859.207 148.246 875.34 144.294C889.201 140.897 903.676 148.498 908.671 161.791C912.683 172.448 909.86 183.826 902.587 191.439C900.866 193.242 900.18 195.789 900.918 198.161L903.149 205.352L883.515 211.471L881.342 204.485C880.575 202.008 878.485 200.205 875.937 199.66C866.229 197.587 857.902 190.502 854.757 180.377L854.769 180.365Z" fill="#FEC543"/>
<g style="mix-blend-mode:multiply" opacity="0.2">
<path d="M862.926 181.94C859.336 170.387 866.229 158.066 878.215 155.127C888.516 152.603 899.279 158.254 902.991 168.133C905.972 176.055 903.875 184.511 898.471 190.168C897.188 191.509 896.685 193.4 897.229 195.163L898.886 200.509L884.294 205.053L882.683 199.859C882.109 198.015 880.558 196.68 878.666 196.275C871.446 194.735 865.262 189.465 862.926 181.94Z" fill="#BBBEBF"/>
</g>
<g style="mix-blend-mode:soft-light">
<path d="M903.208 158.769L895.859 161.059C895.859 161.059 887.977 147.924 875.856 147.134C875.856 147.134 894.682 142.027 903.208 158.769Z" fill="white"/>
</g>
<g style="mix-blend-mode:soft-light">
<path d="M904.432 162.722L898.33 164.625C898.33 164.625 904.455 175.815 901.996 180.834C901.996 180.834 909.157 174.264 904.432 162.728V162.722Z" fill="white"/>
</g>
<g style="mix-blend-mode:multiply" opacity="0.15">
<path d="M871.891 180.348C874.134 181.929 877.934 181.677 881.061 181.08C881.161 181.372 881.255 181.671 881.348 181.981C884.604 193.002 888.112 203.765 888.147 203.876L890.009 203.267C889.974 203.162 886.472 192.422 883.228 181.425C883.152 181.162 883.07 180.904 882.988 180.652C883.005 180.652 883.029 180.641 883.046 180.635L883.058 180.676C883.275 180.617 883.831 180.465 884.592 180.213C885.359 179.985 885.91 179.797 886.115 179.721L886.103 179.686C886.103 179.686 886.138 179.674 886.162 179.663C886.238 179.914 886.314 180.172 886.402 180.436C889.956 191.339 893.154 202.166 893.183 202.278L895.063 201.721C895.033 201.61 891.824 190.753 888.264 179.827C888.164 179.522 888.071 179.218 887.989 178.919C890.899 177.636 894.178 175.681 895.127 173.11C895.654 171.675 895.414 170.176 894.436 168.765C893.083 166.815 890.84 166.165 888.855 167.155C886.332 168.408 884.575 172.091 885.693 177.748C885.096 177.976 884.528 178.181 884.018 178.351C883.497 178.503 882.918 178.661 882.297 178.808C880.019 173.514 876.482 171.476 873.695 171.88C871.505 172.196 870.023 174.006 870.011 176.383C870.006 178.099 870.656 179.469 871.903 180.354L871.891 180.348ZM887.532 176.975C886.759 172.577 887.983 169.76 889.716 168.9C889.839 168.841 889.962 168.788 890.085 168.753C891.086 168.443 892.105 168.853 892.82 169.883C893.44 170.774 893.593 171.611 893.282 172.442C892.621 174.228 890.079 175.809 887.532 176.969V176.975ZM871.956 176.383C871.961 175.13 872.57 174.211 873.572 173.895C873.695 173.854 873.824 173.824 873.958 173.807C875.873 173.532 878.473 175.154 880.323 179.218C877.565 179.709 874.579 179.85 873.021 178.755C872.295 178.245 871.944 177.467 871.95 176.383H871.956Z" fill="#1D2738"/>
</g>
<path d="M882.373 210.365C888.598 206.359 895.812 204.14 903.208 203.952C904.795 203.911 906.019 205.071 905.937 206.406C905.855 207.747 904.672 208.766 903.313 208.807C896.813 208.971 890.477 210.921 885.002 214.44C883.855 215.178 882.309 214.991 881.489 213.931C880.669 212.871 881.032 211.225 882.373 210.365Z" fill="#293959"/>
<g style="mix-blend-mode:soft-light">
<path d="M902.845 207.636C902.845 207.636 903.729 207.706 903.928 207.003C904.022 206.664 903.934 206.26 903.407 206.008C902.136 205.399 891.116 207.319 887.391 210.534C887.391 210.534 897.065 207.185 902.845 207.636Z" fill="white"/>
</g>
<path d="M881.12 206.283C887.345 202.278 894.559 200.058 901.955 199.871C903.542 199.83 904.766 200.989 904.684 202.324C904.602 203.665 903.419 204.684 902.06 204.725C895.56 204.889 889.224 206.839 883.749 210.359C882.601 211.096 881.055 210.909 880.236 209.849C879.416 208.789 879.779 207.144 881.12 206.283Z" fill="#293959"/>
<g style="mix-blend-mode:soft-light">
<path d="M901.592 203.548C901.592 203.548 902.476 203.619 902.675 202.916C902.769 202.576 902.681 202.172 902.154 201.92C900.883 201.311 889.863 203.232 886.138 206.447C886.138 206.447 895.812 203.097 901.592 203.548Z" fill="white"/>
</g>
<path d="M879.808 202.207C886.033 198.202 893.247 195.983 900.643 195.795C902.23 195.754 903.454 196.914 903.372 198.249C903.29 199.59 902.107 200.609 900.748 200.65C894.249 200.814 887.913 202.764 882.437 206.283C881.29 207.021 879.744 206.833 878.924 205.774C878.104 204.714 878.467 203.068 879.808 202.207Z" fill="#293959"/>
<g style="mix-blend-mode:soft-light">
<path d="M900.339 199.467C900.339 199.467 901.223 199.537 901.422 198.834C901.516 198.495 901.428 198.091 900.901 197.839C899.63 197.23 888.609 199.151 884.885 202.365C884.885 202.365 894.559 199.016 900.339 199.467Z" fill="white"/>
</g>
<path d="M1079.38 502.235L1169.9 442.523C1157.84 436.521 1124.59 450.294 1079.15 459.54C1033.7 450.294 1000.87 438.535 985.751 441.938L1079 502.235V502.428L1079.2 502.334L1079.39 502.428V502.235H1079.38Z" fill="#404D64"/>
<path d="M1079.38 502.235L1169.9 442.523C1157.84 436.521 1124.59 450.294 1079.15 459.54C1033.7 450.294 1000.87 438.535 985.751 441.938L1079 502.235V502.428L1079.2 502.334L1079.39 502.428V502.235H1079.38Z" fill="#293959"/>
<g style="mix-blend-mode:multiply" opacity="0.2">
<path d="M1079.38 502.235L1169.9 442.523C1157.84 436.521 1124.59 450.294 1079.15 459.54C1033.7 450.294 1000.87 438.535 985.751 441.938L1079 502.235V502.428L1079.2 502.334L1079.39 502.428V502.235H1079.38Z" fill="#606161"/>
</g>
<path d="M1126.16 359.529C1125.62 361.11 1125.12 362.791 1124.67 364.524C1124.04 366.96 1123.51 369.537 1123.11 372.254C1123.11 372.283 1123.09 372.324 1123.09 372.388C1122.99 373.079 1122.91 373.764 1122.81 374.479C1122.64 375.767 1122.52 377.079 1122.44 378.431C1122.35 379.696 1122.28 380.967 1122.26 382.273C1122.25 382.654 1122.51 395.94 1122.82 411.745C1122.95 418.45 1123.09 425.612 1123.22 432.428C1123.57 449.65 1123.87 448.519 1123.87 448.519C1089.12 467.82 1060.39 466.871 1029.83 448.519C1029.83 448.519 1030.13 449.609 1030.48 432.363C1030.61 425.594 1030.75 418.503 1030.88 411.85C1031.19 396.011 1031.45 382.665 1031.44 382.279C1031.42 380.973 1031.34 379.702 1031.26 378.437C1031.17 377.085 1031.06 375.773 1030.89 374.485C1030.79 373.77 1030.71 373.085 1030.61 372.394C1030.61 372.33 1030.59 372.289 1030.59 372.259C1030.18 369.542 1029.66 366.966 1029.03 364.53C1028.58 362.797 1028.08 361.116 1027.54 359.535C1022.96 345.803 1026.09 347.513 1026.09 347.513C1026.09 347.513 1035.95 330.789 1057.21 323.569C1081.25 312.747 1066.85 319.833 1076.86 318.884C1087.09 319.926 1085.87 318.767 1095.09 322.942C1116.35 330.162 1127.63 347.513 1127.63 347.513C1127.63 347.513 1130.75 345.803 1126.18 359.535L1126.16 359.529Z" fill="#D84459"/>
<path d="M1052.4 485.569C1052.4 485.569 1010.08 483.929 1001.81 485.493C993.551 487.056 986.495 490.23 985.979 503.119C985.429 516.874 994.576 516.804 1001.81 517.301C1009.05 517.793 1045.55 511.346 1047.93 510.234C1050.31 509.121 1052.39 485.569 1052.39 485.569H1052.4Z" fill="white"/>
<path d="M1061.15 503.646C1061.15 503.646 1050.87 511.645 1041.84 513.8C1032.71 515.99 1024.45 516.622 1006.24 517.354C1006.24 517.354 1005 509.478 1009.59 508.617C1014.18 507.757 1052.93 498.68 1061.15 503.64V503.646Z" fill="#00A6B0"/>
<path d="M1057.04 503.435C1057.04 503.435 1045.75 510.778 1032.16 510.772C1026.1 510.772 1025.2 490.939 1029.57 489.709C1033.94 488.479 1054.76 485.481 1054.76 485.481L1057.04 503.435Z" fill="#EFB4AB"/>
<path d="M1044.45 498.13C1044.84 499.435 1044.64 501.356 1043.96 503.423C1042.93 506.662 1040.74 510.263 1037.93 512.412C1037.93 512.412 1016.66 511.129 1011.29 513.864C1006.26 516.435 1008.01 517.255 1006.58 517.337C1006.48 517.354 1006.38 517.354 1006.25 517.354C1006.25 517.354 1005.17 517.29 1003.56 517.29C1002.93 517.29 1002.31 517.237 1001.73 517.126C990.207 515.059 987.947 493.146 997.738 489.539C998.423 489.282 1002.67 488.362 1004.88 488.075C1017.08 486.588 1044.05 486.184 1049.7 486.219C1047.56 486.283 1042.7 487.291 1035.35 490.435C1035.35 490.435 1042.99 493.176 1044.45 498.124V498.13Z" fill="#F8961D"/>
<g style="mix-blend-mode:soft-light">
<path d="M1010.16 504.624C1010.4 510.848 1006.53 514.725 1001.73 517.132C990.207 515.065 987.947 493.152 997.738 489.545C1003.19 491.325 1009.81 495.389 1010.16 504.624Z" fill="white"/>
</g>
<path d="M1052.4 485.569C1052.4 485.569 1138.16 445.48 1154.15 442.066C1171.46 436.679 1196.71 453.731 1177.28 472.153C1155.96 492.619 1057.55 506.199 1057.55 506.199C1056.08 506.89 1050.39 494.552 1052.4 485.569Z" fill="#293959"/>
<path d="M1101.29 485.551C1101.29 485.551 1143.61 483.912 1151.87 485.475C1160.14 487.039 1167.19 490.213 1167.71 503.101C1168.26 516.856 1159.11 516.786 1151.87 517.284C1144.64 517.776 1108.14 511.329 1105.75 510.216C1103.38 509.103 1101.3 485.551 1101.3 485.551H1101.29Z" fill="white"/>
<path d="M1092.53 503.628C1092.53 503.628 1102.81 511.627 1111.84 513.782C1120.97 515.972 1129.24 516.605 1147.44 517.337C1147.44 517.337 1148.68 509.461 1144.09 508.6C1139.5 507.739 1100.75 498.663 1092.53 503.622V503.628Z" fill="#00A6B0"/>
<path d="M1096.65 503.423C1096.65 503.423 1107.94 510.766 1121.53 510.761C1127.59 510.761 1128.49 490.927 1124.12 489.697C1119.74 488.468 1098.93 485.469 1098.93 485.469L1096.65 503.423Z" fill="#F4B8AD"/>
<path d="M1109.23 498.112C1108.84 499.418 1109.04 501.339 1109.72 503.406C1110.75 506.644 1112.94 510.245 1115.75 512.394C1115.75 512.394 1137.02 511.112 1142.39 513.847C1147.42 516.417 1145.67 517.237 1147.1 517.319C1147.2 517.337 1147.3 517.337 1147.43 517.337C1147.43 517.337 1148.51 517.272 1150.12 517.272C1150.76 517.272 1151.37 517.22 1151.96 517.108C1163.47 515.041 1165.73 493.129 1155.94 489.522C1155.26 489.264 1151.01 488.345 1148.81 488.058C1136.6 486.57 1109.63 486.166 1103.99 486.201C1106.12 486.266 1110.98 487.273 1118.33 490.418C1118.33 490.418 1110.7 493.158 1109.23 498.106V498.112Z" fill="#F8961D"/>
<g style="mix-blend-mode:soft-light">
<path d="M1143.52 504.606C1143.28 510.831 1147.16 514.707 1151.96 517.114C1163.48 515.047 1165.74 493.135 1155.95 489.527C1150.5 491.308 1143.88 495.372 1143.52 504.606Z" fill="white"/>
</g>
<path d="M1101.29 485.569C1101.29 485.569 1015.53 445.48 999.536 442.066C982.226 436.679 956.982 453.731 976.405 472.153C997.726 492.619 1096.13 506.199 1096.13 506.199C1097.61 506.89 1103.3 494.552 1101.29 485.569Z" fill="#28496E"/>
<path d="M1095.66 323.229C1095.66 323.229 1099.17 349.943 1076.87 349.996C1054.57 350.054 1058.01 323.773 1058.01 323.773C1058.01 323.773 1061.1 322.889 1062.01 316.378C1062.23 314.82 1062.26 313.022 1062.02 310.961H1091.33C1091.33 310.961 1091.3 311.201 1091.27 311.617C1091.25 311.845 1091.24 312.138 1091.23 312.484C1091.13 315.294 1091.91 319.399 1095.66 323.229H1095.66Z" fill="#F4B8AD"/>
<path opacity="0.5" d="M1091.74 311.658C1091.74 311.658 1091.55 311.962 1091.23 312.484C1089.35 315.476 1082.52 325.612 1076.03 325.8C1068.41 326.046 1062.02 316.384 1062.02 316.384L1062.01 316.372C1062.23 314.814 1062.26 313.016 1062.02 310.955H1083.94L1091.27 311.611L1091.73 311.646L1091.74 311.658Z" fill="#E17F88"/>
<path d="M1037.59 357.79C1037.59 357.79 1034.1 370.819 1030.08 385.166C1028.29 391.595 1026.38 398.294 1024.65 404.203C1022.16 412.641 1020.01 419.469 1018.97 421.6L1001.2 423.047C1001.2 423.047 1001.17 423.029 1001.17 423.012C999.149 420.728 997.867 417.683 997.65 414.035C997.539 412.372 997.662 410.586 998.037 408.694C998.183 407.933 998.523 406.61 998.997 404.865C999.881 401.609 1001.26 396.895 1002.81 391.66C1007.4 376.224 1013.58 356.349 1013.58 356.349C1024.57 345.499 1037.6 357.796 1037.6 357.796L1037.59 357.79Z" fill="#F4B8AD"/>
<path d="M1058.46 323.563C1058.46 323.563 1038.58 362.346 1038.21 377.705C1038.18 379.199 1037.74 381.681 1037.09 384.656C1037.03 384.949 1036.96 385.253 1036.89 385.558C1034.66 385.915 1032.45 386.144 1030.25 386.226C1028.23 386.308 1026.23 386.267 1024.24 386.114C1016.11 385.511 1008.23 383.075 1000.54 379.245C1000.54 379.245 1007.87 360.12 1012.26 350.482C1020.6 332.177 1058.46 323.557 1058.46 323.557V323.563Z" fill="#D84459"/>
<g style="mix-blend-mode:multiply" opacity="0.3">
<path d="M1035.79 353.351L1031.95 386.202C1031.95 386.202 1031.93 386.22 1031.92 386.226C1029.9 386.308 1027.9 386.267 1025.9 386.114L1035.78 353.345L1035.79 353.351Z" fill="#606161"/>
</g>
<path opacity="0.5" d="M1016.11 408.87C1016.19 416.359 1004.25 408.612 998.991 404.859C999.875 401.603 1001.25 396.889 1002.8 391.654C1006 393.709 1016.01 400.806 1016.11 408.87Z" fill="#E17F88"/>
<path d="M999.553 424.569L980.264 400.683C980.434 394.711 989.364 389.897 989.364 389.897L1015.22 404.982C1029.55 417.361 1011.92 438.898 999.553 424.569Z" fill="#F4B8AD"/>
<path d="M1117.22 357.79C1117.22 357.79 1120.71 370.819 1124.73 385.166C1126.52 391.595 1128.43 398.294 1130.16 404.203C1132.66 412.641 1134.8 419.469 1135.84 421.6L1153.61 423.047C1153.61 423.047 1153.64 423.029 1153.64 423.012C1155.66 420.728 1156.95 417.683 1157.16 414.035C1157.27 412.372 1157.15 410.586 1156.78 408.694C1156.63 407.933 1156.29 406.61 1155.81 404.865C1154.93 401.609 1153.55 396.895 1152 391.66C1147.41 376.224 1141.23 356.349 1141.23 356.349C1130.24 345.499 1117.21 357.796 1117.21 357.796L1117.22 357.79Z" fill="#F4B8AD"/>
<path opacity="0.5" d="M1138.7 408.87C1138.62 416.359 1150.56 408.612 1155.82 404.859C1154.94 401.603 1153.56 396.889 1152.01 391.654C1148.81 393.709 1138.8 400.806 1138.7 408.87Z" fill="#E17F88"/>
<path d="M1155.26 424.569L1174.55 400.683C1174.38 394.711 1165.93 389.897 1165.93 389.897L1139.59 404.982C1125.26 417.361 1142.89 438.898 1155.26 424.569Z" fill="#F4B8AD"/>
<path d="M1095.66 323.229C1095.66 323.229 1115.11 362.346 1115.47 377.705C1115.5 379.199 1115.94 381.681 1116.59 384.656C1116.65 384.949 1116.72 385.253 1116.79 385.558C1119.02 385.915 1121.24 386.144 1123.43 386.226C1125.45 386.308 1127.45 386.267 1129.45 386.114C1137.57 385.511 1145.45 383.075 1153.14 379.245C1153.14 379.245 1145.81 360.12 1141.42 350.482C1133.08 332.177 1095.66 323.223 1095.66 323.223V323.229Z" fill="#D84459"/>
<g style="mix-blend-mode:multiply" opacity="0.3">
<path d="M1119.57 353.351L1122.84 386.272C1122.27 386.343 1127.45 386.272 1129.44 386.12L1119.56 353.351H1119.57Z" fill="#606161"/>
</g>
<path d="M1099.89 287.269C1099.89 287.269 1104.38 275.832 1111.8 278.356C1119.23 280.88 1111.56 299.876 1100.15 296.152L1099.89 287.269Z" fill="#F4B8AD"/>
<path d="M1109.66 283.615C1104.41 283.697 1101.54 288.51 1101.41 288.715C1101.29 288.926 1101.36 289.195 1101.57 289.312C1101.65 289.353 1101.72 289.377 1101.81 289.371C1101.95 289.371 1102.09 289.289 1102.17 289.154C1102.19 289.125 1103.26 287.327 1105.22 285.974C1107.07 287.105 1106.23 290.191 1106.22 290.226C1106.15 290.46 1106.29 290.7 1106.52 290.77C1106.56 290.782 1106.6 290.788 1106.65 290.788C1106.84 290.788 1107.01 290.659 1107.06 290.472C1107.1 290.319 1107.98 287.069 1106.03 285.483C1107.02 284.938 1108.19 284.534 1109.52 284.493C1109.57 284.493 1109.61 284.493 1109.66 284.493C1109.88 284.522 1110.1 284.294 1110.09 284.048C1110.09 283.808 1109.89 283.609 1109.65 283.615H1109.66Z" fill="#E17F88"/>
<path d="M1054.02 286.695L1054.29 295.572C1046.86 298.494 1040.48 291.274 1039.18 285.254C1038.53 282.215 1039.17 279.492 1041.6 278.491C1046.73 276.406 1050.8 281.343 1052.75 284.429C1053.57 285.723 1054.02 286.689 1054.02 286.689V286.695Z" fill="#F4B8AD"/>
<path d="M1044.05 283.62C1049.29 283.392 1052.44 288.024 1052.58 288.223C1052.71 288.428 1052.66 288.697 1052.45 288.832C1052.38 288.879 1052.3 288.902 1052.23 288.908C1052.08 288.908 1051.93 288.844 1051.85 288.715C1051.83 288.686 1050.65 286.958 1048.61 285.723C1046.84 286.958 1047.86 289.992 1047.87 290.027C1047.95 290.255 1047.83 290.507 1047.6 290.589C1047.55 290.606 1047.51 290.612 1047.47 290.612C1047.28 290.612 1047.1 290.507 1047.04 290.319C1046.99 290.173 1045.91 286.982 1047.77 285.278C1046.74 284.792 1045.56 284.458 1044.22 284.499C1044.17 284.499 1044.13 284.499 1044.09 284.499C1043.87 284.546 1043.64 284.323 1043.63 284.083C1043.62 283.843 1043.81 283.638 1044.05 283.626V283.62Z" fill="#E17F88"/>
<path d="M1102.04 281.085C1102.62 301.305 1092.29 318.099 1078.78 319.171C1078.5 319.212 1078.21 319.229 1077.93 319.229C1066.38 319.575 1056.31 308.373 1052.86 292.767C1052.13 289.546 1051.69 286.121 1051.59 282.578C1050.98 261.931 1061.78 252.187 1075.7 251.765C1089.63 251.361 1101.43 260.437 1102.04 281.079V281.085Z" fill="#F4B8AD"/>
<path d="M1107.28 278.614C1107.28 278.614 1103.09 281.36 1101.87 283.866C1101.87 283.866 1102.11 290.87 1099.91 297.674C1099.91 297.674 1098.78 285.986 1100.35 279.527C1100.4 279.334 1100.45 279.141 1100.47 278.965C1100.77 277.548 1100.88 276.178 1100.85 274.913C1100.84 274.04 1100.76 273.221 1100.67 272.465C1098.85 270.872 1093.9 268.553 1093.44 262.809C1093.44 262.809 1073.21 273.66 1063.84 272.559C1065.95 268.395 1070.88 265.286 1070.96 265.093C1070.61 265.321 1059.36 269.262 1053.76 269.555C1053.39 270.814 1052.98 272.676 1052.94 274.884C1052.92 276.096 1053 277.419 1053.26 278.795C1053.33 279.199 1053.41 279.598 1053.53 280.007C1055.22 286.437 1054.34 298.137 1054.34 298.137C1052 291.379 1052.09 284.118 1052.09 284.118C1051.34 281.143 1047.71 279.088 1047.71 279.088C1047.33 277.94 1041.27 262.282 1041.94 258.177C1043.01 251.578 1048.97 249.159 1048.97 249.159L1043.44 249.358C1051.11 230.971 1076.86 227.147 1089.73 232.704C1102.6 238.238 1101.82 249.821 1101.82 249.821C1107.35 248.89 1112.56 252.989 1113.07 258.37C1113.63 264.372 1107.28 278.608 1107.28 278.608L1107.28 278.614Z" fill="#293959"/>
<path d="M1060.8 291.461C1060.75 291.883 1059.67 292.105 1058.4 291.965C1057.12 291.824 1056.12 291.362 1056.17 290.94C1056.21 290.519 1057.29 290.296 1058.57 290.437C1059.84 290.583 1060.85 291.04 1060.8 291.461Z" fill="#E17F88"/>
<path d="M1061.09 293.973C1061.02 293.558 1059.93 293.394 1058.66 293.616C1057.39 293.833 1056.42 294.354 1056.49 294.77C1056.57 295.186 1057.65 295.35 1058.92 295.127C1060.2 294.91 1061.16 294.389 1061.09 293.973Z" fill="#E17F88"/>
<path d="M1093.44 293.013C1093.49 292.591 1094.56 292.369 1095.84 292.509C1097.12 292.656 1098.12 293.113 1098.07 293.534C1098.02 293.956 1096.95 294.178 1095.67 294.038C1094.39 293.891 1093.39 293.435 1093.44 293.013Z" fill="#E17F88"/>
<path d="M1093.15 290.501C1093.22 290.917 1094.31 291.081 1095.58 290.858C1096.85 290.641 1097.81 290.12 1097.74 289.705C1097.67 289.289 1096.58 289.125 1095.31 289.347C1094.04 289.564 1093.08 290.085 1093.15 290.501Z" fill="#E17F88"/>
<path d="M1077.49 299.554C1077.44 299.554 1077.38 299.554 1077.33 299.554C1076.67 299.519 1075.1 298.998 1074.82 295.039C1074.36 288.557 1075.3 284.944 1075.34 284.792C1075.41 284.557 1075.65 284.417 1075.88 284.481C1076.12 284.546 1076.26 284.786 1076.19 285.02C1076.18 285.055 1075.25 288.662 1075.7 294.981C1075.88 297.645 1076.69 298.641 1077.38 298.682C1078.4 298.752 1079.87 296.977 1080.43 294.032C1080.47 293.792 1080.7 293.64 1080.94 293.681C1081.18 293.728 1081.34 293.956 1081.29 294.196C1080.71 297.3 1079.13 299.513 1077.5 299.566L1077.49 299.554Z" fill="#E17F88"/>
<path d="M1083.91 302.769C1083.61 302.81 1083.32 302.997 1083.2 303.237C1083.23 303.149 1082.02 305.779 1077.74 305.99C1077.73 305.99 1077.72 305.99 1077.7 305.99C1073.32 305.978 1071.53 303.144 1071.54 303.144C1071.4 302.909 1071.1 302.745 1070.81 302.728C1070.58 302.716 1070.38 302.798 1070.27 302.962C1070.16 303.114 1070.16 303.319 1070.27 303.507C1070.24 303.483 1072.27 307.09 1077.72 307.131C1077.73 307.131 1077.75 307.131 1077.77 307.131C1083.1 306.839 1084.49 303.6 1084.55 303.466C1084.63 303.278 1084.6 303.085 1084.49 302.95C1084.36 302.798 1084.15 302.734 1083.92 302.769H1083.91Z" fill="#E17F88"/>
<path d="M1089.57 278.286C1088.19 277.671 1086.56 277.729 1084.72 278.444C1084.08 278.696 1083.36 278.379 1083.1 277.735C1082.85 277.091 1083.17 276.371 1083.81 276.119C1086.31 275.147 1088.6 275.112 1090.61 276.014C1093.78 277.437 1094.97 282.197 1094.32 282.438C1094.19 282.484 1091.75 279.252 1089.57 278.28V278.286Z" fill="#293959"/>
<path d="M1058.44 282.83C1057.78 282.631 1058.7 277.806 1061.77 276.195C1063.73 275.171 1066.01 275.071 1068.56 275.897C1069.22 276.107 1069.58 276.81 1069.37 277.466C1069.16 278.122 1068.45 278.485 1067.8 278.268C1065.91 277.659 1064.27 277.706 1062.93 278.403C1060.8 279.516 1058.58 282.865 1058.44 282.824V282.83Z" fill="#293959"/>
<path d="M1064.49 287.667C1064.49 290.337 1065.34 292.498 1066.39 292.498C1067.43 292.498 1068.28 290.331 1068.28 287.667C1068.28 285.002 1067.43 282.836 1066.39 282.836C1065.34 282.836 1064.49 285.002 1064.49 287.667Z" fill="#293959"/>
<path d="M1085.38 287.667C1085.38 290.337 1086.22 292.498 1087.27 292.498C1088.31 292.498 1089.16 290.331 1089.16 287.667C1089.16 285.002 1088.31 282.836 1087.27 282.836C1086.22 282.836 1085.38 285.002 1085.38 287.667Z" fill="#293959"/>
<path d="M1065.74 368.395L1076.84 361.596L1089.11 368.963C1089.11 368.963 1083.92 375.351 1076.15 374.854C1068.37 374.356 1065.74 368.395 1065.74 368.395Z" fill="#8E8E8E"/>
<path d="M984.838 350.827L996.028 342.325C996.028 342.325 1009.68 345.897 1024.68 345.124C1049.44 343.847 1067.71 347.355 1076.84 361.596L1065.17 370.52C1065.17 370.52 1024.36 350.259 984.838 350.827Z" fill="white"/>
<path d="M1023.76 346.553C1009.85 347.238 996.672 344.837 996.672 344.837C996.801 344.872 1009.77 348.104 1023.8 347.402C1049.9 346.108 1064.93 350.675 1072.57 362.223L1073.28 361.754C1065.45 349.925 1050.18 345.241 1023.76 346.553Z" fill="#E5E6E7"/>
<path d="M1021.48 347.894C1007.57 348.579 994.394 346.178 994.394 346.178C994.523 346.213 1007.49 349.445 1021.52 348.743C1047.62 347.449 1062.65 352.016 1070.3 363.564L1071.01 363.095C1063.17 351.266 1047.9 346.576 1021.48 347.894Z" fill="#E5E6E7"/>
<path d="M1018.91 349.516C1005.01 350.207 991.824 347.8 991.824 347.8C991.952 347.835 1004.92 351.067 1018.95 350.365C1045.05 349.071 1060.08 353.638 1067.73 365.186L1068.43 364.717C1060.6 352.889 1045.33 348.204 1018.91 349.516Z" fill="#E5E6E7"/>
<path d="M1168.84 350.827L1157.65 342.325C1157.65 342.325 1144 345.897 1129 345.124C1104.24 343.847 1085.97 347.355 1076.84 361.596L1088.51 370.52C1088.51 370.52 1129.32 350.259 1168.84 350.827Z" fill="white"/>
<path d="M1130.38 346.553C1144.3 347.238 1157.47 344.837 1157.47 344.837C1157.34 344.872 1144.37 348.104 1130.34 347.402C1104.25 346.108 1089.22 350.675 1081.57 362.223L1080.86 361.754C1088.7 349.925 1103.97 345.241 1130.38 346.553Z" fill="#E5E6E7"/>
<path d="M1132.87 347.894C1146.79 348.579 1159.96 346.178 1159.96 346.178C1159.83 346.213 1146.87 349.445 1132.83 348.743C1106.74 347.449 1091.71 352.016 1084.06 363.564L1083.35 363.095C1091.18 351.266 1106.46 346.576 1132.87 347.894Z" fill="#E5E6E7"/>
<path d="M1135.49 349.516C1149.39 350.207 1162.58 347.8 1162.58 347.8C1162.45 347.835 1149.48 351.067 1135.45 350.365C1109.35 349.071 1094.32 353.638 1086.68 365.186L1085.97 364.717C1093.8 352.889 1109.07 348.204 1135.49 349.516Z" fill="#E5E6E7"/>
<path d="M1076.84 371.797V448.514C1072.65 448.584 1069.71 447.501 1067.72 446.236C1065.59 444.877 1064.54 443.302 1064.2 442.693L1064.06 442.429C1041.33 432.094 992.034 433.019 992.034 433.019L978.466 349.48C978.466 349.48 1037.33 348.842 1062.63 363.294C1062.63 363.294 1063.91 366.849 1067.73 369.367C1069.89 370.784 1072.85 371.873 1076.85 371.797H1076.84Z" fill="#00A6B0"/>
<path d="M1067.72 369.367V446.242C1065.59 444.883 1064.54 443.308 1064.2 442.699L1064.06 442.435L1062.63 363.3C1062.63 363.3 1063.91 366.855 1067.73 369.373L1067.72 369.367Z" fill="#A8DDE0"/>
<path d="M1058.87 430.934C1058.95 430.934 1059.04 430.952 1059.13 430.958L1056.59 374.139C1054.3 374.127 1052.46 372.277 1052.46 369.987C1052.46 369.455 1052.57 368.945 1052.75 368.477C1043.16 365.49 1016.11 357.965 990.459 359.084C990.635 359.547 990.746 360.044 990.746 360.565C990.746 362.861 988.884 364.717 986.594 364.717C986.307 364.717 986.032 364.688 985.763 364.635L994.4 422.748C994.757 422.637 995.132 422.561 995.524 422.561C997.533 422.561 999.161 424.112 999.26 426.062C1009.34 425.928 1034.97 426.461 1055.14 434.425C1055.24 432.475 1056.86 430.923 1058.87 430.923L1058.87 430.934Z" stroke="white" stroke-width="0.84" stroke-miterlimit="10"/>
<path d="M1076.84 371.797V448.514C1081.04 448.584 1083.98 447.501 1085.97 446.236C1088.1 444.877 1089.15 443.302 1089.49 442.693L1089.63 442.429C1112.36 432.094 1161.65 433.019 1161.65 433.019L1175.22 349.48C1175.22 349.48 1116.35 348.842 1091.06 363.294C1091.06 363.294 1089.78 366.849 1085.96 369.367C1083.8 370.784 1080.84 371.873 1076.84 371.797H1076.84Z" fill="#00A6B0"/>
<path d="M1085.96 369.367V446.242C1088.09 444.883 1089.14 443.308 1089.49 442.699L1089.62 442.435L1091.06 363.3C1091.06 363.3 1089.77 366.855 1085.96 369.373L1085.96 369.367Z" fill="#A8DDE0"/>
<path d="M1094.82 430.934C1094.73 430.934 1094.65 430.952 1094.56 430.958L1097.1 374.139C1099.38 374.127 1101.23 372.277 1101.23 369.987C1101.23 369.455 1101.12 368.945 1100.93 368.477C1110.53 365.49 1137.58 357.965 1163.23 359.084C1163.05 359.547 1162.94 360.044 1162.94 360.565C1162.94 362.861 1164.8 364.717 1167.09 364.717C1167.38 364.717 1167.66 364.688 1167.92 364.635L1159.29 422.748C1158.93 422.637 1158.56 422.561 1158.16 422.561C1156.15 422.561 1154.53 424.112 1154.43 426.062C1144.34 425.928 1118.72 426.461 1098.55 434.425C1098.45 432.475 1096.82 430.923 1094.82 430.923L1094.82 430.934Z" stroke="white" stroke-width="0.84" stroke-miterlimit="10"/>
<path d="M1106.42 356.835C1106.42 356.835 1119.99 391.865 1116.71 403.453L1111.9 398.517L1108.78 404.601C1108.78 404.601 1106.32 375.381 1098.99 359.388C1098.99 359.388 1102.78 356.343 1106.42 356.841V356.835Z" fill="#F8961D"/>
<path d="M981.277 384.463C981.277 384.463 993.059 380.071 993.774 383.637C993.803 385.868 986.536 389.271 984.352 390.237C989.388 389.071 997.205 386.067 998.429 388.626C999.782 391.958 986.255 396.918 985.804 397.129C985.353 397.34 999.184 392.696 999.799 395.97C1000.43 398.851 991.285 401.556 988.199 403.137C988.199 403.137 996.555 401.585 997.035 403.418C997.697 406.258 992.31 407.605 987.748 408.483C984.726 408.829 982.911 408.483 982.337 407.254C981.64 406.258 982.454 404.695 982.454 404.695C982.454 404.695 979.046 402.92 980.516 399.19C980.516 399.19 976.388 396.022 978.502 392.474C978.502 392.474 972.23 388.357 981.283 384.475L981.277 384.463Z" fill="#F4B8AD"/>
<path d="M1173.53 384.463C1173.53 384.463 1161.75 380.071 1161.04 383.637C1161.01 385.868 1168.28 389.271 1170.46 390.237C1165.42 389.071 1157.61 386.067 1156.38 388.626C1155.03 391.958 1168.56 396.918 1169.01 397.129C1169.46 397.34 1155.63 392.696 1155.01 395.97C1154.38 398.851 1163.53 401.556 1166.61 403.137C1166.61 403.137 1158.26 401.585 1157.78 403.418C1157.11 406.258 1162.5 407.605 1167.06 408.483C1170.09 408.829 1171.9 408.483 1172.47 407.254C1173.17 406.258 1172.36 404.695 1172.36 404.695C1172.36 404.695 1175.77 402.92 1174.3 399.19C1174.3 399.19 1178.42 396.022 1176.31 392.474C1176.31 392.474 1182.58 388.357 1173.53 384.475L1173.53 384.463Z" fill="#F4B8AD"/>
<path d="M1035.75 535.004C1035.98 549.719 1026.09 561.483 1013.64 561.483H904.777C904.848 559.071 904.883 556.629 904.859 554.158C904.859 553.127 904.842 552.091 904.812 551.054C904.76 548.279 904.643 545.468 904.467 542.616C904.402 541.568 904.338 540.52 904.262 539.46C904.057 536.649 903.799 533.803 903.489 530.922C903.384 529.862 903.266 528.808 903.126 527.737C902.792 524.885 902.406 521.998 901.972 519.076C901.808 518.01 901.65 516.927 901.469 515.849C901.053 513.185 900.585 510.474 900.081 507.751H1012.11C1024.93 507.751 1035.51 520.042 1035.75 535.004Z" fill="white"/>
<path d="M904.859 554.152C904.859 553.121 904.842 552.085 904.812 551.048H1015.28L904.859 554.152Z" fill="#E5E6E7"/>
<path d="M904.473 542.616C904.408 541.568 904.344 540.52 904.268 539.46H1014.95L904.473 542.616Z" fill="#E5E6E7"/>
<path d="M903.489 530.922C903.384 529.862 903.266 528.808 903.126 527.737H1014.6L903.489 530.922Z" fill="#E5E6E7"/>
<path d="M901.972 519.076C901.808 518.01 901.65 516.927 901.469 515.849H1014.25L901.972 519.076Z" fill="#E5E6E7"/>
<path d="M1234.93 515.451C1230.46 507.03 1222.5 501.532 1212.97 501.532H916.512L917.004 507.757H1012.12C1023.72 507.757 1033.51 517.858 1035.42 530.899C1035.62 532.234 1035.73 533.598 1035.75 535.009C1035.78 536.397 1035.71 537.762 1035.55 539.079C1035.47 539.881 1035.34 540.672 1035.19 541.451C1035.03 542.23 1034.85 542.991 1034.64 543.729C1031.75 554.099 1023.5 561.472 1013.64 561.472H921.226L921.741 568.036H1207.83C1223.2 568.036 1236.97 553.566 1238.65 535.372C1239.34 527.959 1237.92 521.067 1234.93 515.445V515.451Z" fill="#8390C8"/>
<g style="mix-blend-mode:soft-light">
<path d="M1212.05 535.378C1210.63 553.572 1196.99 568.042 1181.69 568.042H947.911L947.489 561.478H1013.64C1023.5 561.478 1031.75 554.105 1034.64 543.735C1034.85 542.997 1035.03 542.235 1035.19 541.457C1035.34 540.678 1035.47 539.887 1035.55 539.085C1035.71 537.767 1035.78 536.403 1035.75 535.015C1035.73 533.604 1035.62 532.245 1035.42 530.905C1033.51 517.864 1023.72 507.762 1012.12 507.762H944.034L943.636 501.538H1185.89C1200.36 501.538 1211.42 514.286 1212.14 530.623C1212.2 532.181 1212.18 533.774 1212.05 535.384V535.378Z" fill="white"/>
</g>
<path d="M1158.03 501.532H916.512L917.004 507.757H1012.12C1023.72 507.757 1033.51 517.858 1035.42 530.899C1035.62 532.234 1035.73 533.598 1035.75 535.009C1035.78 536.397 1035.71 537.762 1035.55 539.079C1035.47 539.881 1035.34 540.672 1035.19 541.451C1035.03 542.23 1034.85 542.991 1034.64 543.729C1031.75 554.099 1023.5 561.472 1013.64 561.472H921.226L921.741 568.036H1154.81C1167.91 568.036 1179.6 557.466 1183.44 543.049C1184.09 540.596 1184.52 538.019 1184.69 535.372C1185.87 516.827 1173.91 501.526 1158.03 501.526V501.532Z" fill="#8390C8"/>
<g style="mix-blend-mode:soft-light">
<path d="M1070.2 501.532H916.512L917.004 507.757H1012.12C1023.72 507.757 1033.51 517.858 1035.42 530.899C1035.62 532.234 1035.73 533.598 1035.75 535.009C1035.78 536.397 1035.71 537.762 1035.55 539.079C1035.47 539.881 1035.34 540.672 1035.19 541.451C1035.03 542.23 1034.85 542.991 1034.64 543.729C1031.75 554.099 1023.5 561.472 1013.64 561.472H921.226L921.741 568.036H1070.05C1077.77 568.036 1084.8 564.376 1089.94 558.45C1095.02 552.577 1098.26 544.437 1098.42 535.378C1098.74 516.833 1086.06 501.532 1070.2 501.532Z" fill="white"/>
</g>
<path d="M1043.49 501.532H893.61C891.608 501.532 890.12 502.931 890.278 504.641L890.337 505.291C890.513 507.2 892.094 508.073 893.716 508.36C894.184 508.447 894.647 508.488 895.086 508.488L992.971 507.868L1012.12 507.751C1023.72 507.751 1033.51 517.852 1035.42 530.893C1035.62 532.228 1035.73 533.592 1035.75 535.003C1035.78 536.391 1035.71 537.756 1035.55 539.073C1035.47 539.881 1035.34 540.672 1035.19 541.445C1035.03 542.224 1034.85 542.985 1034.64 543.723C1031.8 553.718 1023.83 559.744 1013.98 559.744L995.876 559.598L900.163 558.778C899.888 558.778 899.601 558.842 899.331 558.948C899.039 559.071 898.757 559.229 898.471 559.416C897.159 560.318 896.421 561.641 896.339 563.029C896.251 564.317 896.708 565.653 897.756 566.777C898.453 567.526 899.249 568.042 900.057 568.042H1044.27C1051.24 568.042 1057.63 565.061 1062.51 560.095C1068.38 554.158 1072.14 545.333 1072.17 535.378C1072.24 516.821 1059.35 501.532 1043.48 501.532H1043.49Z" fill="#8390C8"/>
<g style="mix-blend-mode:multiply" opacity="0.2">
<path d="M1238.65 535.378C1236.96 553.572 1223.2 568.042 1207.83 568.042H900.063C899.255 568.042 898.453 567.527 897.762 566.777C896.714 565.659 896.257 564.323 896.345 563.029C904.918 563.018 913.245 563 921.343 562.971C930.379 562.936 939.116 562.889 947.577 562.824C993.416 562.473 1031.09 561.642 1062.53 560.096C1072.25 559.621 1081.36 559.071 1089.94 558.456C1131.54 555.423 1160.59 550.586 1183.44 543.061C1194.12 539.542 1203.46 535.425 1212.14 530.623C1220.14 526.185 1227.58 521.166 1234.94 515.457C1237.92 521.073 1239.34 527.971 1238.66 535.384L1238.65 535.378Z" fill="#A6A9AB"/>
</g>
<path d="M1254.63 574.466C1254.58 574.712 1254.53 574.952 1254.5 575.198C1254.08 577.499 1253.68 579.765 1253.31 582.026C1253.15 583.015 1252.99 583.987 1252.85 584.965C1252.43 587.612 1252.06 590.224 1251.72 592.824C1251.59 593.79 1251.47 594.756 1251.36 595.716C1251.05 598.334 1250.76 600.916 1250.53 603.458C1250.44 604.412 1250.35 605.361 1250.27 606.309C1250.09 608.488 1249.95 610.637 1249.82 612.763H1124.69C1124.67 612.681 1124.64 612.599 1124.62 612.528C1124.58 612.353 1124.53 612.183 1124.47 612.019C1124.43 611.843 1124.38 611.673 1124.35 611.509C1124.24 611.135 1124.16 610.748 1124.07 610.368C1124.04 610.215 1124.01 610.063 1123.98 609.911C1123.92 609.688 1123.88 609.472 1123.85 609.249C1123.84 609.208 1123.83 609.179 1123.82 609.138C1123.8 608.986 1123.77 608.833 1123.74 608.669C1123.7 608.435 1123.67 608.213 1123.63 607.978C1123.57 607.569 1123.53 607.153 1123.48 606.737C1123.44 606.28 1123.39 605.823 1123.37 605.355C1123.34 604.986 1123.33 604.6 1123.32 604.225C1123.31 604.049 1123.3 603.879 1123.3 603.698C1123.29 603.323 1123.29 602.925 1123.3 602.538C1123.3 602.14 1123.32 601.754 1123.33 601.367C1123.35 601.192 1123.36 601.01 1123.37 600.84C1123.39 600.465 1123.43 600.085 1123.46 599.733V599.704C1123.5 599.236 1123.57 598.779 1123.63 598.328C1123.68 597.912 1123.75 597.502 1123.81 597.087C1123.9 596.677 1123.98 596.273 1124.06 595.863C1124.1 595.658 1124.15 595.453 1124.21 595.254C1124.24 595.061 1124.3 594.856 1124.35 594.651C1124.4 594.457 1124.46 594.252 1124.5 594.071C1124.56 593.866 1124.62 593.673 1124.68 593.479C1124.79 593.111 1124.9 592.747 1125.03 592.379C1125.03 592.326 1125.05 592.256 1125.08 592.197C1125.17 591.91 1125.27 591.629 1125.37 591.354C1125.42 591.231 1125.46 591.12 1125.51 591.02C1125.63 590.692 1125.75 590.382 1125.88 590.066C1125.97 589.872 1126.04 589.679 1126.13 589.498C1126.2 589.334 1126.28 589.17 1126.35 589.011C1126.36 588.982 1126.38 588.953 1126.39 588.912C1126.42 588.83 1126.47 588.76 1126.5 588.678C1126.52 588.648 1126.52 588.619 1126.54 588.596C1126.65 588.373 1126.76 588.151 1126.87 587.922C1127.01 587.659 1127.14 587.401 1127.29 587.149C1127.4 586.944 1127.51 586.751 1127.63 586.558C1127.65 586.499 1127.68 586.458 1127.7 586.406C1127.72 586.394 1127.72 586.388 1127.72 586.388C1127.87 586.136 1128.01 585.89 1128.16 585.656C1128.32 585.41 1128.46 585.17 1128.61 584.936C1128.83 584.62 1129.05 584.303 1129.26 583.999C1129.38 583.847 1129.49 583.694 1129.61 583.542C1129.72 583.402 1129.83 583.249 1129.96 583.103C1130.1 582.898 1130.25 582.717 1130.41 582.523C1130.44 582.494 1130.45 582.482 1130.47 582.465C1130.58 582.324 1130.69 582.201 1130.8 582.067C1130.96 581.891 1131.11 581.721 1131.27 581.545C1131.34 581.463 1131.42 581.381 1131.5 581.311C1131.7 581.065 1131.93 580.843 1132.16 580.632C1132.29 580.497 1132.42 580.38 1132.56 580.245C1132.69 580.134 1132.83 579.999 1132.96 579.888C1133.23 579.642 1133.49 579.402 1133.77 579.174C1133.91 579.074 1134.05 578.951 1134.2 578.84C1134.27 578.799 1134.34 578.74 1134.4 578.676C1134.47 578.617 1134.54 578.565 1134.62 578.524C1134.9 578.301 1135.18 578.096 1135.48 577.903C1136.07 577.493 1136.67 577.142 1137.28 576.814C1137.59 576.638 1137.9 576.486 1138.21 576.334C1138.37 576.252 1138.52 576.193 1138.68 576.123C1138.84 576.041 1138.99 575.982 1139.16 575.918C1139.41 575.807 1139.66 575.707 1139.92 575.625C1139.94 575.608 1139.98 575.596 1140.01 575.584C1140.07 575.567 1140.13 575.543 1140.2 575.514C1140.49 575.414 1140.78 575.321 1141.08 575.239C1141.11 575.227 1141.12 575.221 1141.14 575.221C1141.36 575.163 1141.59 575.086 1141.83 575.028C1141.84 575.016 1141.87 575.016 1141.9 575.01C1141.93 575.01 1141.97 574.999 1142.01 574.993C1142.08 574.981 1142.15 574.963 1142.22 574.952C1142.51 574.881 1142.81 574.817 1143.11 574.758C1143.45 574.7 1143.8 574.659 1144.14 574.618C1144.48 574.577 1144.83 574.548 1145.18 574.524C1145.53 574.495 1145.87 574.483 1146.23 574.483L1212.1 574.495H1254.63L1254.63 574.466Z" fill="white"/>
<path d="M1250.53 603.458C1250.44 604.412 1250.35 605.361 1250.27 606.309L1142.76 603.458H1250.53Z" fill="#E5E6E7"/>
<path d="M1251.72 592.824C1251.59 593.79 1251.47 594.756 1251.36 595.716L1143.14 592.824H1251.72Z" fill="#E5E6E7"/>
<path d="M1253.31 582.026C1253.14 583.015 1252.99 583.987 1252.84 584.965L1143.51 582.026H1253.31Z" fill="#E5E6E7"/>
<path d="M951.817 568.036C942.904 568.036 935.461 573.341 931.152 581.545C928.036 587.477 926.584 594.914 927.375 602.919C927.714 606.356 928.44 609.653 929.5 612.751H1124.7C1124.68 612.669 1124.65 612.593 1124.64 612.517C1124.6 612.394 1124.56 612.265 1124.53 612.136C1124.51 612.089 1124.5 612.054 1124.49 612.007C1124.45 611.837 1124.39 611.673 1124.35 611.503C1124.25 611.129 1124.16 610.748 1124.08 610.362C1124.04 610.209 1124.01 610.063 1123.98 609.905C1123.93 609.682 1123.89 609.466 1123.85 609.237C1123.84 609.202 1123.83 609.173 1123.82 609.132C1123.8 608.98 1123.77 608.822 1123.74 608.652C1123.7 608.429 1123.67 608.201 1123.63 607.967C1123.58 607.551 1123.53 607.141 1123.48 606.719C1123.47 606.561 1123.46 606.397 1123.44 606.233C1123.41 605.94 1123.39 605.648 1123.36 605.349C1123.34 604.974 1123.32 604.594 1123.31 604.207C1123.3 604.037 1123.3 603.868 1123.29 603.686C1123.29 603.3 1123.29 602.913 1123.29 602.515C1123.3 602.128 1123.32 601.73 1123.33 601.355L1123.36 600.817C1123.39 600.448 1123.42 600.079 1123.45 599.71V599.681C1123.5 599.218 1123.56 598.761 1123.62 598.316C1123.68 597.889 1123.74 597.491 1123.81 597.075C1123.89 596.665 1123.97 596.255 1124.06 595.845C1124.1 595.646 1124.15 595.435 1124.19 595.236C1124.23 595.043 1124.29 594.844 1124.34 594.633C1124.39 594.44 1124.45 594.241 1124.49 594.053C1124.55 593.854 1124.61 593.655 1124.66 593.462C1124.77 593.099 1124.88 592.724 1125.01 592.373C1125.02 592.314 1125.04 592.25 1125.07 592.191C1125.16 591.892 1125.25 591.617 1125.36 591.342C1125.41 591.225 1125.45 591.114 1125.49 590.997C1125.62 590.68 1125.74 590.364 1125.87 590.048C1125.95 589.855 1126.03 589.667 1126.11 589.48C1126.19 589.316 1126.27 589.146 1126.34 588.982C1126.35 588.953 1126.37 588.924 1126.37 588.888C1126.41 588.812 1126.45 588.736 1126.48 588.66C1126.5 588.631 1126.51 588.601 1126.53 588.572C1126.64 588.344 1126.75 588.121 1126.86 587.899C1126.99 587.641 1127.13 587.378 1127.27 587.132C1127.38 586.933 1127.49 586.739 1127.6 586.534C1127.63 586.476 1127.66 586.429 1127.68 586.382C1127.7 586.37 1127.7 586.365 1127.7 586.365C1127.84 586.113 1127.99 585.873 1128.14 585.633C1128.29 585.393 1128.44 585.152 1128.6 584.918C1128.81 584.59 1129.02 584.28 1129.25 583.981C1129.36 583.817 1129.47 583.665 1129.59 583.519C1129.7 583.372 1129.82 583.232 1129.94 583.085C1130.08 582.875 1130.24 582.687 1130.4 582.506C1130.42 582.476 1130.44 582.459 1130.45 582.435C1130.56 582.301 1130.68 582.172 1130.79 582.037C1130.95 581.861 1131.09 581.692 1131.26 581.522C1131.33 581.434 1131.41 581.358 1131.48 581.288C1131.69 581.036 1131.92 580.813 1132.15 580.602C1132.28 580.474 1132.41 580.351 1132.55 580.216C1132.68 580.099 1132.82 579.976 1132.95 579.859C1133.22 579.619 1133.48 579.384 1133.76 579.15C1133.9 579.045 1134.04 578.928 1134.18 578.822C1134.26 578.775 1134.32 578.717 1134.39 578.658C1134.46 578.6 1134.53 578.553 1134.61 578.5C1134.89 578.278 1135.18 578.073 1135.47 577.88C1136.06 577.481 1136.66 577.118 1137.28 576.79C1137.58 576.615 1137.89 576.457 1138.2 576.316C1138.36 576.24 1138.51 576.17 1138.67 576.099C1138.83 576.023 1138.98 575.965 1139.14 575.894C1139.4 575.789 1139.65 575.678 1139.9 575.59C1139.93 575.572 1139.97 575.561 1140 575.549C1140.06 575.531 1140.13 575.508 1140.19 575.479C1140.48 575.379 1140.78 575.285 1141.08 575.203C1141.09 575.192 1141.11 575.186 1141.13 575.186C1141.36 575.127 1141.57 575.057 1141.81 574.998C1141.83 574.987 1141.86 574.987 1141.88 574.981C1141.91 574.969 1141.96 574.963 1142 574.952C1142.07 574.94 1142.13 574.922 1142.21 574.911C1142.5 574.84 1142.8 574.776 1143.1 574.717C1143.44 574.659 1143.79 574.612 1144.13 574.571C1144.47 574.53 1144.82 574.501 1145.17 574.483C1145.51 574.466 1145.86 574.454 1146.21 574.454H1238.24L1238.78 568.03H951.817V568.036Z" fill="#FEC543"/>
<path d="M1212.53 568.036L1212.09 574.46H1146.22C1145.87 574.46 1145.52 574.472 1145.17 574.489C1144.82 574.507 1144.47 574.536 1144.14 574.577C1143.79 574.618 1143.45 574.665 1143.11 574.723C1142.81 574.782 1142.5 574.852 1142.21 574.917C1142.14 574.928 1142.08 574.946 1142 574.958C1141.97 574.969 1141.92 574.975 1141.88 574.987C1141.87 574.999 1141.84 574.999 1141.82 575.004C1141.58 575.063 1141.36 575.133 1141.13 575.192C1141.12 575.192 1141.1 575.204 1141.08 575.209C1140.78 575.286 1140.49 575.385 1140.2 575.485C1140.13 575.514 1140.07 575.531 1140 575.555C1139.97 575.567 1139.94 575.572 1139.91 575.596C1139.65 575.684 1139.41 575.789 1139.15 575.9C1138.99 575.971 1138.83 576.029 1138.68 576.105C1138.52 576.176 1138.36 576.24 1138.21 576.322C1137.9 576.468 1137.58 576.632 1137.28 576.796C1136.67 577.124 1136.07 577.499 1135.48 577.885C1135.18 578.09 1134.9 578.295 1134.61 578.506C1134.53 578.553 1134.46 578.606 1134.4 578.664C1134.32 578.723 1134.26 578.781 1134.19 578.828C1134.04 578.934 1133.9 579.051 1133.77 579.156C1133.49 579.39 1133.22 579.625 1132.95 579.865C1132.83 579.982 1132.68 580.105 1132.56 580.222C1132.42 580.357 1132.29 580.485 1132.16 580.608C1131.93 580.819 1131.71 581.042 1131.49 581.294C1131.41 581.364 1131.33 581.44 1131.27 581.528C1131.1 581.692 1130.95 581.867 1130.79 582.043C1130.68 582.178 1130.57 582.307 1130.46 582.441C1130.44 582.459 1130.42 582.482 1130.41 582.512C1130.24 582.693 1130.09 582.88 1129.94 583.091C1129.82 583.238 1129.71 583.378 1129.6 583.525C1129.48 583.671 1129.36 583.823 1129.25 583.987C1129.03 584.286 1128.81 584.596 1128.6 584.924C1128.44 585.158 1128.3 585.398 1128.15 585.639C1128 585.879 1127.85 586.119 1127.71 586.371C1127.71 586.371 1127.7 586.382 1127.69 586.388C1127.66 586.435 1127.63 586.482 1127.61 586.54C1127.5 586.745 1127.39 586.933 1127.27 587.138C1127.13 587.389 1126.99 587.647 1126.86 587.905C1126.75 588.127 1126.64 588.344 1126.54 588.578C1126.52 588.607 1126.51 588.637 1126.49 588.666C1126.45 588.742 1126.41 588.818 1126.38 588.894C1126.37 588.935 1126.35 588.959 1126.34 588.988C1126.27 589.152 1126.19 589.322 1126.12 589.486C1126.04 589.667 1125.96 589.861 1125.87 590.054C1125.74 590.37 1125.62 590.686 1125.5 591.002C1125.45 591.12 1125.41 591.231 1125.36 591.348C1125.26 591.623 1125.17 591.904 1125.07 592.197C1125.04 592.256 1125.03 592.32 1125.01 592.379C1124.89 592.73 1124.77 593.105 1124.67 593.468C1124.61 593.661 1124.55 593.86 1124.5 594.059C1124.45 594.252 1124.39 594.452 1124.35 594.639C1124.3 594.85 1124.24 595.049 1124.2 595.242C1124.15 595.441 1124.1 595.652 1124.06 595.851C1123.98 596.261 1123.9 596.671 1123.82 597.081C1123.75 597.497 1123.69 597.901 1123.63 598.322C1123.57 598.767 1123.5 599.224 1123.46 599.687V599.716C1123.43 600.085 1123.4 600.454 1123.37 600.823L1123.33 601.361C1123.32 601.742 1123.3 602.134 1123.3 602.521C1123.29 602.919 1123.3 603.305 1123.3 603.692C1123.3 603.873 1123.31 604.043 1123.32 604.213C1123.33 604.6 1123.34 604.974 1123.37 605.355C1123.39 605.654 1123.41 605.946 1123.44 606.239C1123.46 606.409 1123.47 606.567 1123.49 606.725C1123.54 607.147 1123.58 607.563 1123.64 607.973C1123.68 608.207 1123.71 608.429 1123.75 608.658C1123.77 608.827 1123.81 608.986 1123.83 609.138C1123.84 609.173 1123.85 609.202 1123.85 609.243C1123.9 609.466 1123.94 609.682 1123.98 609.911C1124.02 610.069 1124.05 610.221 1124.08 610.368C1124.16 610.748 1124.26 611.135 1124.36 611.509C1124.4 611.679 1124.45 611.843 1124.49 612.013C1124.51 612.06 1124.52 612.095 1124.53 612.142C1124.57 612.271 1124.61 612.405 1124.64 612.522C1124.66 612.599 1124.69 612.669 1124.71 612.757H955.049C954.036 609.653 953.351 606.362 953.064 602.925C952.724 598.867 952.965 594.949 953.702 591.301C956.443 577.809 965.988 568.042 978.039 568.042H1212.53V568.036Z" fill="#F8961D"/>
<path d="M1005 568.036C991.367 568.036 980.791 580.48 979.509 596.659C979.351 598.691 979.333 600.787 979.48 602.919C979.714 606.356 980.346 609.653 981.307 612.751H1124.69C1124.67 612.669 1124.64 612.593 1124.63 612.517C1124.59 612.394 1124.55 612.265 1124.52 612.136C1124.5 612.089 1124.49 612.054 1124.47 612.007C1124.43 611.837 1124.38 611.673 1124.34 611.504C1124.24 611.129 1124.15 610.748 1124.06 610.362C1124.03 610.209 1124 610.063 1123.97 609.905C1123.92 609.682 1123.88 609.466 1123.84 609.237C1123.83 609.202 1123.82 609.173 1123.81 609.132C1123.79 608.98 1123.75 608.822 1123.73 608.652C1123.69 608.429 1123.66 608.201 1123.62 607.967C1123.57 607.551 1123.52 607.141 1123.47 606.719C1123.46 606.561 1123.44 606.397 1123.43 606.233C1123.4 605.941 1123.37 605.648 1123.35 605.349C1123.33 604.974 1123.31 604.594 1123.3 604.207C1123.29 604.037 1123.29 603.868 1123.28 603.686C1123.28 603.3 1123.28 602.913 1123.28 602.515C1123.29 602.128 1123.3 601.73 1123.32 601.355L1123.35 600.817C1123.37 600.448 1123.41 600.079 1123.44 599.71V599.681C1123.49 599.218 1123.54 598.761 1123.61 598.316C1123.67 597.889 1123.73 597.491 1123.8 597.075C1123.88 596.665 1123.96 596.255 1124.05 595.845C1124.09 595.646 1124.14 595.435 1124.18 595.236C1124.22 595.043 1124.28 594.844 1124.33 594.633C1124.38 594.44 1124.43 594.241 1124.48 594.053C1124.54 593.854 1124.6 593.655 1124.65 593.462C1124.76 593.099 1124.87 592.724 1125 592.373C1125.01 592.314 1125.03 592.25 1125.05 592.191C1125.15 591.893 1125.24 591.617 1125.35 591.342C1125.39 591.225 1125.44 591.114 1125.48 590.997C1125.6 590.68 1125.73 590.364 1125.86 590.048C1125.94 589.855 1126.01 589.667 1126.1 589.48C1126.18 589.316 1126.25 589.146 1126.33 588.982C1126.34 588.953 1126.35 588.924 1126.36 588.889C1126.4 588.812 1126.44 588.736 1126.47 588.66C1126.49 588.631 1126.5 588.602 1126.52 588.572C1126.62 588.344 1126.74 588.121 1126.85 587.899C1126.98 587.641 1127.12 587.378 1127.26 587.132C1127.37 586.933 1127.48 586.739 1127.59 586.534C1127.62 586.476 1127.65 586.429 1127.67 586.382C1127.68 586.371 1127.69 586.365 1127.69 586.365C1127.83 586.113 1127.98 585.873 1128.13 585.633C1128.28 585.393 1128.43 585.153 1128.59 584.918C1128.8 584.59 1129.01 584.28 1129.24 583.981C1129.35 583.817 1129.46 583.665 1129.58 583.519C1129.69 583.372 1129.8 583.232 1129.93 583.085C1130.07 582.875 1130.23 582.687 1130.39 582.506C1130.41 582.476 1130.42 582.459 1130.44 582.435C1130.55 582.301 1130.66 582.172 1130.78 582.037C1130.93 581.862 1131.08 581.692 1131.25 581.522C1131.31 581.434 1131.4 581.358 1131.47 581.288C1131.68 581.036 1131.91 580.813 1132.14 580.603C1132.27 580.474 1132.4 580.351 1132.54 580.216C1132.67 580.099 1132.81 579.976 1132.94 579.859C1133.21 579.619 1133.47 579.385 1133.75 579.15C1133.89 579.045 1134.03 578.928 1134.17 578.822C1134.25 578.776 1134.31 578.717 1134.38 578.658C1134.45 578.6 1134.52 578.553 1134.59 578.5C1134.88 578.278 1135.17 578.073 1135.46 577.88C1136.05 577.481 1136.65 577.118 1137.26 576.79C1137.57 576.615 1137.88 576.457 1138.19 576.316C1138.35 576.24 1138.5 576.17 1138.66 576.099C1138.82 576.023 1138.97 575.965 1139.13 575.895C1139.39 575.789 1139.64 575.678 1139.89 575.59C1139.92 575.572 1139.96 575.561 1139.99 575.549C1140.05 575.531 1140.12 575.508 1140.18 575.479C1140.47 575.379 1140.77 575.286 1141.06 575.204C1141.08 575.192 1141.1 575.186 1141.12 575.186C1141.35 575.127 1141.56 575.057 1141.8 574.999C1141.82 574.987 1141.85 574.987 1141.87 574.981C1141.9 574.969 1141.95 574.963 1141.98 574.952C1142.05 574.94 1142.12 574.922 1142.19 574.911C1142.49 574.84 1142.79 574.776 1143.09 574.718C1143.43 574.659 1143.78 574.612 1144.12 574.571C1144.46 574.53 1144.81 574.501 1145.16 574.483C1145.5 574.466 1145.85 574.454 1146.2 574.454H1238.23L1238.77 568.03H1005V568.036Z" fill="#FEC543"/>
<path d="M1090.01 568.036C1074.66 568.036 1062.42 583.817 1062.77 602.919C1062.78 603.411 1062.8 603.891 1062.83 604.371C1062.98 607.287 1063.42 610.092 1064.11 612.751H1124.69C1124.67 612.669 1124.64 612.593 1124.63 612.517C1124.59 612.394 1124.55 612.265 1124.52 612.136C1124.5 612.089 1124.49 612.054 1124.47 612.007C1124.43 611.837 1124.38 611.673 1124.34 611.504C1124.24 611.129 1124.15 610.748 1124.06 610.362C1124.03 610.209 1124 610.063 1123.97 609.905C1123.92 609.682 1123.88 609.466 1123.84 609.237C1123.83 609.202 1123.82 609.173 1123.81 609.132C1123.79 608.98 1123.75 608.822 1123.73 608.652C1123.69 608.429 1123.66 608.201 1123.62 607.967C1123.57 607.551 1123.52 607.141 1123.47 606.719C1123.46 606.561 1123.44 606.397 1123.43 606.233C1123.4 605.941 1123.37 605.648 1123.35 605.349C1123.33 604.974 1123.31 604.594 1123.3 604.207C1123.29 604.037 1123.29 603.868 1123.28 603.686C1123.28 603.3 1123.28 602.913 1123.28 602.515C1123.29 602.128 1123.3 601.73 1123.32 601.355L1123.35 600.817C1123.37 600.448 1123.41 600.079 1123.44 599.71V599.681C1123.49 599.218 1123.54 598.761 1123.61 598.316C1123.67 597.889 1123.73 597.491 1123.8 597.075C1123.88 596.665 1123.96 596.255 1124.05 595.845C1124.09 595.646 1124.14 595.435 1124.18 595.236C1124.22 595.043 1124.28 594.844 1124.33 594.633C1124.38 594.44 1124.43 594.241 1124.48 594.053C1124.54 593.854 1124.6 593.655 1124.65 593.462C1124.76 593.099 1124.87 592.724 1125 592.373C1125.01 592.314 1125.03 592.25 1125.05 592.191C1125.15 591.893 1125.24 591.617 1125.35 591.342C1125.39 591.225 1125.44 591.114 1125.48 590.997C1125.6 590.68 1125.73 590.364 1125.86 590.048C1125.94 589.855 1126.01 589.667 1126.1 589.48C1126.18 589.316 1126.25 589.146 1126.33 588.982C1126.34 588.953 1126.35 588.924 1126.36 588.889C1126.4 588.812 1126.44 588.736 1126.47 588.66C1126.49 588.631 1126.5 588.602 1126.52 588.572C1126.62 588.344 1126.74 588.121 1126.85 587.899C1126.98 587.641 1127.12 587.378 1127.26 587.132C1127.37 586.933 1127.48 586.739 1127.59 586.534C1127.62 586.476 1127.65 586.429 1127.67 586.382C1127.68 586.371 1127.69 586.365 1127.69 586.365C1127.83 586.113 1127.98 585.873 1128.13 585.633C1128.28 585.393 1128.43 585.153 1128.59 584.918C1128.8 584.59 1129.01 584.28 1129.24 583.981C1129.35 583.817 1129.46 583.665 1129.58 583.519C1129.69 583.372 1129.8 583.232 1129.93 583.085C1130.07 582.875 1130.23 582.687 1130.39 582.506C1130.41 582.476 1130.42 582.459 1130.44 582.435C1130.55 582.301 1130.66 582.172 1130.78 582.037C1130.93 581.862 1131.08 581.692 1131.25 581.522C1131.31 581.434 1131.4 581.358 1131.47 581.288C1131.68 581.036 1131.91 580.813 1132.14 580.603C1132.27 580.474 1132.4 580.351 1132.54 580.216C1132.67 580.099 1132.81 579.976 1132.94 579.859C1133.21 579.619 1133.47 579.385 1133.75 579.15C1133.89 579.045 1134.03 578.928 1134.17 578.822C1134.25 578.776 1134.31 578.717 1134.38 578.658C1134.45 578.6 1134.52 578.553 1134.59 578.5C1134.88 578.278 1135.17 578.073 1135.46 577.88C1136.05 577.481 1136.65 577.118 1137.26 576.79C1137.57 576.615 1137.88 576.457 1138.19 576.316C1138.35 576.24 1138.5 576.17 1138.66 576.099C1138.82 576.023 1138.97 575.965 1139.13 575.895C1139.39 575.789 1139.64 575.678 1139.89 575.59C1139.92 575.572 1139.96 575.561 1139.99 575.549C1140.05 575.531 1140.12 575.508 1140.18 575.479C1140.47 575.379 1140.77 575.286 1141.06 575.204C1141.08 575.192 1141.1 575.186 1141.12 575.186C1141.35 575.127 1141.56 575.057 1141.8 574.999C1141.82 574.987 1141.85 574.987 1141.87 574.981C1141.9 574.969 1141.95 574.963 1141.98 574.952C1142.05 574.94 1142.12 574.922 1142.19 574.911C1142.49 574.84 1142.79 574.776 1143.09 574.718C1143.43 574.659 1143.78 574.612 1144.12 574.571C1144.46 574.53 1144.81 574.501 1145.16 574.483C1145.5 574.466 1145.85 574.454 1146.2 574.454H1238.23L1238.77 568.03H1090L1090.01 568.036Z" fill="#F8961D"/>
<path d="M1260.96 568.036H1115.87C1100.51 568.036 1088.05 583.817 1088.12 602.919C1088.12 603.756 1088.15 604.576 1088.2 605.396C1088.36 607.943 1088.74 610.409 1089.31 612.751H1124.71C1124.64 612.546 1124.59 612.341 1124.52 612.136C1124.46 611.919 1124.4 611.709 1124.34 611.504C1124.24 611.129 1124.15 610.748 1124.06 610.362C1124.03 610.209 1124 610.063 1123.97 609.905C1123.92 609.682 1123.88 609.466 1123.84 609.237C1123.83 609.202 1123.82 609.173 1123.81 609.132C1123.79 608.98 1123.75 608.822 1123.73 608.652C1123.69 608.429 1123.66 608.201 1123.62 607.967C1123.57 607.551 1123.52 607.141 1123.47 606.719C1123.46 606.561 1123.44 606.397 1123.43 606.233C1123.4 605.941 1123.37 605.648 1123.35 605.349C1123.33 604.974 1123.31 604.594 1123.3 604.207C1123.29 604.037 1123.29 603.868 1123.28 603.686C1123.28 603.3 1123.28 602.913 1123.28 602.515C1123.29 602.128 1123.3 601.73 1123.32 601.355L1123.35 600.817C1123.37 600.448 1123.41 600.079 1123.44 599.71V599.681C1123.49 599.218 1123.54 598.761 1123.61 598.316C1123.67 597.889 1123.73 597.491 1123.8 597.075C1123.88 596.665 1123.96 596.255 1124.05 595.845C1124.09 595.646 1124.14 595.435 1124.18 595.236C1124.22 595.043 1124.28 594.844 1124.33 594.633C1124.38 594.44 1124.43 594.241 1124.48 594.053C1124.54 593.854 1124.6 593.655 1124.65 593.462C1124.76 593.099 1124.87 592.724 1125 592.373C1125.01 592.314 1125.03 592.25 1125.05 592.191C1125.15 591.893 1125.24 591.617 1125.35 591.342C1125.39 591.225 1125.44 591.114 1125.48 590.997C1125.6 590.68 1125.73 590.364 1125.86 590.048C1125.94 589.855 1126.01 589.667 1126.1 589.48C1126.18 589.316 1126.25 589.146 1126.33 588.982C1126.34 588.953 1126.35 588.924 1126.36 588.889C1126.4 588.812 1126.44 588.736 1126.47 588.66C1126.49 588.631 1126.5 588.602 1126.52 588.572C1126.62 588.344 1126.74 588.121 1126.85 587.899C1126.98 587.641 1127.12 587.378 1127.26 587.132C1127.37 586.933 1127.48 586.739 1127.59 586.534C1127.62 586.476 1127.65 586.429 1127.67 586.382C1127.68 586.371 1127.69 586.365 1127.69 586.365C1127.83 586.113 1127.98 585.873 1128.13 585.633C1128.28 585.393 1128.43 585.153 1128.59 584.918C1128.8 584.59 1129.01 584.28 1129.24 583.981C1129.35 583.817 1129.46 583.665 1129.58 583.519C1129.69 583.372 1129.8 583.232 1129.93 583.085C1130.07 582.875 1130.23 582.687 1130.39 582.506C1130.41 582.476 1130.42 582.459 1130.44 582.435C1130.55 582.301 1130.66 582.172 1130.78 582.037C1130.93 581.862 1131.08 581.692 1131.25 581.522C1131.31 581.434 1131.4 581.358 1131.47 581.288C1131.68 581.036 1131.91 580.813 1132.14 580.603C1132.27 580.474 1132.4 580.351 1132.54 580.216C1132.67 580.099 1132.81 579.976 1132.94 579.859C1133.21 579.619 1133.47 579.385 1133.75 579.15C1133.89 579.045 1134.03 578.928 1134.17 578.822C1134.25 578.776 1134.31 578.717 1134.38 578.658C1134.45 578.6 1134.52 578.553 1134.59 578.5C1134.88 578.278 1135.17 578.073 1135.46 577.88C1136.05 577.481 1136.65 577.118 1137.26 576.79C1137.57 576.615 1137.88 576.457 1138.19 576.316C1138.35 576.24 1138.5 576.17 1138.66 576.099C1138.82 576.023 1138.97 575.965 1139.13 575.895C1139.39 575.789 1139.64 575.678 1139.89 575.59C1139.92 575.572 1139.96 575.561 1139.99 575.549C1140.05 575.531 1140.12 575.508 1140.18 575.479C1140.47 575.379 1140.77 575.286 1141.06 575.204C1141.08 575.192 1141.1 575.186 1141.12 575.186C1141.35 575.127 1141.56 575.057 1141.8 574.999C1141.82 574.987 1141.85 574.987 1141.87 574.981C1141.9 574.969 1141.95 574.963 1141.98 574.952C1142.05 574.94 1142.12 574.922 1142.19 574.911C1142.49 574.84 1142.79 574.776 1143.09 574.718C1143.43 574.659 1143.78 574.612 1144.12 574.571C1144.46 574.53 1144.81 574.501 1145.16 574.483C1145.5 574.466 1145.85 574.454 1146.2 574.454L1254.47 575.186L1259.43 575.215C1261.35 575.215 1263.81 574.442 1264.06 571.913L1264.12 571.245C1264.3 569.471 1262.88 568.024 1260.94 568.024L1260.96 568.036Z" fill="#FEC543"/>
<g style="mix-blend-mode:multiply" opacity="0.2">
<path d="M1124.71 612.757H929.495C928.435 609.653 927.709 606.362 927.369 602.925C926.578 594.92 928.031 587.483 931.146 581.551C934.589 584.438 941.194 587.899 953.697 591.301C960.431 593.128 968.892 594.949 979.509 596.665C999.055 599.81 1025.9 602.579 1062.82 604.377C1070.8 604.775 1079.25 605.109 1088.2 605.402C1099.17 605.771 1110.9 606.052 1123.43 606.239C1123.44 606.409 1123.46 606.567 1123.47 606.725C1123.52 607.147 1123.57 607.563 1123.62 607.973C1123.66 608.207 1123.69 608.429 1123.73 608.658C1123.75 608.827 1123.79 608.986 1123.81 609.138C1123.82 609.173 1123.83 609.202 1123.84 609.243C1123.88 609.466 1123.92 609.682 1123.97 609.911C1124 610.069 1124.03 610.221 1124.06 610.368C1124.15 610.748 1124.24 611.135 1124.34 611.509C1124.4 611.714 1124.46 611.931 1124.52 612.142C1124.58 612.347 1124.64 612.552 1124.71 612.757H1124.71Z" fill="#A6A9AB"/>
</g>
</svg>
