<svg xmlns="http://www.w3.org/2000/svg" xmlns:xlink="http://www.w3.org/1999/xlink" viewBox="0,0,256,256" width="64px" height="64px" fill-rule="nonzero"><g fill="#ffffff" fill-rule="nonzero" stroke="none" stroke-width="1" stroke-linecap="butt" stroke-linejoin="miter" stroke-miterlimit="10" stroke-dasharray="" stroke-dashoffset="0" font-family="none" font-weight="none" font-size="none" text-anchor="none" style="mix-blend-mode: normal"><g transform="scale(4,4)"><path d="M32,6c-14.358,0 -26,11.642 -26,26c0,13.035 9.603,23.799 22.113,25.679v-18.789h-6.433v-6.834h6.433v-4.548c0,-7.529 3.668,-10.833 9.926,-10.833c2.996,0 4.583,0.223 5.332,0.323v5.965h-4.268c-2.656,0 -3.584,2.52 -3.584,5.358v3.735h7.785l-1.055,6.834h-6.73v18.843c12.69,-1.72 22.481,-12.57 22.481,-25.733c0,-14.358 -11.641,-26 -26,-26z"></path></g></g></svg>