<svg width="16" height="4" viewBox="0 0 16 4" fill="none" xmlns="http://www.w3.org/2000/svg">
<path d="M2.16659 1.99984H2.17492M7.99992 1.99984H8.00825M13.8333 1.99984H13.8416M2.99992 1.99984C2.99992 2.46007 2.62682 2.83317 2.16659 2.83317C1.70635 2.83317 1.33325 2.46007 1.33325 1.99984C1.33325 1.5396 1.70635 1.1665 2.16659 1.1665C2.62682 1.1665 2.99992 1.5396 2.99992 1.99984ZM8.83325 1.99984C8.83325 2.46007 8.46016 2.83317 7.99992 2.83317C7.53968 2.83317 7.16659 2.46007 7.16659 1.99984C7.16659 1.5396 7.53968 1.1665 7.99992 1.1665C8.46016 1.1665 8.83325 1.5396 8.83325 1.99984ZM14.6666 1.99984C14.6666 2.46007 14.2935 2.83317 13.8333 2.83317C13.373 2.83317 12.9999 2.46007 12.9999 1.99984C12.9999 1.5396 13.373 1.1665 13.8333 1.1665C14.2935 1.1665 14.6666 1.5396 14.6666 1.99984Z" stroke="#ABADC6" stroke-width="2" stroke-linecap="round" stroke-linejoin="round"/>
</svg>
