<svg width="780" height="613" viewBox="0 0 780 613" fill="none" xmlns="http://www.w3.org/2000/svg">
<mask id="mask0_3_7" style="mask-type:alpha" maskUnits="userSpaceOnUse" x="0" y="0" width="780" height="613">
<rect width="780" height="613" fill="#C4C4C4"/>
</mask>
<g mask="url(#mask0_3_7)">
<path d="M135.267 414.532C64.7841 508.827 71.3481 588.038 209.23 613H782V0H81.925C-116.756 169.823 321.544 165.322 135.267 414.532Z" fill="#1B3764"/>
<path d="M1172.61 287C1172.61 416.882 1054.31 524.5 905.337 524.5C756.368 524.5 638.067 416.882 638.067 287C638.067 157.118 756.368 49.5 905.337 49.5C1054.31 49.5 1172.61 157.118 1172.61 287Z" stroke="#F5F6F8" stroke-opacity="0.3" stroke-width="25"/>
</g>
<path d="M295.781 319.874C307.745 355.266 272.54 386.442 238.219 369.021C230.794 365.25 224.92 358.897 221.752 351.196C207.101 315.605 240.965 282.976 275.298 297.704C284.989 301.861 292.402 309.889 295.781 319.879V319.874Z" fill="#8390C8"/>
<g style="mix-blend-mode:multiply" opacity="0.2">
<path d="M246.657 355.647C239.554 352.039 233.944 345.967 230.911 338.6C226.449 327.767 226.695 317.221 230.155 308.332C220.546 318.667 216.546 334.378 223.287 350.745C226.32 358.112 231.93 364.184 239.033 367.791C262.327 379.614 286.037 368.026 293.755 348.21C282.816 359.962 264.611 364.758 246.651 355.647H246.657Z" fill="#606161"/>
</g>
<g style="mix-blend-mode:soft-light">
<path d="M263.399 308.162C262.222 311.763 270.402 314.445 271.579 310.838C272.756 307.237 264.576 304.555 263.399 308.162Z" fill="white"/>
<path d="M275.181 327.568C272.054 325.431 267.193 332.54 270.326 334.677C273.453 336.814 278.313 329.705 275.181 327.568Z" fill="white"/>
<path d="M253.063 321.999C250.293 321.888 250.118 326.192 252.893 326.303C255.663 326.415 255.839 322.11 253.063 321.999Z" fill="white"/>
<path d="M254.515 337.886C251.746 337.775 251.57 342.079 254.346 342.19C257.115 342.301 257.291 337.997 254.515 337.886Z" fill="white"/>
<path d="M236.509 315.716C233.458 318.111 236.181 321.595 239.238 319.2C242.289 316.805 239.566 313.321 236.509 315.716Z" fill="white"/>
<path d="M244.297 331.989C244.262 331.954 244.227 331.913 244.192 331.878C243.436 331.064 242.171 332.229 242.927 333.049C242.962 333.084 242.997 333.125 243.032 333.16C243.788 333.974 245.052 332.809 244.297 331.989Z" fill="white"/>
<path d="M277.294 318.579C277.259 318.544 277.224 318.503 277.189 318.468C276.434 317.654 275.169 318.82 275.924 319.639C275.959 319.674 275.994 319.715 276.03 319.751C276.785 320.565 278.05 319.399 277.294 318.579Z" fill="white"/>
</g>
<path d="M331.8 300.795C328.644 294.506 310.573 296.726 286.57 305.24C287.32 305.972 288.04 306.739 288.725 307.53C306.521 301.609 319.386 299.946 321.002 303.167C323.573 308.291 299.224 327.252 265.126 344.363C231.028 361.473 200.098 370.251 197.527 365.121C195.952 361.977 204.466 353.047 219.141 342.67C218.895 341.481 218.707 340.304 218.567 339.133C196.502 353.65 183.25 367.276 186.483 373.712C191.08 382.876 227.339 373.981 267.474 353.849C307.604 333.711 336.409 309.96 331.812 300.795H331.8Z" fill="#F8961D"/>
<path d="M567.46 413.947L564.62 397.744L565.499 397.609L568.333 413.812L567.46 413.947Z" fill="#28496E"/>
<path d="M585.209 413.256L584.337 413.121L587.066 396.959L587.944 397.094L585.209 413.256Z" fill="#28496E"/>
<path d="M630.047 332.879C630.217 352.034 604.018 383.315 588.003 398.271V398.283C587.926 398.359 587.833 398.429 587.757 398.505C587.44 398.751 586.925 398.985 586.24 399.184C586.217 399.196 586.205 399.196 586.181 399.196C586.193 399.196 586.193 399.184 586.193 399.184C585.742 399.325 585.239 399.442 584.665 399.547C583.71 399.741 582.598 399.899 581.362 400.016H581.327C580.935 400.057 580.531 400.092 580.103 400.121H580.08C579.652 400.145 579.225 400.174 578.78 400.197H578.756C578.317 400.221 577.86 400.227 577.398 400.238C576.929 400.25 576.455 400.262 575.963 400.262C573.738 400.262 571.642 400.145 569.844 399.946C567.935 399.735 566.354 399.424 565.3 399.05H565.288C564.907 398.921 564.615 398.786 564.369 398.634C564.357 398.622 564.345 398.622 564.333 398.611C564.187 398.482 564.041 398.347 563.906 398.206C560.773 395.302 557.318 391.806 553.793 387.9C551.492 385.359 549.155 382.659 546.842 379.837C543.768 376.095 540.77 372.148 537.965 368.16C529.199 355.629 522.418 342.494 522.342 332.879C522.242 321.22 527.372 309.884 535.722 301.036C543.704 292.621 554.601 286.455 566.77 284.382L566.793 284.358C569.733 283.866 572.731 283.615 575.793 283.615C578.61 283.615 581.391 283.837 584.12 284.276C584.155 284.276 584.19 284.276 584.243 284.288C584.758 284.364 585.262 284.469 585.783 284.587C586.31 284.68 586.814 284.797 587.312 284.915C587.885 285.032 588.448 285.172 588.975 285.307C589.601 285.477 590.245 285.646 590.884 285.84C597.214 287.661 603.105 290.583 608.305 294.307C609.944 295.478 611.514 296.732 613.007 298.072C613.791 298.74 614.547 299.454 615.285 300.186C615.308 300.202 615.328 300.216 615.343 300.227C624.314 309.181 629.948 320.863 630.047 332.879Z" fill="#FEC543"/>
<path d="M584.073 330.607C584.073 362.129 580.548 397.767 576.197 397.767C571.846 397.767 568.321 362.129 568.321 330.607C568.321 299.086 576.197 283.615 576.197 283.615C576.197 283.615 584.073 299.086 584.073 330.607Z" fill="white"/>
<path d="M569.844 399.946C567.935 399.729 566.36 399.424 565.306 399.05H565.294C564.913 398.54 564.521 398.002 564.111 397.463C522.347 343.156 529.31 298.904 566.781 285.348C561.698 287.837 518.161 308.701 568.151 396.204C568.825 397.375 569.258 398.681 569.85 399.94L569.844 399.946Z" fill="white"/>
<path d="M582.34 399.946C584.249 399.729 585.824 399.424 586.878 399.05H586.89C587.271 398.54 587.663 398.002 588.073 397.463C629.836 343.156 622.874 298.904 585.408 285.348C590.491 287.837 634.029 308.701 584.038 396.204C583.365 397.375 582.931 398.681 582.34 399.94V399.946Z" fill="white"/>
<g style="mix-blend-mode:multiply" opacity="0.2">
<path d="M630.047 332.879C630.217 352.034 604.018 383.315 588.003 398.271V398.283C587.926 398.359 587.833 398.429 587.757 398.505C587.44 398.751 586.925 398.985 586.24 399.184C586.217 399.196 586.205 399.196 586.181 399.196C586.193 399.196 586.193 399.184 586.193 399.184C585.742 399.325 585.239 399.442 584.665 399.547C583.71 399.741 582.598 399.899 581.362 400.016H581.327C580.935 400.057 580.531 400.092 580.103 400.121H580.08C579.652 400.145 579.225 400.174 578.78 400.197H578.756C578.317 400.221 577.86 400.227 577.398 400.238C576.929 400.25 576.455 400.262 575.963 400.262C573.738 400.262 571.642 400.145 569.844 399.946C567.935 399.735 566.354 399.424 565.3 399.05H565.288C564.907 398.921 564.615 398.786 564.369 398.634C564.357 398.622 564.345 398.622 564.333 398.611C564.187 398.482 564.041 398.347 563.906 398.206C560.773 395.302 557.318 391.806 553.793 387.9C595.088 374.9 615.484 350.833 613.001 298.067C613.786 298.734 614.541 299.449 615.279 300.181C615.302 300.196 615.322 300.21 615.337 300.222C624.308 309.175 629.942 320.857 630.041 332.873L630.047 332.879Z" fill="#A6A9AB"/>
</g>
<path d="M588.126 397.943C588.126 398.054 588.085 398.166 587.997 398.271V398.283C587.921 398.359 587.833 398.429 587.757 398.505C587.435 398.751 586.925 398.985 586.234 399.184C586.217 399.196 586.205 399.196 586.187 399.196C585.742 399.337 585.239 399.454 584.665 399.553C583.716 399.747 582.598 399.905 581.368 400.022H581.339C580.999 400.051 580.648 400.086 580.291 400.104C580.232 400.115 580.173 400.121 580.115 400.121H580.086C579.851 400.139 579.629 400.151 579.395 400.156C579.19 400.174 578.985 400.186 578.786 400.192H578.768C578.323 400.221 577.866 400.227 577.409 400.238C576.935 400.25 576.461 400.256 575.975 400.256C574.85 400.256 573.755 400.227 572.725 400.174C572.426 400.156 572.122 400.139 571.835 400.121C571.144 400.074 570.488 400.022 569.855 399.946C567.947 399.723 566.365 399.425 565.306 399.044H565.294C564.913 398.915 564.615 398.775 564.374 398.628C564.363 398.616 564.357 398.616 564.345 398.611C564.14 398.482 563.994 398.341 563.906 398.206C563.859 398.124 563.83 398.031 563.83 397.937C563.83 397.761 563.929 397.597 564.111 397.439C564.187 397.375 564.275 397.311 564.38 397.246C565.077 396.825 566.406 396.444 568.151 396.169C569.124 396.011 570.224 395.882 571.431 395.8C571.723 395.77 572.01 395.747 572.315 395.735C573.469 395.659 574.692 395.624 575.969 395.624C577.245 395.624 578.581 395.659 579.769 395.735C580.068 395.753 580.361 395.782 580.654 395.8C581.514 395.876 582.322 395.958 583.066 396.069C585.163 396.356 586.773 396.76 587.558 397.246C587.599 397.264 587.628 397.281 587.657 397.299C587.956 397.504 588.126 397.715 588.126 397.931V397.943Z" fill="#F8961D"/>
<g style="mix-blend-mode:multiply" opacity="0.2">
<path d="M587.563 397.252C587.241 397.457 586.796 397.638 586.234 397.802C586.217 397.814 586.205 397.814 586.187 397.814C585.742 397.955 585.239 398.072 584.665 398.171C583.716 398.365 582.598 398.523 581.368 398.64H581.339C580.999 398.669 580.648 398.704 580.29 398.722C580.232 398.733 580.173 398.739 580.115 398.739H580.086C579.851 398.757 579.629 398.769 579.395 398.775C579.19 398.792 578.985 398.804 578.786 398.81H578.768C578.323 398.839 577.866 398.845 577.409 398.856C576.935 398.868 576.461 398.874 575.975 398.874C574.85 398.874 573.755 398.845 572.725 398.792C572.426 398.774 572.122 398.757 571.835 398.739C571.144 398.693 570.488 398.64 569.855 398.564C567.946 398.341 566.365 398.043 565.306 397.662H565.294C564.913 397.533 564.626 397.393 564.38 397.246C565.077 396.825 566.406 396.444 568.151 396.169C569.123 396.011 570.224 395.882 571.431 395.8C571.723 395.77 572.01 395.747 572.315 395.735C573.468 395.659 574.692 395.624 575.969 395.624C577.245 395.624 578.581 395.659 579.769 395.735C580.068 395.753 580.361 395.782 580.654 395.8C581.514 395.876 582.322 395.958 583.066 396.069C585.162 396.356 586.773 396.76 587.558 397.246L587.563 397.252Z" fill="#606161"/>
</g>
<path d="M573.955 413.566L573.07 413.66L571.829 400.121L571.431 395.811C571.723 395.782 572.01 395.759 572.315 395.747L572.725 400.18L573.955 413.572V413.566Z" fill="#28496E"/>
<path d="M580.659 395.811L580.29 400.104L579.125 413.66L578.241 413.566L579.395 400.156L579.775 395.747C580.074 395.765 580.367 395.794 580.659 395.811Z" fill="#28496E"/>
<path d="M585.941 412.208L585.912 412.319L585.795 412.823L585.291 414.983L582.797 425.776V425.805L582.276 428.059C578.434 429.061 574.499 429.031 570.47 428.106C570.4 428.089 570.342 428.077 570.277 428.059L567.191 414.96L566.676 412.793L566.541 412.214H585.941V412.208Z" fill="#8E8E8E"/>
<g style="mix-blend-mode:multiply" opacity="0.2">
<path d="M585.941 412.208L585.912 412.319L585.795 412.823L585.291 414.983L582.797 425.776V425.805L582.276 428.059C578.434 429.061 574.499 429.031 570.47 428.106C580.004 425.061 581.479 413.666 581.479 413.666C581.462 413.273 581.579 412.776 581.801 412.214H585.941V412.208Z" fill="#606161"/>
</g>
<g style="mix-blend-mode:multiply" opacity="0.2">
<path d="M585.795 412.823L585.291 414.983C579.289 414.181 573.205 414.175 567.191 414.954L566.676 412.787C569.024 412.477 571.39 412.284 573.767 412.208C575.331 412.155 576.9 412.155 578.452 412.208C580.905 412.29 583.359 412.495 585.795 412.823Z" fill="#606161"/>
</g>
<path d="M586.433 414.216C579.599 413.191 572.643 413.191 565.809 414.216C565.686 413.49 565.563 412.764 565.44 412.038C572.514 410.978 579.717 410.978 586.79 412.038C586.673 412.764 586.55 413.49 586.433 414.216Z" fill="#8E8E8E"/>
<path d="M607.315 239.409C607.315 239.409 611.906 239.766 615.812 243.713C619.706 247.666 617.328 261.491 617.328 261.491C617.328 261.491 629.087 239.843 632.161 229.899C635.235 219.956 624.935 209.533 624.935 209.533L611.555 232.218L607.321 239.403L607.315 239.409Z" fill="#D84459"/>
<g style="mix-blend-mode:multiply" opacity="0.5">
<path d="M607.315 239.409C607.315 239.409 611.906 239.766 615.812 243.713C619.706 247.666 617.328 261.491 617.328 261.491C617.328 261.491 622.142 246.079 619.835 241.031C618.172 237.389 614.822 234.168 611.549 232.218L607.315 239.403V239.409Z" fill="#D0D3D4"/>
</g>
<path d="M586.07 195.005C586.07 195.005 571.466 196.112 567.261 205.633C563.057 215.155 557.716 239.198 557.716 239.198C557.716 239.198 564.995 227.206 570.529 226.784C576.063 226.363 579.769 229.109 579.769 229.109L586.07 195.011V195.005Z" fill="#D84459"/>
<g style="mix-blend-mode:multiply" opacity="0.5">
<path d="M579.769 229.109C579.769 229.109 576.069 226.368 570.529 226.784C564.995 227.206 557.716 239.204 557.716 239.204C557.716 239.204 564.199 224.413 569.247 222.117C572.889 220.454 577.532 220.232 581.28 220.905L579.764 229.109H579.769Z" fill="#D0D3D4"/>
</g>
<path d="M578.885 217.011C578.235 221.004 577.778 224.582 577.462 227.557C577.287 229.203 577.158 230.661 577.058 231.896C576.818 234.871 576.76 236.581 576.76 236.581L604.68 247.022C604.68 247.022 605.769 245.687 607.567 243.256C613.212 235.585 625.773 217.04 632.513 195.538C634.58 188.956 636.102 182.087 636.705 175.171C636.705 175.159 636.705 175.154 636.705 175.154C636.916 172.829 637.016 170.492 636.998 168.162C636.922 158.154 634.679 148.199 629.169 139C618.968 142.326 610.747 148.369 604.124 155.871C588.512 173.549 581.772 199.367 578.885 217.011Z" fill="#F2F2F2"/>
<g style="mix-blend-mode:multiply" opacity="0.5">
<path d="M577.462 227.557C577.287 229.203 577.158 230.661 577.058 231.896C576.818 234.871 576.76 236.581 576.76 236.581L604.68 247.022C604.68 247.022 605.769 245.687 607.567 243.256C613.212 235.585 625.773 217.04 632.513 195.538C627.564 208.737 611.18 229.074 577.462 227.557Z" fill="#D0D3D4"/>
</g>
<path d="M597.682 177.982C594.456 186.608 598.484 196.082 606.671 199.151C614.863 202.213 624.121 197.704 627.342 189.079C630.568 180.453 626.54 170.978 618.353 167.91C610.161 164.847 600.903 169.356 597.682 177.982Z" fill="#00A6B0"/>
<path d="M601.055 179.241C600.44 180.881 600.165 182.567 600.194 184.207C600.265 187.761 601.764 191.105 604.334 193.389C605.389 194.32 606.618 195.075 608 195.596C614.324 197.962 621.48 194.484 623.969 187.814C625.011 185.032 625.076 182.128 624.332 179.522C623.389 176.225 621.164 173.397 617.996 171.88C617.68 171.728 617.352 171.593 617.024 171.464C610.7 169.099 603.544 172.577 601.055 179.241Z" fill="#A8DDE0"/>
<path opacity="0.4" d="M600.2 184.207C600.271 187.761 601.77 191.105 604.34 193.389L624.338 179.522C623.395 176.225 621.17 173.397 618.002 171.88L600.2 184.207Z" fill="white"/>
<path d="M577.052 231.896C576.812 234.871 576.76 236.581 576.76 236.581L604.68 247.022C604.68 247.022 605.775 245.687 607.567 243.256C605.096 241.406 599.861 237.863 593.214 235.375C586.457 232.845 580.091 232.101 577.058 231.896H577.052Z" fill="#00A6B0"/>
<path d="M576.76 236.587C576.76 236.587 582.287 240.861 589.994 243.742C597.706 246.624 604.68 247.028 604.68 247.028C604.68 247.028 599.152 242.753 591.446 239.872C583.734 236.991 576.76 236.587 576.76 236.587Z" fill="#00A6B0"/>
<g style="mix-blend-mode:multiply" opacity="0.5">
<path d="M576.76 236.587C576.76 236.587 582.287 240.861 589.994 243.742C597.706 246.624 604.68 247.028 604.68 247.028C604.68 247.028 599.152 242.753 591.446 239.872C583.734 236.991 576.76 236.587 576.76 236.587Z" fill="#D0D3D4"/>
</g>
<path d="M604.124 155.871C622.792 155.912 636.992 168.162 636.992 168.162C636.916 158.154 634.679 148.199 629.163 139C618.962 142.326 610.741 148.363 604.124 155.871Z" fill="#D84459"/>
<g style="mix-blend-mode:soft-light">
<path d="M608.035 158.716C606.197 160.848 605.172 162.177 605.172 162.177L600.821 161.802C601.805 160.532 602.847 159.32 603.924 158.166C605.295 158.353 606.665 158.541 608.035 158.722V158.716Z" fill="#E6E6E7"/>
<path d="M606.888 155.174C615.191 147.344 624.162 142.824 624.162 142.824C618.675 147.362 614.043 152.058 610.717 155.689C609.441 155.513 608.164 155.343 606.882 155.168L606.888 155.174Z" fill="#E6E6E7"/>
</g>
<path d="M591.44 225.25C596.558 211.571 602.853 201.282 605.511 202.278C608.164 203.267 606.167 215.166 601.049 228.845C595.931 242.524 586.978 251.818 586.978 251.818C586.978 251.818 586.322 238.929 591.44 225.25Z" fill="#D84459"/>
<path d="M244.602 207.033C246.446 212.97 243.103 219.289 237.141 221.145C231.174 223.001 224.844 219.699 223.005 213.761L244.607 207.033H244.602Z" fill="#293959"/>
<g style="mix-blend-mode:soft-light">
<path d="M243.653 211.266L239.917 213.123C239.917 213.123 240.784 217.345 237.721 219.804C237.721 219.804 242.903 217.702 243.659 211.266H243.653Z" fill="white"/>
</g>
<path d="M194.769 180.365C189.944 164.824 199.207 148.246 215.34 144.294C229.201 140.897 243.676 148.498 248.671 161.791C252.683 172.448 249.86 183.826 242.587 191.439C240.866 193.242 240.18 195.789 240.918 198.161L243.149 205.352L223.515 211.471L221.342 204.485C220.575 202.008 218.485 200.205 215.937 199.66C206.229 197.587 197.902 190.502 194.757 180.377L194.769 180.365Z" fill="#FEC543"/>
<g style="mix-blend-mode:multiply" opacity="0.2">
<path d="M202.926 181.94C199.336 170.387 206.229 158.066 218.215 155.127C228.516 152.603 239.279 158.254 242.991 168.133C245.972 176.055 243.875 184.511 238.471 190.168C237.188 191.509 236.685 193.4 237.229 195.163L238.886 200.509L224.294 205.053L222.683 199.859C222.109 198.015 220.558 196.68 218.666 196.275C211.446 194.735 205.262 189.465 202.926 181.94Z" fill="#BBBEBF"/>
</g>
<g style="mix-blend-mode:soft-light">
<path d="M243.208 158.769L235.859 161.059C235.859 161.059 227.977 147.924 215.856 147.134C215.856 147.134 234.682 142.027 243.208 158.769Z" fill="white"/>
</g>
<g style="mix-blend-mode:soft-light">
<path d="M244.432 162.722L238.33 164.625C238.33 164.625 244.455 175.815 241.996 180.834C241.996 180.834 249.157 174.264 244.432 162.728V162.722Z" fill="white"/>
</g>
<g style="mix-blend-mode:multiply" opacity="0.15">
<path d="M211.891 180.348C214.134 181.929 217.934 181.677 221.061 181.08C221.161 181.372 221.255 181.671 221.348 181.981C224.604 193.002 228.112 203.765 228.147 203.876L230.009 203.267C229.974 203.162 226.472 192.422 223.228 181.425C223.152 181.162 223.07 180.904 222.988 180.652C223.005 180.652 223.029 180.641 223.046 180.635L223.058 180.676C223.275 180.617 223.831 180.465 224.592 180.213C225.359 179.985 225.91 179.797 226.115 179.721L226.103 179.686C226.103 179.686 226.138 179.674 226.162 179.663C226.238 179.914 226.314 180.172 226.402 180.436C229.956 191.339 233.154 202.166 233.183 202.278L235.063 201.721C235.033 201.61 231.824 190.753 228.264 179.827C228.164 179.522 228.071 179.218 227.989 178.919C230.899 177.636 234.178 175.681 235.127 173.11C235.654 171.675 235.414 170.176 234.436 168.765C233.083 166.815 230.84 166.165 228.855 167.155C226.332 168.408 224.575 172.091 225.693 177.748C225.096 177.976 224.528 178.181 224.018 178.351C223.497 178.503 222.918 178.661 222.297 178.808C220.019 173.514 216.482 171.476 213.695 171.88C211.505 172.196 210.023 174.006 210.011 176.383C210.006 178.099 210.656 179.469 211.903 180.354L211.891 180.348ZM227.532 176.975C226.759 172.577 227.983 169.76 229.716 168.9C229.839 168.841 229.962 168.788 230.085 168.753C231.086 168.443 232.105 168.853 232.82 169.883C233.44 170.774 233.593 171.611 233.282 172.442C232.621 174.228 230.079 175.809 227.532 176.969V176.975ZM211.956 176.383C211.961 175.13 212.57 174.211 213.572 173.895C213.695 173.854 213.824 173.824 213.958 173.807C215.873 173.532 218.473 175.154 220.323 179.218C217.565 179.709 214.579 179.85 213.021 178.755C212.295 178.245 211.944 177.467 211.95 176.383H211.956Z" fill="#1D2738"/>
</g>
<path d="M222.373 210.365C228.598 206.359 235.812 204.14 243.208 203.952C244.795 203.911 246.019 205.071 245.937 206.406C245.855 207.747 244.672 208.766 243.313 208.807C236.813 208.971 230.477 210.921 225.002 214.44C223.855 215.178 222.309 214.991 221.489 213.931C220.669 212.871 221.032 211.225 222.373 210.365Z" fill="#293959"/>
<g style="mix-blend-mode:soft-light">
<path d="M242.845 207.636C242.845 207.636 243.729 207.706 243.928 207.003C244.022 206.664 243.934 206.26 243.407 206.008C242.136 205.399 231.116 207.319 227.391 210.534C227.391 210.534 237.065 207.185 242.845 207.636Z" fill="white"/>
</g>
<path d="M221.12 206.283C227.345 202.278 234.559 200.058 241.955 199.871C243.542 199.83 244.766 200.989 244.684 202.324C244.602 203.665 243.419 204.684 242.06 204.725C235.56 204.889 229.224 206.839 223.749 210.359C222.601 211.096 221.055 210.909 220.236 209.849C219.416 208.789 219.779 207.144 221.12 206.283Z" fill="#293959"/>
<g style="mix-blend-mode:soft-light">
<path d="M241.592 203.548C241.592 203.548 242.476 203.619 242.675 202.916C242.769 202.576 242.681 202.172 242.154 201.92C240.883 201.311 229.863 203.232 226.138 206.447C226.138 206.447 235.812 203.097 241.592 203.548Z" fill="white"/>
</g>
<path d="M219.808 202.207C226.033 198.202 233.247 195.983 240.643 195.795C242.23 195.754 243.454 196.914 243.372 198.249C243.29 199.59 242.107 200.609 240.748 200.65C234.249 200.814 227.913 202.764 222.437 206.283C221.29 207.021 219.744 206.833 218.924 205.774C218.104 204.714 218.467 203.068 219.808 202.207Z" fill="#293959"/>
<g style="mix-blend-mode:soft-light">
<path d="M240.339 199.467C240.339 199.467 241.223 199.537 241.422 198.834C241.516 198.495 241.428 198.091 240.901 197.839C239.63 197.23 228.609 199.151 224.885 202.365C224.885 202.365 234.559 199.016 240.339 199.467Z" fill="white"/>
</g>
<path d="M419.379 502.235L509.898 442.523C497.835 436.521 464.592 450.294 419.145 459.54C373.698 450.294 340.871 438.535 325.751 441.938L419.005 502.235V502.428L419.198 502.334L419.391 502.428V502.235H419.379Z" fill="#404D64"/>
<path d="M419.379 502.235L509.898 442.523C497.835 436.521 464.592 450.294 419.145 459.54C373.698 450.294 340.871 438.535 325.751 441.938L419.005 502.235V502.428L419.198 502.334L419.391 502.428V502.235H419.379Z" fill="#293959"/>
<g style="mix-blend-mode:multiply" opacity="0.2">
<path d="M419.379 502.235L509.898 442.523C497.835 436.521 464.592 450.294 419.145 459.54C373.698 450.294 340.871 438.535 325.751 441.938L419.005 502.235V502.428L419.198 502.334L419.391 502.428V502.235H419.379Z" fill="#606161"/>
</g>
<path d="M466.161 359.529C465.622 361.11 465.125 362.791 464.668 364.524C464.041 366.96 463.514 369.537 463.11 372.254C463.11 372.283 463.087 372.324 463.087 372.388C462.993 373.079 462.911 373.764 462.812 374.479C462.636 375.767 462.525 377.079 462.437 378.431C462.355 379.696 462.279 380.967 462.255 382.273C462.25 382.654 462.507 395.94 462.818 411.745C462.952 418.45 463.087 425.612 463.222 432.428C463.567 449.65 463.866 448.519 463.866 448.519C429.123 467.82 400.389 466.871 369.833 448.519C369.833 448.519 370.132 449.609 370.478 432.363C370.612 425.594 370.747 418.503 370.882 411.85C371.192 396.011 371.45 382.665 371.444 382.279C371.42 380.973 371.344 379.702 371.262 378.437C371.169 377.085 371.063 375.773 370.888 374.485C370.788 373.77 370.706 373.085 370.612 372.394C370.612 372.33 370.589 372.289 370.589 372.259C370.185 369.542 369.658 366.966 369.031 364.53C368.58 362.797 368.077 361.116 367.538 359.535C362.965 345.803 366.092 347.513 366.092 347.513C366.092 347.513 375.947 330.789 397.209 323.569C421.253 312.747 406.848 319.833 416.861 318.884C427.086 319.926 425.873 318.767 435.09 322.942C456.353 330.162 467.625 347.513 467.625 347.513C467.625 347.513 470.746 345.803 466.179 359.535L466.161 359.529Z" fill="#D84459"/>
<path d="M392.396 485.569C392.396 485.569 350.076 483.929 341.814 485.493C333.551 487.056 326.495 490.23 325.979 503.119C325.429 516.874 334.576 516.804 341.814 517.301C349.051 517.793 385.55 511.346 387.934 510.234C390.311 509.121 392.39 485.569 392.39 485.569H392.396Z" fill="white"/>
<path d="M401.15 503.646C401.15 503.646 390.867 511.645 381.844 513.8C372.709 515.99 364.446 516.622 346.24 517.354C346.24 517.354 344.999 509.478 349.59 508.617C354.181 507.757 392.929 498.68 401.15 503.64V503.646Z" fill="#00A6B0"/>
<path d="M397.039 503.435C397.039 503.435 385.75 510.778 372.158 510.772C366.097 510.772 365.196 490.939 369.57 489.709C373.944 488.479 394.756 485.481 394.756 485.481L397.039 503.435Z" fill="#EFB4AB"/>
<path d="M384.45 498.13C384.842 499.435 384.643 501.356 383.964 503.423C382.933 506.662 380.743 510.263 377.932 512.412C377.932 512.412 356.664 511.129 351.288 513.864C346.258 516.435 348.015 517.255 346.58 517.337C346.481 517.354 346.381 517.354 346.252 517.354C346.252 517.354 345.175 517.29 343.564 517.29C342.926 517.29 342.311 517.237 341.726 517.126C330.207 515.059 327.947 493.146 337.738 489.539C338.423 489.282 342.668 488.362 344.876 488.075C357.08 486.588 384.051 486.184 389.696 486.219C387.559 486.283 382.705 487.291 375.35 490.435C375.35 490.435 382.986 493.176 384.45 498.124V498.13Z" fill="#F8961D"/>
<g style="mix-blend-mode:soft-light">
<path d="M350.164 504.624C350.404 510.848 346.527 514.725 341.726 517.132C330.207 515.065 327.947 493.152 337.738 489.545C343.19 491.325 349.807 495.389 350.164 504.624Z" fill="white"/>
</g>
<path d="M392.396 485.569C392.396 485.569 478.16 445.48 494.152 442.066C511.462 436.679 536.706 453.731 517.282 472.153C495.961 492.619 397.555 506.199 397.555 506.199C396.079 506.89 390.387 494.552 392.396 485.569Z" fill="#293959"/>
<path d="M441.292 485.551C441.292 485.551 483.611 483.912 491.874 485.475C500.136 487.039 507.193 490.213 507.708 503.101C508.258 516.856 499.112 516.786 491.874 517.284C484.636 517.776 448.137 511.329 445.754 510.216C443.376 509.103 441.298 485.551 441.298 485.551H441.292Z" fill="white"/>
<path d="M432.531 503.628C432.531 503.628 442.814 511.627 451.838 513.782C460.973 515.972 469.235 516.605 487.441 517.337C487.441 517.337 488.683 509.461 484.092 508.6C479.501 507.739 440.753 498.663 432.531 503.622V503.628Z" fill="#00A6B0"/>
<path d="M436.648 503.423C436.648 503.423 447.938 510.766 461.529 510.761C467.59 510.761 468.492 490.927 464.118 489.697C459.743 488.468 438.932 485.469 438.932 485.469L436.648 503.423Z" fill="#F4B8AD"/>
<path d="M449.232 498.112C448.84 499.418 449.039 501.339 449.718 503.406C450.749 506.644 452.939 510.245 455.75 512.394C455.75 512.394 477.018 511.112 482.393 513.847C487.424 516.417 485.667 517.237 487.102 517.319C487.201 517.337 487.301 517.337 487.429 517.337C487.429 517.337 488.507 517.272 490.117 517.272C490.756 517.272 491.37 517.22 491.956 517.108C503.474 515.041 505.735 493.129 495.944 489.522C495.259 489.264 491.013 488.345 488.806 488.058C476.602 486.57 449.63 486.166 443.985 486.201C446.123 486.266 450.977 487.273 458.332 490.418C458.332 490.418 450.696 493.158 449.232 498.106V498.112Z" fill="#F8961D"/>
<g style="mix-blend-mode:soft-light">
<path d="M483.524 504.606C483.284 510.831 487.16 514.707 491.962 517.114C503.48 515.047 505.74 493.135 495.95 489.527C490.498 491.308 483.881 495.372 483.524 504.606Z" fill="white"/>
</g>
<path d="M441.292 485.569C441.292 485.569 355.528 445.48 339.536 442.066C322.226 436.679 296.982 453.731 316.405 472.153C337.726 492.619 436.133 506.199 436.133 506.199C437.608 506.89 443.3 494.552 441.292 485.569Z" fill="#28496E"/>
<path d="M435.658 323.229C435.658 323.229 439.172 349.943 416.867 349.996C394.568 350.054 398.011 323.773 398.011 323.773C398.011 323.773 401.103 322.889 402.005 316.378C402.234 314.82 402.263 313.022 402.017 310.961H431.331C431.331 310.961 431.302 311.201 431.267 311.617C431.255 311.845 431.237 312.138 431.231 312.484C431.126 315.294 431.911 319.399 435.664 323.229H435.658Z" fill="#F4B8AD"/>
<path opacity="0.5" d="M431.735 311.658C431.735 311.658 431.553 311.962 431.231 312.484C429.352 315.476 422.518 325.612 416.03 325.8C408.411 326.046 402.017 316.384 402.017 316.384L402.005 316.372C402.234 314.814 402.263 313.016 402.017 310.955H423.935L431.267 311.611L431.729 311.646L431.735 311.658Z" fill="#E17F88"/>
<path d="M377.592 357.79C377.592 357.79 374.102 370.819 370.079 385.166C368.288 391.595 366.379 398.294 364.651 404.203C362.157 412.641 360.007 419.469 358.971 421.6L341.199 423.047C341.199 423.047 341.169 423.029 341.169 423.012C339.149 420.728 337.867 417.683 337.65 414.035C337.539 412.372 337.662 410.586 338.037 408.694C338.183 407.933 338.523 406.61 338.997 404.865C339.881 401.609 341.257 396.895 342.809 391.66C347.4 376.224 353.578 356.349 353.578 356.349C364.569 345.499 377.598 357.796 377.598 357.796L377.592 357.79Z" fill="#F4B8AD"/>
<path d="M398.457 323.563C398.457 323.563 378.576 362.346 378.213 377.705C378.178 379.199 377.745 381.681 377.095 384.656C377.03 384.949 376.96 385.253 376.89 385.558C374.664 385.915 372.445 386.144 370.249 386.226C368.229 386.308 366.232 386.267 364.235 386.114C356.107 385.511 348.231 383.075 340.543 379.245C340.543 379.245 347.868 360.12 352.26 350.482C360.599 332.177 398.457 323.557 398.457 323.557V323.563Z" fill="#D84459"/>
<g style="mix-blend-mode:multiply" opacity="0.3">
<path d="M375.789 353.351L371.947 386.202C371.947 386.202 371.93 386.22 371.918 386.226C369.898 386.308 367.901 386.267 365.904 386.114L375.783 353.345L375.789 353.351Z" fill="#606161"/>
</g>
<path opacity="0.5" d="M356.108 408.87C356.189 416.359 344.25 408.612 338.991 404.859C339.875 401.603 341.251 396.889 342.803 391.654C346 393.709 356.014 400.806 356.108 408.87Z" fill="#E17F88"/>
<path d="M339.553 424.569L320.264 400.683C320.434 394.711 329.364 389.897 329.364 389.897L355.217 404.982C369.552 417.361 351.921 438.898 339.553 424.569Z" fill="#F4B8AD"/>
<path d="M457.219 357.79C457.219 357.79 460.709 370.819 464.732 385.166C466.524 391.595 468.433 398.294 470.161 404.203C472.655 412.641 474.804 419.469 475.841 421.6L493.613 423.047C493.613 423.047 493.642 423.029 493.642 423.012C495.663 420.728 496.945 417.683 497.162 414.035C497.273 412.372 497.15 410.586 496.775 408.694C496.629 407.933 496.289 406.61 495.815 404.865C494.931 401.609 493.555 396.895 492.003 391.66C487.412 376.224 481.234 356.349 481.234 356.349C470.243 345.499 457.214 357.796 457.214 357.796L457.219 357.79Z" fill="#F4B8AD"/>
<path opacity="0.5" d="M478.704 408.87C478.622 416.359 490.562 408.612 495.821 404.859C494.937 401.603 493.56 396.889 492.009 391.654C488.811 393.709 478.798 400.806 478.704 408.87Z" fill="#E17F88"/>
<path d="M495.259 424.569L514.548 400.683C514.378 394.711 505.934 389.897 505.934 389.897L479.594 404.982C465.259 417.361 482.891 438.898 495.259 424.569Z" fill="#F4B8AD"/>
<path d="M435.658 323.229C435.658 323.229 455.105 362.346 455.469 377.705C455.504 379.199 455.937 381.681 456.587 384.656C456.651 384.949 456.722 385.253 456.792 385.558C459.017 385.915 461.236 386.144 463.432 386.226C465.453 386.308 467.449 386.267 469.446 386.114C477.574 385.511 485.45 383.075 493.139 379.245C493.139 379.245 485.813 360.12 481.421 350.482C473.083 332.177 435.658 323.223 435.658 323.223V323.229Z" fill="#D84459"/>
<g style="mix-blend-mode:multiply" opacity="0.3">
<path d="M459.568 353.351L462.835 386.272C462.267 386.343 467.449 386.272 469.44 386.12L459.562 353.351H459.568Z" fill="#606161"/>
</g>
<path d="M439.886 287.269C439.886 287.269 444.378 275.832 451.803 278.356C459.234 280.88 451.563 299.876 440.15 296.152L439.886 287.269Z" fill="#F4B8AD"/>
<path d="M449.66 283.615C444.407 283.697 441.538 288.51 441.415 288.715C441.292 288.926 441.362 289.195 441.573 289.312C441.649 289.353 441.725 289.377 441.807 289.371C441.953 289.371 442.094 289.289 442.17 289.154C442.188 289.125 443.259 287.327 445.221 285.974C447.065 287.105 446.228 290.191 446.216 290.226C446.152 290.46 446.287 290.7 446.515 290.77C446.562 290.782 446.603 290.788 446.65 290.788C446.837 290.788 447.007 290.659 447.06 290.472C447.101 290.319 447.985 287.069 446.029 285.483C447.024 284.938 448.19 284.534 449.525 284.493C449.572 284.493 449.613 284.493 449.66 284.493C449.876 284.522 450.099 284.294 450.093 284.048C450.093 283.808 449.894 283.609 449.648 283.615H449.66Z" fill="#E17F88"/>
<path d="M394.024 286.695L394.287 295.572C386.856 298.494 380.479 291.274 379.179 285.254C378.529 282.215 379.168 279.492 381.598 278.491C386.733 276.406 390.797 281.343 392.747 284.429C393.573 285.723 394.024 286.689 394.024 286.689V286.695Z" fill="#F4B8AD"/>
<path d="M384.045 283.62C389.292 283.392 392.443 288.024 392.577 288.223C392.712 288.428 392.659 288.697 392.454 288.832C392.384 288.879 392.302 288.902 392.226 288.908C392.08 288.908 391.933 288.844 391.845 288.715C391.828 288.686 390.651 286.958 388.613 285.723C386.839 286.958 387.858 289.992 387.869 290.027C387.951 290.255 387.828 290.507 387.6 290.589C387.553 290.606 387.512 290.612 387.465 290.612C387.278 290.612 387.102 290.507 387.038 290.319C386.985 290.173 385.913 286.982 387.77 285.278C386.745 284.792 385.556 284.458 384.221 284.499C384.174 284.499 384.133 284.499 384.086 284.499C383.87 284.546 383.641 284.323 383.63 284.083C383.618 283.843 383.805 283.638 384.045 283.626V283.62Z" fill="#E17F88"/>
<path d="M442.035 281.085C442.621 301.305 432.291 318.099 418.776 319.171C418.495 319.212 418.208 319.229 417.927 319.229C406.379 319.575 396.308 308.373 392.864 292.767C392.132 289.546 391.687 286.121 391.588 282.578C390.979 261.931 401.777 252.187 415.696 251.765C429.633 251.361 441.426 260.437 442.035 281.079V281.085Z" fill="#F4B8AD"/>
<path d="M447.282 278.614C447.282 278.614 443.089 281.36 441.871 283.866C441.871 283.866 442.106 290.87 439.91 297.674C439.91 297.674 438.78 285.986 440.355 279.527C440.396 279.334 440.448 279.141 440.472 278.965C440.77 277.548 440.876 276.178 440.847 274.913C440.841 274.04 440.765 273.221 440.665 272.465C438.85 270.872 433.902 268.553 433.439 262.809C433.439 262.809 413.207 273.66 403.838 272.559C405.946 268.395 410.883 265.286 410.965 265.093C410.613 265.321 399.358 269.262 393.76 269.555C393.391 270.814 392.981 272.676 392.94 274.884C392.917 276.096 392.999 277.419 393.257 278.795C393.333 279.199 393.415 279.598 393.526 280.007C395.224 286.437 394.34 298.137 394.34 298.137C392.003 291.379 392.085 284.118 392.085 284.118C391.342 281.143 387.705 279.088 387.705 279.088C387.331 277.94 381.27 262.282 381.937 258.177C383.009 251.578 388.97 249.159 388.97 249.159L383.442 249.358C391.113 230.971 416.861 227.147 429.732 232.704C442.597 238.238 441.825 249.821 441.825 249.821C447.352 248.89 452.564 252.989 453.068 258.37C453.63 264.372 447.276 278.608 447.276 278.608L447.282 278.614Z" fill="#293959"/>
<path d="M400.799 291.461C400.752 291.883 399.675 292.105 398.398 291.965C397.116 291.824 396.12 291.362 396.167 290.94C396.214 290.519 397.291 290.296 398.568 290.437C399.844 290.583 400.846 291.04 400.799 291.461Z" fill="#E17F88"/>
<path d="M401.092 293.973C401.021 293.558 399.932 293.394 398.661 293.616C397.391 293.833 396.425 294.354 396.495 294.77C396.565 295.186 397.654 295.35 398.925 295.127C400.196 294.91 401.162 294.389 401.092 293.973Z" fill="#E17F88"/>
<path d="M433.439 293.013C433.486 292.591 434.563 292.369 435.84 292.509C437.122 292.656 438.118 293.113 438.071 293.534C438.024 293.956 436.947 294.178 435.67 294.038C434.394 293.891 433.392 293.435 433.439 293.013Z" fill="#E17F88"/>
<path d="M433.146 290.501C433.217 290.917 434.306 291.081 435.576 290.858C436.847 290.641 437.813 290.12 437.743 289.705C437.673 289.289 436.584 289.125 435.313 289.347C434.042 289.564 433.076 290.085 433.146 290.501Z" fill="#E17F88"/>
<path d="M417.488 299.554C417.435 299.554 417.382 299.554 417.33 299.554C416.668 299.519 415.099 298.998 414.818 295.039C414.355 288.557 415.304 284.944 415.345 284.792C415.409 284.557 415.649 284.417 415.883 284.481C416.118 284.546 416.258 284.786 416.194 285.02C416.182 285.055 415.245 288.662 415.696 294.981C415.883 297.645 416.691 298.641 417.382 298.682C418.396 298.752 419.871 296.977 420.427 294.032C420.474 293.792 420.703 293.64 420.943 293.681C421.183 293.728 421.335 293.956 421.294 294.196C420.709 297.3 419.127 299.513 417.5 299.566L417.488 299.554Z" fill="#E17F88"/>
<path d="M423.912 302.769C423.607 302.81 423.32 302.997 423.197 303.237C423.232 303.149 422.02 305.779 417.74 305.99C417.728 305.99 417.716 305.99 417.699 305.99C413.324 305.978 411.533 303.144 411.544 303.144C411.398 302.909 411.099 302.745 410.806 302.728C410.578 302.716 410.379 302.798 410.268 302.962C410.162 303.114 410.156 303.319 410.268 303.507C410.238 303.483 412.27 307.09 417.716 307.131C417.734 307.131 417.751 307.131 417.769 307.131C423.098 306.839 424.491 303.6 424.55 303.466C424.632 303.278 424.603 303.085 424.486 302.95C424.357 302.798 424.146 302.734 423.918 302.769H423.912Z" fill="#E17F88"/>
<path d="M429.568 278.286C428.192 277.671 426.558 277.729 424.72 278.444C424.076 278.696 423.355 278.379 423.104 277.735C422.852 277.091 423.174 276.371 423.812 276.119C426.313 275.147 428.596 275.112 430.611 276.014C433.779 277.437 434.973 282.197 434.323 282.438C434.194 282.484 431.753 279.252 429.568 278.28V278.286Z" fill="#293959"/>
<path d="M398.445 282.83C397.783 282.631 398.697 277.806 401.771 276.195C403.727 275.171 406.011 275.071 408.564 275.897C409.22 276.107 409.577 276.81 409.366 277.466C409.155 278.122 408.447 278.485 407.797 278.268C405.905 277.659 404.265 277.706 402.93 278.403C400.805 279.516 398.58 282.865 398.445 282.824V282.83Z" fill="#293959"/>
<path d="M404.494 287.667C404.494 290.337 405.343 292.498 406.385 292.498C407.428 292.498 408.277 290.331 408.277 287.667C408.277 285.002 407.428 282.836 406.385 282.836C405.343 282.836 404.494 285.002 404.494 287.667Z" fill="#293959"/>
<path d="M425.376 287.667C425.376 290.337 426.225 292.498 427.267 292.498C428.309 292.498 429.158 290.331 429.158 287.667C429.158 285.002 428.309 282.836 427.267 282.836C426.225 282.836 425.376 285.002 425.376 287.667Z" fill="#293959"/>
<path d="M405.735 368.395L416.838 361.596L429.112 368.963C429.112 368.963 423.923 375.351 416.147 374.854C408.37 374.356 405.735 368.395 405.735 368.395Z" fill="#8E8E8E"/>
<path d="M324.838 350.827L336.028 342.325C336.028 342.325 349.684 345.897 364.68 345.124C389.439 343.847 407.715 347.355 416.838 361.596L405.167 370.52C405.167 370.52 364.364 350.259 324.838 350.827Z" fill="white"/>
<path d="M363.761 346.553C349.848 347.238 336.672 344.837 336.672 344.837C336.801 344.872 349.772 348.104 363.802 347.402C389.895 346.108 404.927 350.675 412.575 362.223L413.283 361.754C405.448 349.925 390.177 345.241 363.761 346.553Z" fill="#E5E6E7"/>
<path d="M361.483 347.894C347.57 348.579 334.394 346.178 334.394 346.178C334.523 346.213 347.488 349.445 361.524 348.743C387.618 347.449 402.649 352.016 410.297 363.564L411.006 363.095C403.17 351.266 387.899 346.576 361.483 347.894Z" fill="#E5E6E7"/>
<path d="M358.912 349.516C345.011 350.207 331.824 347.8 331.824 347.8C331.952 347.835 344.923 351.067 358.953 350.365C385.053 349.071 400.079 353.638 407.726 365.186L408.435 364.717C400.6 352.889 385.328 348.204 358.912 349.516Z" fill="#E5E6E7"/>
<path d="M508.844 350.827L497.654 342.325C497.654 342.325 483.998 345.897 469.001 345.124C444.243 343.847 425.967 347.355 416.844 361.596L428.514 370.52C428.514 370.52 469.317 350.259 508.844 350.827Z" fill="white"/>
<path d="M470.383 346.553C484.297 347.238 497.472 344.837 497.472 344.837C497.343 344.872 484.373 348.104 470.342 347.402C444.249 346.108 429.217 350.675 421.569 362.223L420.861 361.754C428.696 349.925 443.968 345.241 470.383 346.553Z" fill="#E5E6E7"/>
<path d="M472.872 347.894C486.785 348.579 499.961 346.178 499.961 346.178C499.832 346.213 486.867 349.445 472.831 348.743C446.738 347.449 431.706 352.016 424.058 363.564L423.35 363.095C431.185 351.266 446.456 346.576 472.872 347.894Z" fill="#E5E6E7"/>
<path d="M475.49 349.516C489.391 350.207 502.578 347.8 502.578 347.8C502.45 347.835 489.479 351.067 475.449 350.365C449.349 349.071 434.323 353.638 426.676 365.186L425.967 364.717C433.802 352.889 449.074 348.204 475.49 349.516Z" fill="#E5E6E7"/>
<path d="M416.844 371.797V448.514C412.645 448.584 409.711 447.501 407.72 446.236C405.589 444.877 404.541 443.302 404.195 442.693L404.061 442.429C381.328 432.094 332.034 433.019 332.034 433.019L318.466 349.48C318.466 349.48 377.335 348.842 402.626 363.294C402.626 363.294 403.908 366.849 407.726 369.367C409.887 370.784 412.85 371.873 416.85 371.797H416.844Z" fill="#00A6B0"/>
<path d="M407.72 369.367V446.242C405.589 444.883 404.541 443.308 404.195 442.699L404.061 442.435L402.626 363.3C402.626 363.3 403.908 366.855 407.726 369.373L407.72 369.367Z" fill="#A8DDE0"/>
<path d="M398.866 430.934C398.954 430.934 399.042 430.952 399.13 430.958L396.589 374.139C394.305 374.127 392.46 372.277 392.46 369.987C392.46 369.455 392.571 368.945 392.753 368.477C383.155 365.49 356.107 357.965 330.459 359.084C330.635 359.547 330.746 360.044 330.746 360.565C330.746 362.861 328.884 364.717 326.594 364.717C326.307 364.717 326.032 364.688 325.763 364.635L334.4 422.748C334.757 422.637 335.132 422.561 335.524 422.561C337.533 422.561 339.161 424.112 339.26 426.062C349.344 425.928 374.969 426.461 395.136 434.425C395.236 432.475 396.864 430.923 398.872 430.923L398.866 430.934Z" stroke="white" stroke-width="0.84" stroke-miterlimit="10"/>
<path d="M416.844 371.797V448.514C421.042 448.584 423.976 447.501 425.967 446.236C428.099 444.877 429.147 443.302 429.492 442.693L429.627 442.429C452.359 432.094 501.653 433.019 501.653 433.019L515.221 349.48C515.221 349.48 456.353 348.842 431.062 363.294C431.062 363.294 429.779 366.849 425.961 369.367C423.8 370.784 420.837 371.873 416.838 371.797H416.844Z" fill="#00A6B0"/>
<path d="M425.961 369.367V446.242C428.093 444.883 429.141 443.308 429.486 442.699L429.621 442.435L431.056 363.3C431.056 363.3 429.773 366.855 425.955 369.373L425.961 369.367Z" fill="#A8DDE0"/>
<path d="M434.821 430.934C434.733 430.934 434.645 430.952 434.557 430.958L437.099 374.139C439.383 374.127 441.227 372.277 441.227 369.987C441.227 369.455 441.116 368.945 440.934 368.477C450.532 365.49 477.58 357.965 503.228 359.084C503.053 359.547 502.941 360.044 502.941 360.565C502.941 362.861 504.804 364.717 507.093 364.717C507.38 364.717 507.655 364.688 507.925 364.635L499.287 422.748C498.93 422.637 498.555 422.561 498.163 422.561C496.155 422.561 494.527 424.112 494.427 426.062C484.343 425.928 458.718 426.461 438.551 434.425C438.452 432.475 436.824 430.923 434.815 430.923L434.821 430.934Z" stroke="white" stroke-width="0.84" stroke-miterlimit="10"/>
<path d="M446.415 356.835C446.415 356.835 459.989 391.865 456.71 403.453L451.897 398.517L448.781 404.601C448.781 404.601 446.322 375.381 438.99 359.388C438.99 359.388 442.785 356.343 446.415 356.841V356.835Z" fill="#F8961D"/>
<path d="M321.277 384.463C321.277 384.463 333.059 380.071 333.774 383.637C333.803 385.868 326.536 389.271 324.352 390.237C329.388 389.071 337.205 386.067 338.429 388.626C339.782 391.958 326.255 396.918 325.804 397.129C325.353 397.34 339.184 392.696 339.799 395.97C340.432 398.851 331.285 401.556 328.199 403.137C328.199 403.137 336.555 401.585 337.035 403.418C337.697 406.258 332.31 407.605 327.748 408.483C324.726 408.829 322.911 408.483 322.337 407.254C321.64 406.258 322.454 404.695 322.454 404.695C322.454 404.695 319.046 402.92 320.516 399.19C320.516 399.19 316.388 396.022 318.502 392.474C318.502 392.474 312.23 388.357 321.283 384.475L321.277 384.463Z" fill="#F4B8AD"/>
<path d="M513.535 384.463C513.535 384.463 501.753 380.071 501.038 383.637C501.009 385.868 508.276 389.271 510.46 390.237C505.424 389.071 497.607 386.067 496.383 388.626C495.03 391.958 508.557 396.918 509.008 397.129C509.459 397.34 495.628 392.696 495.013 395.97C494.38 398.851 503.527 401.556 506.613 403.137C506.613 403.137 498.257 401.585 497.777 403.418C497.115 406.258 502.502 407.605 507.064 408.483C510.085 408.829 511.901 408.483 512.475 407.254C513.171 406.258 512.358 404.695 512.358 404.695C512.358 404.695 515.766 402.92 514.296 399.19C514.296 399.19 518.424 396.022 516.31 392.474C516.31 392.474 522.582 388.357 513.529 384.475L513.535 384.463Z" fill="#F4B8AD"/>
<path d="M375.748 535.004C375.982 549.719 366.092 561.483 353.636 561.483H244.777C244.848 559.071 244.883 556.629 244.859 554.158C244.859 553.127 244.842 552.091 244.812 551.054C244.76 548.279 244.643 545.468 244.467 542.616C244.402 541.568 244.338 540.52 244.262 539.46C244.057 536.649 243.799 533.803 243.489 530.922C243.384 529.862 243.266 528.808 243.126 527.737C242.792 524.885 242.406 521.998 241.972 519.076C241.808 518.01 241.65 516.927 241.469 515.849C241.053 513.185 240.585 510.474 240.081 507.751H352.114C364.926 507.751 375.508 520.042 375.748 535.004Z" fill="white"/>
<path d="M244.859 554.152C244.859 553.121 244.842 552.085 244.812 551.048H355.276L244.859 554.152Z" fill="#E5E6E7"/>
<path d="M244.473 542.616C244.408 541.568 244.344 540.52 244.268 539.46H354.948L244.473 542.616Z" fill="#E5E6E7"/>
<path d="M243.489 530.922C243.384 529.862 243.266 528.808 243.126 527.737H354.603L243.489 530.922Z" fill="#E5E6E7"/>
<path d="M241.972 519.076C241.808 518.01 241.65 516.927 241.469 515.849H354.251L241.972 519.076Z" fill="#E5E6E7"/>
<path d="M574.933 515.451C570.465 507.03 562.501 501.532 552.973 501.532H256.512L257.004 507.757H352.12C363.72 507.757 373.511 517.858 375.42 530.899C375.619 532.234 375.73 533.598 375.754 535.009C375.777 536.397 375.707 537.762 375.555 539.079C375.467 539.881 375.344 540.672 375.186 541.451C375.033 542.23 374.852 542.991 374.641 543.729C371.754 554.099 363.498 561.472 353.642 561.472H261.226L261.741 568.036H547.826C563.203 568.036 576.97 553.566 578.651 535.372C579.336 527.959 577.919 521.067 574.933 515.445V515.451Z" fill="#8390C8"/>
<g style="mix-blend-mode:soft-light">
<path d="M552.048 535.378C550.625 553.572 536.993 568.042 521.686 568.042H287.911L287.489 561.478H353.642C363.498 561.478 371.754 554.105 374.641 543.735C374.852 542.997 375.028 542.235 375.186 541.457C375.338 540.678 375.467 539.887 375.555 539.085C375.707 537.767 375.777 536.403 375.754 535.015C375.73 533.604 375.619 532.245 375.42 530.905C373.511 517.864 363.72 507.762 352.12 507.762H284.034L283.636 501.538H525.89C540.36 501.538 551.422 514.286 552.136 530.623C552.2 532.181 552.177 533.774 552.048 535.384V535.378Z" fill="white"/>
</g>
<path d="M498.034 501.532H256.512L257.004 507.757H352.12C363.72 507.757 373.511 517.858 375.42 530.899C375.619 532.234 375.73 533.598 375.754 535.009C375.777 536.397 375.707 537.762 375.555 539.079C375.467 539.881 375.344 540.672 375.186 541.451C375.033 542.23 374.852 542.991 374.641 543.729C371.754 554.099 363.498 561.472 353.642 561.472H261.226L261.741 568.036H494.808C507.913 568.036 519.595 557.466 523.437 543.049C524.087 540.596 524.52 538.019 524.69 535.372C525.873 516.827 513.909 501.526 498.034 501.526V501.532Z" fill="#8390C8"/>
<g style="mix-blend-mode:soft-light">
<path d="M410.203 501.532H256.512L257.004 507.757H352.12C363.72 507.757 373.511 517.858 375.42 530.899C375.619 532.234 375.73 533.598 375.754 535.009C375.777 536.397 375.707 537.762 375.555 539.079C375.467 539.881 375.344 540.672 375.186 541.451C375.033 542.23 374.852 542.991 374.641 543.729C371.754 554.099 363.498 561.472 353.642 561.472H261.226L261.741 568.036H410.051C417.769 568.036 424.802 564.376 429.937 558.45C435.02 552.577 438.264 544.437 438.422 535.378C438.744 516.833 426.061 501.532 410.203 501.532Z" fill="white"/>
</g>
<path d="M383.489 501.532H233.61C231.608 501.532 230.12 502.931 230.278 504.641L230.337 505.291C230.513 507.2 232.094 508.073 233.716 508.36C234.184 508.447 234.647 508.488 235.086 508.488L332.971 507.868L352.12 507.751C363.72 507.751 373.511 517.852 375.42 530.893C375.619 532.228 375.73 533.592 375.754 535.003C375.777 536.391 375.707 537.756 375.555 539.073C375.467 539.881 375.344 540.672 375.186 541.445C375.033 542.224 374.852 542.985 374.641 543.723C371.801 553.718 363.831 559.744 353.982 559.744L335.876 559.598L240.163 558.778C239.888 558.778 239.601 558.842 239.331 558.948C239.039 559.071 238.757 559.229 238.471 559.416C237.159 560.318 236.421 561.641 236.339 563.029C236.251 564.317 236.708 565.653 237.756 566.777C238.453 567.526 239.249 568.042 240.057 568.042H384.268C391.236 568.042 397.625 565.061 402.515 560.095C408.382 554.158 412.136 545.333 412.171 535.378C412.235 516.821 399.352 501.532 383.483 501.532H383.489Z" fill="#8390C8"/>
<g style="mix-blend-mode:multiply" opacity="0.2">
<path d="M578.651 535.378C576.964 553.572 563.197 568.042 547.826 568.042H240.063C239.255 568.042 238.453 567.527 237.762 566.777C236.714 565.659 236.257 564.323 236.345 563.029C244.918 563.018 253.245 563 261.343 562.971C270.379 562.936 279.116 562.889 287.577 562.824C333.416 562.473 371.092 561.642 402.526 560.096C412.247 559.621 421.359 559.071 429.943 558.456C471.543 555.423 500.587 550.586 523.443 543.061C534.118 539.542 543.463 535.425 552.136 530.623C560.141 526.185 567.578 521.166 574.938 515.457C577.925 521.073 579.342 527.971 578.657 535.384L578.651 535.378Z" fill="#A6A9AB"/>
</g>
<path d="M594.625 574.466C594.584 574.712 594.532 574.952 594.497 575.198C594.075 577.499 593.677 579.765 593.314 582.026C593.15 583.015 592.992 583.987 592.845 584.965C592.43 587.612 592.061 590.224 591.721 592.824C591.592 593.79 591.469 594.756 591.358 595.716C591.048 598.334 590.761 600.916 590.526 603.458C590.439 604.412 590.351 605.361 590.275 606.309C590.093 608.488 589.947 610.637 589.824 612.763H464.691C464.668 612.681 464.639 612.599 464.621 612.528C464.58 612.353 464.527 612.183 464.475 612.019C464.434 611.843 464.381 611.673 464.346 611.509C464.24 611.135 464.159 610.748 464.071 610.368C464.036 610.215 464.012 610.063 463.977 609.911C463.924 609.688 463.883 609.472 463.848 609.249C463.842 609.208 463.831 609.179 463.825 609.138C463.801 608.986 463.766 608.833 463.737 608.669C463.702 608.435 463.667 608.213 463.626 607.978C463.573 607.569 463.532 607.153 463.479 606.737C463.438 606.28 463.391 605.823 463.368 605.355C463.345 604.986 463.327 604.6 463.315 604.225C463.309 604.049 463.298 603.879 463.298 603.698C463.292 603.323 463.292 602.925 463.298 602.538C463.304 602.14 463.315 601.754 463.333 601.367C463.35 601.192 463.356 601.01 463.368 600.84C463.391 600.465 463.427 600.085 463.462 599.733V599.704C463.503 599.236 463.567 598.779 463.626 598.328C463.684 597.912 463.749 597.502 463.813 597.087C463.901 596.677 463.977 596.273 464.065 595.863C464.1 595.658 464.153 595.453 464.205 595.254C464.241 595.061 464.299 594.856 464.346 594.651C464.399 594.457 464.457 594.252 464.504 594.071C464.563 593.866 464.615 593.673 464.68 593.479C464.785 593.111 464.902 592.747 465.025 592.379C465.031 592.326 465.049 592.256 465.078 592.197C465.172 591.91 465.265 591.629 465.371 591.354C465.423 591.231 465.458 591.12 465.511 591.02C465.634 590.692 465.751 590.382 465.88 590.066C465.968 589.872 466.044 589.679 466.132 589.498C466.202 589.334 466.278 589.17 466.354 589.011C466.36 588.982 466.378 588.953 466.39 588.912C466.425 588.83 466.466 588.76 466.501 588.678C466.518 588.648 466.524 588.619 466.542 588.596C466.647 588.373 466.758 588.151 466.87 587.922C467.01 587.659 467.145 587.401 467.286 587.149C467.397 586.944 467.508 586.751 467.625 586.558C467.649 586.499 467.678 586.458 467.701 586.406C467.719 586.394 467.725 586.388 467.725 586.388C467.865 586.136 468.012 585.89 468.158 585.656C468.316 585.41 468.463 585.17 468.615 584.936C468.831 584.62 469.048 584.303 469.265 583.999C469.376 583.847 469.487 583.694 469.61 583.542C469.722 583.402 469.833 583.249 469.956 583.103C470.102 582.898 470.249 582.717 470.412 582.523C470.436 582.494 470.454 582.482 470.471 582.465C470.582 582.324 470.694 582.201 470.799 582.067C470.963 581.891 471.109 581.721 471.273 581.545C471.344 581.463 471.42 581.381 471.496 581.311C471.701 581.065 471.929 580.843 472.163 580.632C472.292 580.497 472.421 580.38 472.562 580.245C472.69 580.134 472.831 579.999 472.96 579.888C473.229 579.642 473.493 579.402 473.774 579.174C473.914 579.074 474.049 578.951 474.195 578.84C474.266 578.799 474.336 578.74 474.4 578.676C474.471 578.617 474.541 578.565 474.617 578.524C474.904 578.301 475.185 578.096 475.484 577.903C476.069 577.493 476.666 577.142 477.281 576.814C477.592 576.638 477.902 576.486 478.212 576.334C478.371 576.252 478.523 576.193 478.681 576.123C478.839 576.041 478.991 575.982 479.155 575.918C479.413 575.807 479.659 575.707 479.916 575.625C479.94 575.608 479.975 575.596 480.01 575.584C480.069 575.567 480.133 575.543 480.198 575.514C480.49 575.414 480.783 575.321 481.082 575.239C481.105 575.227 481.123 575.221 481.14 575.221C481.363 575.163 481.591 575.086 481.825 575.028C481.843 575.016 481.866 575.016 481.896 575.01C481.931 575.01 481.972 574.999 482.007 574.993C482.083 574.981 482.148 574.963 482.224 574.952C482.511 574.881 482.809 574.817 483.114 574.758C483.453 574.7 483.799 574.659 484.144 574.618C484.484 574.577 484.829 574.548 485.181 574.524C485.526 574.495 485.872 574.483 486.229 574.483L552.101 574.495H594.631L594.625 574.466Z" fill="white"/>
<path d="M590.526 603.458C590.439 604.412 590.351 605.361 590.275 606.309L482.762 603.458H590.526Z" fill="#E5E6E7"/>
<path d="M591.721 592.824C591.592 593.79 591.469 594.756 591.358 595.716L483.137 592.824H591.721Z" fill="#E5E6E7"/>
<path d="M593.308 582.026C593.144 583.015 592.986 583.987 592.839 584.965L483.512 582.026H593.308Z" fill="#E5E6E7"/>
<path d="M291.817 568.036C282.904 568.036 275.461 573.341 271.152 581.545C268.036 587.477 266.584 594.914 267.375 602.919C267.714 606.356 268.44 609.653 269.5 612.751H464.703C464.68 612.669 464.65 612.593 464.639 612.517C464.603 612.394 464.562 612.265 464.527 612.136C464.51 612.089 464.504 612.054 464.486 612.007C464.445 611.837 464.393 611.673 464.352 611.503C464.252 611.129 464.158 610.748 464.076 610.362C464.041 610.209 464.012 610.063 463.977 609.905C463.93 609.682 463.889 609.466 463.848 609.237C463.842 609.202 463.83 609.173 463.825 609.132C463.801 608.98 463.766 608.822 463.743 608.652C463.702 608.429 463.672 608.201 463.631 607.967C463.579 607.551 463.532 607.141 463.485 606.719C463.467 606.561 463.456 606.397 463.438 606.233C463.409 605.94 463.385 605.648 463.362 605.349C463.344 604.974 463.321 604.594 463.309 604.207C463.303 604.037 463.298 603.868 463.292 603.686C463.292 603.3 463.292 602.913 463.292 602.515C463.298 602.128 463.315 601.73 463.327 601.355L463.362 600.817C463.385 600.448 463.421 600.079 463.45 599.71V599.681C463.497 599.218 463.555 598.761 463.62 598.316C463.678 597.889 463.743 597.491 463.813 597.075C463.889 596.665 463.971 596.255 464.059 595.845C464.1 595.646 464.147 595.435 464.194 595.236C464.235 595.043 464.287 594.844 464.34 594.633C464.387 594.44 464.445 594.241 464.492 594.053C464.551 593.854 464.609 593.655 464.662 593.462C464.767 593.099 464.885 592.724 465.007 592.373C465.019 592.314 465.037 592.25 465.066 592.191C465.16 591.892 465.253 591.617 465.359 591.342C465.406 591.225 465.447 591.114 465.494 590.997C465.617 590.68 465.739 590.364 465.868 590.048C465.95 589.855 466.026 589.667 466.114 589.48C466.19 589.316 466.266 589.146 466.337 588.982C466.348 588.953 466.366 588.924 466.372 588.888C466.407 588.812 466.448 588.736 466.483 588.66C466.501 588.631 466.512 588.601 466.53 588.572C466.635 588.344 466.747 588.121 466.858 587.899C466.987 587.641 467.127 587.378 467.268 587.132C467.379 586.933 467.49 586.739 467.602 586.534C467.631 586.476 467.66 586.429 467.684 586.382C467.695 586.37 467.701 586.365 467.701 586.365C467.842 586.113 467.988 585.873 468.14 585.633C468.287 585.393 468.439 585.152 468.597 584.918C468.814 584.59 469.025 584.28 469.247 583.981C469.358 583.817 469.47 583.665 469.593 583.519C469.704 583.372 469.815 583.232 469.938 583.085C470.084 582.875 470.237 582.687 470.401 582.506C470.418 582.476 470.436 582.459 470.453 582.435C470.565 582.301 470.676 582.172 470.787 582.037C470.945 581.861 471.092 581.692 471.261 581.522C471.326 581.434 471.408 581.358 471.484 581.288C471.695 581.036 471.917 580.813 472.152 580.602C472.28 580.474 472.409 580.351 472.55 580.216C472.679 580.099 472.819 579.976 472.948 579.859C473.217 579.619 473.481 579.384 473.762 579.15C473.902 579.045 474.037 578.928 474.183 578.822C474.26 578.775 474.324 578.717 474.394 578.658C474.459 578.6 474.535 578.553 474.605 578.5C474.892 578.278 475.179 578.073 475.472 577.88C476.063 577.481 476.661 577.118 477.275 576.79C477.58 576.615 477.89 576.457 478.201 576.316C478.359 576.24 478.511 576.17 478.669 576.099C478.827 576.023 478.979 575.965 479.143 575.894C479.401 575.789 479.647 575.678 479.905 575.59C479.934 575.572 479.969 575.561 479.998 575.549C480.063 575.531 480.127 575.508 480.192 575.479C480.484 575.379 480.777 575.285 481.076 575.203C481.093 575.192 481.111 575.186 481.128 575.186C481.357 575.127 481.574 575.057 481.814 574.998C481.831 574.987 481.86 574.987 481.878 574.981C481.913 574.969 481.96 574.963 481.995 574.952C482.065 574.94 482.13 574.922 482.206 574.911C482.499 574.84 482.797 574.776 483.102 574.717C483.442 574.659 483.787 574.612 484.132 574.571C484.472 574.53 484.818 574.501 485.169 574.483C485.514 574.466 485.86 574.454 486.211 574.454H578.241L578.78 568.03H291.817V568.036Z" fill="#FEC543"/>
<path d="M552.534 568.036L552.095 574.46H486.217C485.866 574.46 485.52 574.472 485.175 574.489C484.818 574.507 484.472 574.536 484.138 574.577C483.793 574.618 483.447 574.665 483.108 574.723C482.809 574.782 482.505 574.852 482.212 574.917C482.142 574.928 482.077 574.946 482.001 574.958C481.966 574.969 481.919 574.975 481.884 574.987C481.866 574.999 481.837 574.999 481.82 575.004C481.579 575.063 481.363 575.133 481.134 575.192C481.117 575.192 481.099 575.204 481.082 575.209C480.783 575.286 480.49 575.385 480.198 575.485C480.133 575.514 480.069 575.531 480.004 575.555C479.975 575.567 479.94 575.572 479.911 575.596C479.653 575.684 479.407 575.789 479.149 575.9C478.985 575.971 478.827 576.029 478.675 576.105C478.517 576.176 478.365 576.24 478.207 576.322C477.896 576.468 477.58 576.632 477.281 576.796C476.667 577.124 476.069 577.499 475.478 577.885C475.185 578.09 474.898 578.295 474.611 578.506C474.535 578.553 474.465 578.606 474.4 578.664C474.324 578.723 474.26 578.781 474.189 578.828C474.043 578.934 473.903 579.051 473.768 579.156C473.493 579.39 473.223 579.625 472.954 579.865C472.825 579.982 472.685 580.105 472.556 580.222C472.415 580.357 472.286 580.485 472.158 580.608C471.929 580.819 471.707 581.042 471.49 581.294C471.414 581.364 471.332 581.44 471.267 581.528C471.103 581.692 470.951 581.867 470.793 582.043C470.682 582.178 470.571 582.307 470.459 582.441C470.442 582.459 470.424 582.482 470.407 582.512C470.243 582.693 470.09 582.88 469.944 583.091C469.821 583.238 469.71 583.378 469.599 583.525C469.476 583.671 469.364 583.823 469.253 583.987C469.031 584.286 468.814 584.596 468.603 584.924C468.445 585.158 468.299 585.398 468.146 585.639C468 585.879 467.848 586.119 467.707 586.371C467.707 586.371 467.695 586.382 467.69 586.388C467.66 586.435 467.631 586.482 467.608 586.54C467.496 586.745 467.385 586.933 467.274 587.138C467.133 587.389 466.993 587.647 466.864 587.905C466.753 588.127 466.641 588.344 466.536 588.578C466.518 588.607 466.507 588.637 466.489 588.666C466.454 588.742 466.413 588.818 466.378 588.894C466.366 588.935 466.349 588.959 466.343 588.988C466.267 589.152 466.19 589.322 466.12 589.486C466.038 589.667 465.962 589.861 465.874 590.054C465.74 590.37 465.622 590.686 465.5 591.002C465.453 591.12 465.412 591.231 465.365 591.348C465.259 591.623 465.166 591.904 465.072 592.197C465.043 592.256 465.025 592.32 465.013 592.379C464.891 592.73 464.773 593.105 464.668 593.468C464.609 593.661 464.551 593.86 464.498 594.059C464.451 594.252 464.393 594.452 464.346 594.639C464.299 594.85 464.24 595.049 464.2 595.242C464.153 595.441 464.1 595.652 464.065 595.851C463.977 596.261 463.901 596.671 463.819 597.081C463.749 597.497 463.69 597.901 463.626 598.322C463.567 598.767 463.503 599.224 463.462 599.687V599.716C463.427 600.085 463.397 600.454 463.368 600.823L463.333 601.361C463.315 601.742 463.304 602.134 463.298 602.521C463.292 602.919 463.298 603.305 463.298 603.692C463.298 603.873 463.309 604.043 463.315 604.213C463.327 604.6 463.345 604.974 463.368 605.355C463.391 605.654 463.409 605.946 463.444 606.239C463.462 606.409 463.473 606.567 463.491 606.725C463.538 607.147 463.585 607.563 463.637 607.973C463.678 608.207 463.708 608.429 463.749 608.658C463.772 608.827 463.807 608.986 463.831 609.138C463.836 609.173 463.848 609.202 463.854 609.243C463.895 609.466 463.936 609.682 463.983 609.911C464.018 610.069 464.047 610.221 464.082 610.368C464.164 610.748 464.258 611.135 464.358 611.509C464.399 611.679 464.451 611.843 464.492 612.013C464.51 612.06 464.516 612.095 464.533 612.142C464.568 612.271 464.609 612.405 464.645 612.522C464.662 612.599 464.686 612.669 464.709 612.757H295.049C294.036 609.653 293.351 606.362 293.064 602.925C292.724 598.867 292.965 594.949 293.702 591.301C296.443 577.809 305.988 568.042 318.039 568.042H552.534V568.036Z" fill="#F8961D"/>
<path d="M344.999 568.036C331.367 568.036 320.791 580.48 319.509 596.659C319.351 598.691 319.333 600.787 319.48 602.919C319.714 606.356 320.346 609.653 321.307 612.751H464.691C464.668 612.669 464.639 612.593 464.627 612.517C464.592 612.394 464.551 612.265 464.516 612.136C464.498 612.089 464.492 612.054 464.475 612.007C464.434 611.837 464.381 611.673 464.34 611.504C464.241 611.129 464.147 610.748 464.065 610.362C464.03 610.209 464 610.063 463.965 609.905C463.918 609.682 463.877 609.466 463.836 609.237C463.831 609.202 463.819 609.173 463.813 609.132C463.79 608.98 463.754 608.822 463.731 608.652C463.69 608.429 463.661 608.201 463.62 607.967C463.567 607.551 463.52 607.141 463.473 606.719C463.456 606.561 463.444 606.397 463.427 606.233C463.397 605.941 463.374 605.648 463.35 605.349C463.333 604.974 463.309 604.594 463.298 604.207C463.292 604.037 463.286 603.868 463.28 603.686C463.28 603.3 463.28 602.913 463.28 602.515C463.286 602.128 463.304 601.73 463.315 601.355L463.35 600.817C463.374 600.448 463.409 600.079 463.438 599.71V599.681C463.485 599.218 463.544 598.761 463.608 598.316C463.667 597.889 463.731 597.491 463.801 597.075C463.877 596.665 463.959 596.255 464.047 595.845C464.088 595.646 464.135 595.435 464.182 595.236C464.223 595.043 464.276 594.844 464.328 594.633C464.375 594.44 464.434 594.241 464.481 594.053C464.539 593.854 464.598 593.655 464.65 593.462C464.756 593.099 464.873 592.724 464.996 592.373C465.008 592.314 465.025 592.25 465.054 592.191C465.148 591.893 465.242 591.617 465.347 591.342C465.394 591.225 465.435 591.114 465.482 590.997C465.605 590.68 465.728 590.364 465.857 590.048C465.939 589.855 466.015 589.667 466.103 589.48C466.179 589.316 466.255 589.146 466.325 588.982C466.337 588.953 466.354 588.924 466.36 588.889C466.395 588.812 466.436 588.736 466.472 588.66C466.489 588.631 466.501 588.602 466.518 588.572C466.624 588.344 466.735 588.121 466.846 587.899C466.975 587.641 467.116 587.378 467.256 587.132C467.368 586.933 467.479 586.739 467.59 586.534C467.619 586.476 467.649 586.429 467.672 586.382C467.684 586.371 467.69 586.365 467.69 586.365C467.83 586.113 467.977 585.873 468.129 585.633C468.275 585.393 468.427 585.153 468.586 584.918C468.802 584.59 469.013 584.28 469.236 583.981C469.347 583.817 469.458 583.665 469.581 583.519C469.692 583.372 469.804 583.232 469.926 583.085C470.073 582.875 470.225 582.687 470.389 582.506C470.407 582.476 470.424 582.459 470.442 582.435C470.553 582.301 470.664 582.172 470.776 582.037C470.934 581.862 471.08 581.692 471.25 581.522C471.314 581.434 471.396 581.358 471.472 581.288C471.683 581.036 471.906 580.813 472.14 580.603C472.269 580.474 472.398 580.351 472.538 580.216C472.667 580.099 472.808 579.976 472.936 579.859C473.206 579.619 473.469 579.385 473.75 579.15C473.891 579.045 474.026 578.928 474.172 578.822C474.248 578.776 474.312 578.717 474.383 578.658C474.447 578.6 474.523 578.553 474.594 578.5C474.88 578.278 475.167 578.073 475.46 577.88C476.052 577.481 476.649 577.118 477.264 576.79C477.568 576.615 477.879 576.457 478.189 576.316C478.347 576.24 478.499 576.17 478.657 576.099C478.816 576.023 478.968 575.965 479.132 575.895C479.389 575.789 479.635 575.678 479.893 575.59C479.922 575.572 479.957 575.561 479.987 575.549C480.051 575.531 480.116 575.508 480.18 575.479C480.473 575.379 480.766 575.286 481.064 575.204C481.082 575.192 481.099 575.186 481.117 575.186C481.345 575.127 481.562 575.057 481.802 574.999C481.82 574.987 481.849 574.987 481.866 574.981C481.902 574.969 481.948 574.963 481.984 574.952C482.054 574.94 482.118 574.922 482.194 574.911C482.487 574.84 482.786 574.776 483.09 574.718C483.43 574.659 483.775 574.612 484.121 574.571C484.461 574.53 484.806 574.501 485.157 574.483C485.503 574.466 485.848 574.454 486.2 574.454H578.229L578.768 568.03H344.999V568.036Z" fill="#FEC543"/>
<path d="M430.013 568.036C414.66 568.036 402.415 583.817 402.772 602.919C402.784 603.411 402.802 603.891 402.825 604.371C402.977 607.287 403.422 610.092 404.113 612.751H464.691C464.668 612.669 464.639 612.593 464.627 612.517C464.592 612.394 464.551 612.265 464.516 612.136C464.498 612.089 464.492 612.054 464.475 612.007C464.434 611.837 464.381 611.673 464.34 611.504C464.241 611.129 464.147 610.748 464.065 610.362C464.03 610.209 464 610.063 463.965 609.905C463.918 609.682 463.877 609.466 463.836 609.237C463.831 609.202 463.819 609.173 463.813 609.132C463.79 608.98 463.754 608.822 463.731 608.652C463.69 608.429 463.661 608.201 463.62 607.967C463.567 607.551 463.52 607.141 463.473 606.719C463.456 606.561 463.444 606.397 463.427 606.233C463.397 605.941 463.374 605.648 463.35 605.349C463.333 604.974 463.309 604.594 463.298 604.207C463.292 604.037 463.286 603.868 463.28 603.686C463.28 603.3 463.28 602.913 463.28 602.515C463.286 602.128 463.304 601.73 463.315 601.355L463.35 600.817C463.374 600.448 463.409 600.079 463.438 599.71V599.681C463.485 599.218 463.544 598.761 463.608 598.316C463.667 597.889 463.731 597.491 463.801 597.075C463.877 596.665 463.959 596.255 464.047 595.845C464.088 595.646 464.135 595.435 464.182 595.236C464.223 595.043 464.276 594.844 464.328 594.633C464.375 594.44 464.434 594.241 464.481 594.053C464.539 593.854 464.598 593.655 464.65 593.462C464.756 593.099 464.873 592.724 464.996 592.373C465.008 592.314 465.025 592.25 465.054 592.191C465.148 591.893 465.242 591.617 465.347 591.342C465.394 591.225 465.435 591.114 465.482 590.997C465.605 590.68 465.728 590.364 465.857 590.048C465.939 589.855 466.015 589.667 466.103 589.48C466.179 589.316 466.255 589.146 466.325 588.982C466.337 588.953 466.354 588.924 466.36 588.889C466.395 588.812 466.436 588.736 466.472 588.66C466.489 588.631 466.501 588.602 466.518 588.572C466.624 588.344 466.735 588.121 466.846 587.899C466.975 587.641 467.116 587.378 467.256 587.132C467.368 586.933 467.479 586.739 467.59 586.534C467.619 586.476 467.649 586.429 467.672 586.382C467.684 586.371 467.69 586.365 467.69 586.365C467.83 586.113 467.977 585.873 468.129 585.633C468.275 585.393 468.427 585.153 468.586 584.918C468.802 584.59 469.013 584.28 469.236 583.981C469.347 583.817 469.458 583.665 469.581 583.519C469.692 583.372 469.804 583.232 469.926 583.085C470.073 582.875 470.225 582.687 470.389 582.506C470.407 582.476 470.424 582.459 470.442 582.435C470.553 582.301 470.664 582.172 470.776 582.037C470.934 581.862 471.08 581.692 471.25 581.522C471.314 581.434 471.396 581.358 471.472 581.288C471.683 581.036 471.906 580.813 472.14 580.603C472.269 580.474 472.398 580.351 472.538 580.216C472.667 580.099 472.808 579.976 472.936 579.859C473.206 579.619 473.469 579.385 473.75 579.15C473.891 579.045 474.026 578.928 474.172 578.822C474.248 578.776 474.312 578.717 474.383 578.658C474.447 578.6 474.523 578.553 474.594 578.5C474.88 578.278 475.167 578.073 475.46 577.88C476.052 577.481 476.649 577.118 477.264 576.79C477.568 576.615 477.879 576.457 478.189 576.316C478.347 576.24 478.499 576.17 478.657 576.099C478.816 576.023 478.968 575.965 479.132 575.895C479.389 575.789 479.635 575.678 479.893 575.59C479.922 575.572 479.957 575.561 479.987 575.549C480.051 575.531 480.116 575.508 480.18 575.479C480.473 575.379 480.766 575.286 481.064 575.204C481.082 575.192 481.099 575.186 481.117 575.186C481.345 575.127 481.562 575.057 481.802 574.999C481.82 574.987 481.849 574.987 481.866 574.981C481.902 574.969 481.948 574.963 481.984 574.952C482.054 574.94 482.118 574.922 482.194 574.911C482.487 574.84 482.786 574.776 483.09 574.718C483.43 574.659 483.775 574.612 484.121 574.571C484.461 574.53 484.806 574.501 485.157 574.483C485.503 574.466 485.848 574.454 486.2 574.454H578.229L578.768 568.03H429.996L430.013 568.036Z" fill="#F8961D"/>
<path d="M600.956 568.036H455.873C440.513 568.036 428.052 583.817 428.116 602.919C428.116 603.756 428.151 604.576 428.204 605.396C428.356 607.943 428.737 610.409 429.311 612.751H464.709C464.645 612.546 464.586 612.341 464.516 612.136C464.457 611.919 464.399 611.709 464.34 611.504C464.241 611.129 464.147 610.748 464.065 610.362C464.03 610.209 464 610.063 463.965 609.905C463.918 609.682 463.877 609.466 463.836 609.237C463.831 609.202 463.819 609.173 463.813 609.132C463.79 608.98 463.754 608.822 463.731 608.652C463.69 608.429 463.661 608.201 463.62 607.967C463.567 607.551 463.52 607.141 463.473 606.719C463.456 606.561 463.444 606.397 463.427 606.233C463.397 605.941 463.374 605.648 463.35 605.349C463.333 604.974 463.309 604.594 463.298 604.207C463.292 604.037 463.286 603.868 463.28 603.686C463.28 603.3 463.28 602.913 463.28 602.515C463.286 602.128 463.304 601.73 463.315 601.355L463.35 600.817C463.374 600.448 463.409 600.079 463.438 599.71V599.681C463.485 599.218 463.544 598.761 463.608 598.316C463.667 597.889 463.731 597.491 463.801 597.075C463.877 596.665 463.959 596.255 464.047 595.845C464.088 595.646 464.135 595.435 464.182 595.236C464.223 595.043 464.276 594.844 464.328 594.633C464.375 594.44 464.434 594.241 464.481 594.053C464.539 593.854 464.598 593.655 464.65 593.462C464.756 593.099 464.873 592.724 464.996 592.373C465.008 592.314 465.025 592.25 465.054 592.191C465.148 591.893 465.242 591.617 465.347 591.342C465.394 591.225 465.435 591.114 465.482 590.997C465.605 590.68 465.728 590.364 465.857 590.048C465.939 589.855 466.015 589.667 466.103 589.48C466.179 589.316 466.255 589.146 466.325 588.982C466.337 588.953 466.354 588.924 466.36 588.889C466.395 588.812 466.436 588.736 466.472 588.66C466.489 588.631 466.501 588.602 466.518 588.572C466.624 588.344 466.735 588.121 466.846 587.899C466.975 587.641 467.116 587.378 467.256 587.132C467.368 586.933 467.479 586.739 467.59 586.534C467.619 586.476 467.649 586.429 467.672 586.382C467.684 586.371 467.69 586.365 467.69 586.365C467.83 586.113 467.977 585.873 468.129 585.633C468.275 585.393 468.427 585.153 468.586 584.918C468.802 584.59 469.013 584.28 469.236 583.981C469.347 583.817 469.458 583.665 469.581 583.519C469.692 583.372 469.804 583.232 469.927 583.085C470.073 582.875 470.225 582.687 470.389 582.506C470.407 582.476 470.424 582.459 470.442 582.435C470.553 582.301 470.664 582.172 470.776 582.037C470.934 581.862 471.08 581.692 471.25 581.522C471.314 581.434 471.396 581.358 471.472 581.288C471.683 581.036 471.906 580.813 472.14 580.603C472.269 580.474 472.398 580.351 472.538 580.216C472.667 580.099 472.808 579.976 472.936 579.859C473.206 579.619 473.469 579.385 473.75 579.15C473.891 579.045 474.026 578.928 474.172 578.822C474.248 578.776 474.312 578.717 474.383 578.658C474.447 578.6 474.523 578.553 474.594 578.5C474.88 578.278 475.167 578.073 475.46 577.88C476.052 577.481 476.649 577.118 477.264 576.79C477.568 576.615 477.879 576.457 478.189 576.316C478.347 576.24 478.499 576.17 478.657 576.099C478.816 576.023 478.968 575.965 479.132 575.895C479.389 575.789 479.635 575.678 479.893 575.59C479.922 575.572 479.957 575.561 479.987 575.549C480.051 575.531 480.116 575.508 480.18 575.479C480.473 575.379 480.766 575.286 481.064 575.204C481.082 575.192 481.099 575.186 481.117 575.186C481.345 575.127 481.562 575.057 481.802 574.999C481.82 574.987 481.849 574.987 481.866 574.981C481.902 574.969 481.948 574.963 481.984 574.952C482.054 574.94 482.118 574.922 482.194 574.911C482.487 574.84 482.786 574.776 483.09 574.718C483.43 574.659 483.775 574.612 484.121 574.571C484.461 574.53 484.806 574.501 485.157 574.483C485.503 574.466 485.848 574.454 486.2 574.454L594.467 575.186L599.427 575.215C601.348 575.215 603.807 574.442 604.059 571.913L604.124 571.245C604.299 569.471 602.876 568.024 600.938 568.024L600.956 568.036Z" fill="#FEC543"/>
<g style="mix-blend-mode:multiply" opacity="0.2">
<path d="M464.715 612.757H269.495C268.435 609.653 267.709 606.362 267.369 602.925C266.578 594.92 268.031 587.483 271.146 581.551C274.589 584.438 281.194 587.899 293.697 591.301C300.431 593.128 308.892 594.949 319.509 596.665C339.055 599.81 365.904 602.579 402.825 604.377C410.801 604.775 419.251 605.109 428.204 605.402C439.166 605.771 450.895 606.052 463.427 606.239C463.444 606.409 463.456 606.567 463.473 606.725C463.52 607.147 463.567 607.563 463.62 607.973C463.661 608.207 463.69 608.429 463.731 608.658C463.754 608.827 463.79 608.986 463.813 609.138C463.819 609.173 463.831 609.202 463.836 609.243C463.877 609.466 463.918 609.682 463.965 609.911C464 610.069 464.03 610.221 464.065 610.368C464.147 610.748 464.241 611.135 464.34 611.509C464.399 611.714 464.457 611.931 464.516 612.142C464.58 612.347 464.639 612.552 464.709 612.757H464.715Z" fill="#A6A9AB"/>
</g>
</svg>
