<svg width="32" height="32" viewBox="0 0 32 32" fill="none" xmlns="http://www.w3.org/2000/svg">
<path d="M16.0001 23.9165C16.4487 23.9165 16.825 23.7645 17.129 23.4605C17.433 23.1565 17.5845 22.7807 17.5834 22.3332V17.5832H22.373C22.8216 17.5832 23.1911 17.4312 23.4813 17.1272C23.7716 16.8232 23.9167 16.4474 23.9167 15.9998C23.9167 15.5512 23.7647 15.1749 23.4607 14.8709C23.1567 14.5669 22.781 14.4154 22.3334 14.4165H17.5834V9.62692C17.5834 9.17831 17.4314 8.80887 17.1274 8.51859C16.8234 8.22831 16.4476 8.08317 16.0001 8.08317C15.5515 8.08317 15.1752 8.23517 14.8712 8.53917C14.5672 8.84317 14.4157 9.21895 14.4167 9.6665V14.4165H9.62716C9.17855 14.4165 8.80911 14.5685 8.51883 14.8725C8.22855 15.1765 8.08342 15.5523 8.08342 15.9998C8.08342 16.4484 8.23542 16.8248 8.53942 17.1288C8.84342 17.4328 9.21919 17.5842 9.66675 17.5832H14.4167V22.3728C14.4167 22.8214 14.5687 23.1908 14.8727 23.4811C15.1767 23.7714 15.5525 23.9165 16.0001 23.9165ZM16.0001 31.8332C13.8098 31.8332 11.7515 31.4173 9.82508 30.5855C7.89869 29.7537 6.223 28.6259 4.798 27.2019C3.373 25.7769 2.24514 24.1012 1.41441 22.1748C0.583693 20.2484 0.167804 18.1901 0.166748 15.9998C0.166748 13.8096 0.582637 11.7512 1.41441 9.82484C2.24619 7.89845 3.37405 6.22275 4.798 4.79775C6.223 3.37275 7.89869 2.24489 9.82508 1.41417C11.7515 0.583449 13.8098 0.167559 16.0001 0.166504C18.1904 0.166504 20.2487 0.582393 22.1751 1.41417C24.1015 2.24595 25.7772 3.37381 27.2022 4.79775C28.6272 6.22275 29.7556 7.89845 30.5873 9.82484C31.4191 11.7512 31.8345 13.8096 31.8334 15.9998C31.8334 18.1901 31.4175 20.2484 30.5857 22.1748C29.754 24.1012 28.6261 25.7769 27.2022 27.2019C25.7772 28.6269 24.1015 29.7553 22.1751 30.5871C20.2487 31.4189 18.1904 31.8342 16.0001 31.8332Z" fill="#4ECDC4"/>
</svg>
